<svg width="238" height="230" viewBox="0 0 238 230" fill="none" xmlns="http://www.w3.org/2000/svg">
<path d="M12.3591 170.3C10.9257 170.3 9.70906 169.983 8.70906 169.35C7.70906 168.717 6.94573 167.837 6.41906 166.71C5.89906 165.583 5.63906 164.28 5.63906 162.8C5.63906 161.32 5.89906 160.017 6.41906 158.89C6.94573 157.763 7.70906 156.883 8.70906 156.25C9.70906 155.617 10.9257 155.3 12.3591 155.3C14.0257 155.3 15.3957 155.723 16.4691 156.57C17.5491 157.417 18.2924 158.557 18.6991 159.99L16.8891 160.47C16.5957 159.397 16.0724 158.55 15.3191 157.93C14.5657 157.31 13.5791 157 12.3591 157C11.2857 157 10.3924 157.243 9.67906 157.73C8.96573 158.217 8.42906 158.897 8.06906 159.77C7.70906 160.637 7.52573 161.647 7.51906 162.8C7.5124 163.947 7.68906 164.957 8.04906 165.83C8.40906 166.697 8.94906 167.377 9.66906 167.87C10.3891 168.357 11.2857 168.6 12.3591 168.6C13.5791 168.6 14.5657 168.29 15.3191 167.67C16.0724 167.043 16.5957 166.197 16.8891 165.13L18.6991 165.61C18.2924 167.037 17.5491 168.177 16.4691 169.03C15.3957 169.877 14.0257 170.3 12.3591 170.3ZM23.9622 170.3C23.1555 170.3 22.4789 170.153 21.9322 169.86C21.3922 169.56 20.9822 169.167 20.7022 168.68C20.4289 168.193 20.2922 167.66 20.2922 167.08C20.2922 166.513 20.3989 166.023 20.6122 165.61C20.8322 165.19 21.1389 164.843 21.5322 164.57C21.9255 164.29 22.3955 164.07 22.9422 163.91C23.4555 163.77 24.0289 163.65 24.6622 163.55C25.3022 163.443 25.9489 163.347 26.6022 163.26C27.2555 163.173 27.8655 163.09 28.4322 163.01L27.7922 163.38C27.8122 162.42 27.6189 161.71 27.2122 161.25C26.8122 160.79 26.1189 160.56 25.1322 160.56C24.4789 160.56 23.9055 160.71 23.4122 161.01C22.9255 161.303 22.5822 161.783 22.3822 162.45L20.6922 161.94C20.9522 160.993 21.4555 160.25 22.2022 159.71C22.9489 159.17 23.9322 158.9 25.1522 158.9C26.1322 158.9 26.9722 159.077 27.6722 159.43C28.3789 159.777 28.8855 160.303 29.1922 161.01C29.3455 161.343 29.4422 161.707 29.4822 162.1C29.5222 162.487 29.5422 162.893 29.5422 163.32V170H27.9622V167.41L28.3322 167.65C27.9255 168.523 27.3555 169.183 26.6222 169.63C25.8955 170.077 25.0089 170.3 23.9622 170.3ZM24.2322 168.81C24.8722 168.81 25.4255 168.697 25.8922 168.47C26.3655 168.237 26.7455 167.933 27.0322 167.56C27.3189 167.18 27.5055 166.767 27.5922 166.32C27.6922 165.987 27.7455 165.617 27.7522 165.21C27.7655 164.797 27.7722 164.48 27.7722 164.26L28.3922 164.53C27.8122 164.61 27.2422 164.687 26.6822 164.76C26.1222 164.833 25.5922 164.913 25.0922 165C24.5922 165.08 24.1422 165.177 23.7422 165.29C23.4489 165.383 23.1722 165.503 22.9122 165.65C22.6589 165.797 22.4522 165.987 22.2922 166.22C22.1389 166.447 22.0622 166.73 22.0622 167.07C22.0622 167.363 22.1355 167.643 22.2822 167.91C22.4355 168.177 22.6689 168.393 22.9822 168.56C23.3022 168.727 23.7189 168.81 24.2322 168.81ZM32.1422 170V159.2H33.7322V161.81L33.4722 161.47C33.5989 161.137 33.7622 160.83 33.9622 160.55C34.1689 160.27 34.3989 160.04 34.6522 159.86C34.9322 159.633 35.2489 159.46 35.6022 159.34C35.9555 159.22 36.3155 159.15 36.6822 159.13C37.0489 159.103 37.3922 159.127 37.7122 159.2V160.87C37.3389 160.77 36.9289 160.743 36.4822 160.79C36.0355 160.837 35.6222 161 35.2422 161.28C34.8955 161.527 34.6255 161.827 34.4322 162.18C34.2455 162.533 34.1155 162.917 34.0422 163.33C33.9689 163.737 33.9322 164.153 33.9322 164.58V170H32.1422ZM44.5631 170.3C43.5498 170.3 42.6965 170.05 42.0031 169.55C41.3098 169.043 40.7831 168.36 40.4231 167.5C40.0698 166.633 39.8931 165.663 39.8931 164.59C39.8931 163.503 40.0698 162.53 40.4231 161.67C40.7831 160.81 41.3098 160.133 42.0031 159.64C42.7031 159.147 43.5598 158.9 44.5731 158.9C45.5731 158.9 46.4331 159.15 47.1531 159.65C47.8798 160.143 48.4365 160.82 48.8231 161.68C49.2098 162.54 49.4031 163.51 49.4031 164.59C49.4031 165.67 49.2098 166.64 48.8231 167.5C48.4365 168.36 47.8798 169.043 47.1531 169.55C46.4331 170.05 45.5698 170.3 44.5631 170.3ZM39.5931 170V155.6H41.3831V162.05H41.1831V170H39.5931ZM44.3431 168.67C45.0565 168.67 45.6465 168.49 46.1131 168.13C46.5798 167.77 46.9298 167.283 47.1631 166.67C47.3965 166.05 47.5131 165.357 47.5131 164.59C47.5131 163.83 47.3965 163.143 47.1631 162.53C46.9365 161.917 46.5831 161.43 46.1031 161.07C45.6298 160.71 45.0265 160.53 44.2931 160.53C43.5931 160.53 43.0131 160.703 42.5531 161.05C42.0931 161.39 41.7498 161.867 41.5231 162.48C41.2965 163.087 41.1831 163.79 41.1831 164.59C41.1831 165.377 41.2931 166.08 41.5131 166.7C41.7398 167.313 42.0865 167.797 42.5531 168.15C43.0198 168.497 43.6165 168.67 44.3431 168.67ZM56.1953 170.3C55.122 170.3 54.1953 170.057 53.4153 169.57C52.642 169.083 52.0453 168.41 51.6253 167.55C51.2053 166.69 50.9953 165.703 50.9953 164.59C50.9953 163.457 51.2086 162.463 51.6353 161.61C52.062 160.757 52.6653 160.093 53.4453 159.62C54.2253 159.14 55.142 158.9 56.1953 158.9C57.2753 158.9 58.2053 159.143 58.9853 159.63C59.7653 160.11 60.362 160.78 60.7753 161.64C61.1953 162.493 61.4053 163.477 61.4053 164.59C61.4053 165.717 61.1953 166.71 60.7753 167.57C60.3553 168.423 59.7553 169.093 58.9753 169.58C58.1953 170.06 57.2686 170.3 56.1953 170.3ZM56.1953 168.61C57.3153 168.61 58.1486 168.237 58.6953 167.49C59.242 166.743 59.5153 165.777 59.5153 164.59C59.5153 163.37 59.2386 162.4 58.6853 161.68C58.132 160.953 57.302 160.59 56.1953 160.59C55.442 160.59 54.822 160.76 54.3353 161.1C53.8486 161.44 53.4853 161.91 53.2453 162.51C53.0053 163.11 52.8853 163.803 52.8853 164.59C52.8853 165.803 53.1653 166.777 53.7253 167.51C54.2853 168.243 55.1086 168.61 56.1953 168.61ZM71.297 170V164.59C71.297 164.077 71.2504 163.583 71.157 163.11C71.0704 162.637 70.9137 162.213 70.687 161.84C70.467 161.46 70.167 161.16 69.787 160.94C69.4137 160.72 68.9404 160.61 68.367 160.61C67.9204 160.61 67.5137 160.687 67.147 160.84C66.787 160.987 66.477 161.213 66.217 161.52C65.957 161.827 65.7537 162.213 65.607 162.68C65.467 163.14 65.397 163.683 65.397 164.31L64.227 163.95C64.227 162.903 64.4137 162.007 64.787 161.26C65.167 160.507 65.697 159.93 66.377 159.53C67.0637 159.123 67.8704 158.92 68.797 158.92C69.497 158.92 70.0937 159.03 70.587 159.25C71.0804 159.47 71.4904 159.763 71.817 160.13C72.1437 160.49 72.4004 160.897 72.587 161.35C72.7737 161.797 72.9037 162.253 72.977 162.72C73.057 163.18 73.097 163.617 73.097 164.03V170H71.297ZM63.597 170V159.2H65.197V162.09H65.397V170H63.597ZM75.4969 164.43V162.96H81.4969V164.43H75.4969ZM85.1253 170V158.61C85.1253 158.33 85.1386 158.047 85.1653 157.76C85.192 157.467 85.252 157.183 85.3453 156.91C85.4386 156.63 85.592 156.373 85.8053 156.14C86.052 155.867 86.322 155.673 86.6153 155.56C86.9086 155.44 87.2053 155.367 87.5053 155.34C87.812 155.313 88.102 155.3 88.3753 155.3H89.7453V156.78H88.4753C87.9486 156.78 87.5553 156.91 87.2953 157.17C87.0353 157.423 86.9053 157.81 86.9053 158.33V170H85.1253ZM83.2953 160.67V159.2H89.7453V160.67H83.2953ZM91.3414 170V159.2H92.9314V161.81L92.6714 161.47C92.7981 161.137 92.9614 160.83 93.1614 160.55C93.3681 160.27 93.5981 160.04 93.8514 159.86C94.1314 159.633 94.4481 159.46 94.8014 159.34C95.1547 159.22 95.5147 159.15 95.8814 159.13C96.2481 159.103 96.5914 159.127 96.9114 159.2V160.87C96.5381 160.77 96.1281 160.743 95.6814 160.79C95.2347 160.837 94.8214 161 94.4414 161.28C94.0947 161.527 93.8247 161.827 93.6314 162.18C93.4447 162.533 93.3147 162.917 93.2414 163.33C93.1681 163.737 93.1314 164.153 93.1314 164.58V170H91.3414ZM103.287 170.3C102.227 170.3 101.3 170.067 100.507 169.6C99.7204 169.127 99.107 168.47 98.667 167.63C98.227 166.783 98.007 165.797 98.007 164.67C98.007 163.49 98.2237 162.47 98.657 161.61C99.0904 160.743 99.6937 160.077 100.467 159.61C101.247 159.137 102.16 158.9 103.207 158.9C104.294 158.9 105.217 159.15 105.977 159.65C106.744 160.15 107.317 160.863 107.697 161.79C108.084 162.717 108.25 163.82 108.197 165.1H106.397V164.46C106.377 163.133 106.107 162.143 105.587 161.49C105.067 160.83 104.294 160.5 103.267 160.5C102.167 160.5 101.33 160.853 100.757 161.56C100.184 162.267 99.897 163.28 99.897 164.6C99.897 165.873 100.184 166.86 100.757 167.56C101.33 168.26 102.147 168.61 103.207 168.61C103.92 168.61 104.54 168.447 105.067 168.12C105.594 167.793 106.007 167.323 106.307 166.71L108.017 167.3C107.597 168.253 106.964 168.993 106.117 169.52C105.277 170.04 104.334 170.3 103.287 170.3ZM99.297 165.1V163.67H107.277V165.1H99.297ZM115.103 170.3C114.043 170.3 113.117 170.067 112.323 169.6C111.537 169.127 110.923 168.47 110.483 167.63C110.043 166.783 109.823 165.797 109.823 164.67C109.823 163.49 110.04 162.47 110.473 161.61C110.907 160.743 111.51 160.077 112.283 159.61C113.063 159.137 113.977 158.9 115.023 158.9C116.11 158.9 117.033 159.15 117.793 159.65C118.56 160.15 119.133 160.863 119.513 161.79C119.9 162.717 120.067 163.82 120.013 165.1H118.213V164.46C118.193 163.133 117.923 162.143 117.403 161.49C116.883 160.83 116.11 160.5 115.083 160.5C113.983 160.5 113.147 160.853 112.573 161.56C112 162.267 111.713 163.28 111.713 164.6C111.713 165.873 112 166.86 112.573 167.56C113.147 168.26 113.963 168.61 115.023 168.61C115.737 168.61 116.357 168.447 116.883 168.12C117.41 167.793 117.823 167.323 118.123 166.71L119.833 167.3C119.413 168.253 118.78 168.993 117.933 169.52C117.093 170.04 116.15 170.3 115.103 170.3ZM111.113 165.1V163.67H119.093V165.1H111.113ZM139.154 170L139.164 163.09C139.164 162.283 138.947 161.653 138.514 161.2C138.087 160.74 137.53 160.51 136.844 160.51C136.444 160.51 136.064 160.603 135.704 160.79C135.344 160.97 135.05 161.257 134.824 161.65C134.597 162.037 134.484 162.533 134.484 163.14L133.544 162.76C133.53 161.993 133.687 161.323 134.014 160.75C134.347 160.17 134.8 159.72 135.374 159.4C135.947 159.08 136.594 158.92 137.314 158.92C138.44 158.92 139.327 159.263 139.974 159.95C140.62 160.63 140.944 161.547 140.944 162.7L140.934 170H139.154ZM126.234 170V159.2H127.824V162.09H128.024V170H126.234ZM132.704 170L132.714 163.16C132.714 162.333 132.5 161.687 132.074 161.22C131.647 160.747 131.08 160.51 130.374 160.51C129.674 160.51 129.107 160.75 128.674 161.23C128.24 161.71 128.024 162.347 128.024 163.14L127.084 162.58C127.084 161.88 127.25 161.253 127.584 160.7C127.917 160.147 128.37 159.713 128.944 159.4C129.517 159.08 130.167 158.92 130.894 158.92C131.62 158.92 132.254 159.073 132.794 159.38C133.334 159.687 133.75 160.127 134.044 160.7C134.337 161.267 134.484 161.943 134.484 162.73L134.474 170H132.704ZM148.131 170.3C147.071 170.3 146.144 170.067 145.351 169.6C144.564 169.127 143.951 168.47 143.511 167.63C143.071 166.783 142.851 165.797 142.851 164.67C142.851 163.49 143.067 162.47 143.501 161.61C143.934 160.743 144.537 160.077 145.311 159.61C146.091 159.137 147.004 158.9 148.051 158.9C149.137 158.9 150.061 159.15 150.821 159.65C151.587 160.15 152.161 160.863 152.541 161.79C152.927 162.717 153.094 163.82 153.041 165.1H151.241V164.46C151.221 163.133 150.951 162.143 150.431 161.49C149.911 160.83 149.137 160.5 148.111 160.5C147.011 160.5 146.174 160.853 145.601 161.56C145.027 162.267 144.741 163.28 144.741 164.6C144.741 165.873 145.027 166.86 145.601 167.56C146.174 168.26 146.991 168.61 148.051 168.61C148.764 168.61 149.384 168.447 149.911 168.12C150.437 167.793 150.851 167.323 151.151 166.71L152.861 167.3C152.441 168.253 151.807 168.993 150.961 169.52C150.121 170.04 149.177 170.3 148.131 170.3ZM144.141 165.1V163.67H152.121V165.1H144.141ZM159.347 170.29C158.061 170.29 157.004 170.01 156.177 169.45C155.357 168.883 154.854 168.093 154.667 167.08L156.487 166.79C156.634 167.377 156.971 167.843 157.497 168.19C158.024 168.53 158.677 168.7 159.457 168.7C160.197 168.7 160.777 168.547 161.197 168.24C161.617 167.933 161.827 167.517 161.827 166.99C161.827 166.683 161.757 166.437 161.617 166.25C161.477 166.057 161.187 165.877 160.747 165.71C160.314 165.543 159.657 165.343 158.777 165.11C157.824 164.857 157.074 164.593 156.527 164.32C155.981 164.047 155.591 163.73 155.357 163.37C155.124 163.01 155.007 162.573 155.007 162.06C155.007 161.427 155.181 160.873 155.527 160.4C155.874 159.92 156.357 159.55 156.977 159.29C157.604 159.03 158.331 158.9 159.157 158.9C159.977 158.9 160.711 159.03 161.357 159.29C162.004 159.55 162.524 159.92 162.917 160.4C163.317 160.873 163.554 161.427 163.627 162.06L161.807 162.39C161.721 161.81 161.441 161.353 160.967 161.02C160.501 160.687 159.897 160.51 159.157 160.49C158.457 160.463 157.887 160.587 157.447 160.86C157.014 161.133 156.797 161.503 156.797 161.97C156.797 162.23 156.877 162.453 157.037 162.64C157.204 162.827 157.507 163.003 157.947 163.17C158.394 163.337 159.041 163.527 159.887 163.74C160.841 163.98 161.591 164.243 162.137 164.53C162.691 164.81 163.084 165.143 163.317 165.53C163.551 165.91 163.667 166.38 163.667 166.94C163.667 167.98 163.284 168.8 162.517 169.4C161.751 169.993 160.694 170.29 159.347 170.29ZM169.953 170.29C168.666 170.29 167.609 170.01 166.783 169.45C165.963 168.883 165.459 168.093 165.273 167.08L167.093 166.79C167.239 167.377 167.576 167.843 168.103 168.19C168.629 168.53 169.283 168.7 170.063 168.7C170.803 168.7 171.383 168.547 171.803 168.24C172.223 167.933 172.433 167.517 172.433 166.99C172.433 166.683 172.363 166.437 172.223 166.25C172.083 166.057 171.793 165.877 171.353 165.71C170.919 165.543 170.263 165.343 169.383 165.11C168.429 164.857 167.679 164.593 167.133 164.32C166.586 164.047 166.196 163.73 165.963 163.37C165.729 163.01 165.613 162.573 165.613 162.06C165.613 161.427 165.786 160.873 166.133 160.4C166.479 159.92 166.963 159.55 167.583 159.29C168.209 159.03 168.936 158.9 169.763 158.9C170.583 158.9 171.316 159.03 171.963 159.29C172.609 159.55 173.129 159.92 173.523 160.4C173.923 160.873 174.159 161.427 174.233 162.06L172.413 162.39C172.326 161.81 172.046 161.353 171.573 161.02C171.106 160.687 170.503 160.51 169.763 160.49C169.063 160.463 168.493 160.587 168.053 160.86C167.619 161.133 167.403 161.503 167.403 161.97C167.403 162.23 167.483 162.453 167.643 162.64C167.809 162.827 168.113 163.003 168.553 163.17C168.999 163.337 169.646 163.527 170.493 163.74C171.446 163.98 172.196 164.243 172.743 164.53C173.296 164.81 173.689 165.143 173.923 165.53C174.156 165.91 174.273 166.38 174.273 166.94C174.273 167.98 173.889 168.8 173.123 169.4C172.356 169.993 171.299 170.29 169.953 170.29ZM181.158 170.3C180.098 170.3 179.171 170.067 178.378 169.6C177.591 169.127 176.978 168.47 176.538 167.63C176.098 166.783 175.878 165.797 175.878 164.67C175.878 163.49 176.095 162.47 176.528 161.61C176.961 160.743 177.565 160.077 178.338 159.61C179.118 159.137 180.031 158.9 181.078 158.9C182.165 158.9 183.088 159.15 183.848 159.65C184.615 160.15 185.188 160.863 185.568 161.79C185.955 162.717 186.121 163.82 186.068 165.1H184.268V164.46C184.248 163.133 183.978 162.143 183.458 161.49C182.938 160.83 182.165 160.5 181.138 160.5C180.038 160.5 179.201 160.853 178.628 161.56C178.055 162.267 177.768 163.28 177.768 164.6C177.768 165.873 178.055 166.86 178.628 167.56C179.201 168.26 180.018 168.61 181.078 168.61C181.791 168.61 182.411 168.447 182.938 168.12C183.465 167.793 183.878 167.323 184.178 166.71L185.888 167.3C185.468 168.253 184.835 168.993 183.988 169.52C183.148 170.04 182.205 170.3 181.158 170.3ZM177.168 165.1V163.67H185.148V165.1H177.168ZM195.692 170V164.59C195.692 164.077 195.645 163.583 195.552 163.11C195.465 162.637 195.308 162.213 195.082 161.84C194.862 161.46 194.562 161.16 194.182 160.94C193.808 160.72 193.335 160.61 192.762 160.61C192.315 160.61 191.908 160.687 191.542 160.84C191.182 160.987 190.872 161.213 190.612 161.52C190.352 161.827 190.148 162.213 190.002 162.68C189.862 163.14 189.792 163.683 189.792 164.31L188.622 163.95C188.622 162.903 188.808 162.007 189.182 161.26C189.562 160.507 190.092 159.93 190.772 159.53C191.458 159.123 192.265 158.92 193.192 158.92C193.892 158.92 194.488 159.03 194.982 159.25C195.475 159.47 195.885 159.763 196.212 160.13C196.538 160.49 196.795 160.897 196.982 161.35C197.168 161.797 197.298 162.253 197.372 162.72C197.452 163.18 197.492 163.617 197.492 164.03V170H195.692ZM187.992 170V159.2H189.592V162.09H189.792V170H187.992ZM204.461 175.1C203.895 175.1 203.341 175.013 202.801 174.84C202.261 174.667 201.765 174.403 201.311 174.05C200.865 173.703 200.491 173.263 200.191 172.73L201.821 171.87C202.088 172.397 202.465 172.78 202.951 173.02C203.445 173.26 203.951 173.38 204.471 173.38C205.158 173.38 205.728 173.253 206.181 173C206.635 172.753 206.968 172.383 207.181 171.89C207.401 171.397 207.508 170.783 207.501 170.05V167.1H207.711V159.2H209.291V170.07C209.291 170.363 209.281 170.647 209.261 170.92C209.248 171.193 209.215 171.463 209.161 171.73C209.021 172.497 208.745 173.127 208.331 173.62C207.918 174.12 207.385 174.49 206.731 174.73C206.078 174.977 205.321 175.1 204.461 175.1ZM204.331 170.3C203.325 170.3 202.461 170.05 201.741 169.55C201.021 169.043 200.465 168.36 200.071 167.5C199.685 166.64 199.491 165.67 199.491 164.59C199.491 163.51 199.685 162.54 200.071 161.68C200.465 160.82 201.021 160.143 201.741 159.65C202.461 159.15 203.321 158.9 204.321 158.9C205.341 158.9 206.198 159.147 206.891 159.64C207.585 160.133 208.108 160.81 208.461 161.67C208.821 162.53 209.001 163.503 209.001 164.59C209.001 165.663 208.821 166.633 208.461 167.5C208.108 168.36 207.585 169.043 206.891 169.55C206.198 170.05 205.345 170.3 204.331 170.3ZM204.551 168.67C205.278 168.67 205.875 168.497 206.341 168.15C206.808 167.797 207.151 167.313 207.371 166.7C207.598 166.08 207.711 165.377 207.711 164.59C207.711 163.79 207.598 163.087 207.371 162.48C207.151 161.867 206.811 161.39 206.351 161.05C205.891 160.703 205.308 160.53 204.601 160.53C203.868 160.53 203.261 160.71 202.781 161.07C202.308 161.43 201.955 161.917 201.721 162.53C201.495 163.143 201.381 163.83 201.381 164.59C201.381 165.357 201.498 166.05 201.731 166.67C201.965 167.283 202.315 167.77 202.781 168.13C203.255 168.49 203.845 168.67 204.551 168.67ZM216.764 170.3C215.704 170.3 214.777 170.067 213.984 169.6C213.197 169.127 212.584 168.47 212.144 167.63C211.704 166.783 211.484 165.797 211.484 164.67C211.484 163.49 211.7 162.47 212.134 161.61C212.567 160.743 213.17 160.077 213.944 159.61C214.724 159.137 215.637 158.9 216.684 158.9C217.77 158.9 218.694 159.15 219.454 159.65C220.22 160.15 220.794 160.863 221.174 161.79C221.56 162.717 221.727 163.82 221.674 165.1H219.874V164.46C219.854 163.133 219.584 162.143 219.064 161.49C218.544 160.83 217.77 160.5 216.744 160.5C215.644 160.5 214.807 160.853 214.234 161.56C213.66 162.267 213.374 163.28 213.374 164.6C213.374 165.873 213.66 166.86 214.234 167.56C214.807 168.26 215.624 168.61 216.684 168.61C217.397 168.61 218.017 168.447 218.544 168.12C219.07 167.793 219.484 167.323 219.784 166.71L221.494 167.3C221.074 168.253 220.44 168.993 219.594 169.52C218.754 170.04 217.81 170.3 216.764 170.3ZM212.774 165.1V163.67H220.754V165.1H212.774ZM223.9 170V159.2H225.49V161.81L225.23 161.47C225.357 161.137 225.52 160.83 225.72 160.55C225.927 160.27 226.157 160.04 226.41 159.86C226.69 159.633 227.007 159.46 227.36 159.34C227.713 159.22 228.073 159.15 228.44 159.13C228.807 159.103 229.15 159.127 229.47 159.2V160.87C229.097 160.77 228.687 160.743 228.24 160.79C227.793 160.837 227.38 161 227 161.28C226.653 161.527 226.383 161.827 226.19 162.18C226.003 162.533 225.873 162.917 225.8 163.33C225.727 163.737 225.69 164.153 225.69 164.58V170H223.9Z" fill="#3C3F34"/>
<path d="M14.6472 203V191.48H15.8232V203H14.6472ZM24.4616 203V198.592C24.4616 198.112 24.4162 197.672 24.3256 197.272C24.2349 196.867 24.0882 196.515 23.8856 196.216C23.6882 195.912 23.4296 195.677 23.1096 195.512C22.7949 195.347 22.4109 195.264 21.9576 195.264C21.5416 195.264 21.1736 195.336 20.8536 195.48C20.5389 195.624 20.2722 195.832 20.0536 196.104C19.8402 196.371 19.6776 196.696 19.5656 197.08C19.4536 197.464 19.3976 197.901 19.3976 198.392L18.5656 198.208C18.5656 197.323 18.7202 196.579 19.0296 195.976C19.3389 195.373 19.7656 194.917 20.3096 194.608C20.8536 194.299 21.4776 194.144 22.1816 194.144C22.6989 194.144 23.1496 194.224 23.5336 194.384C23.9229 194.544 24.2509 194.76 24.5176 195.032C24.7896 195.304 25.0082 195.616 25.1736 195.968C25.3389 196.315 25.4589 196.685 25.5336 197.08C25.6082 197.469 25.6456 197.859 25.6456 198.248V203H24.4616ZM18.2136 203V194.36H19.2776V196.488H19.3976V203H18.2136ZM30.9456 203.232C29.9322 203.232 29.0976 203.013 28.4416 202.576C27.7909 202.139 27.3909 201.531 27.2416 200.752L28.4416 200.552C28.5696 201.043 28.8602 201.435 29.3136 201.728C29.7722 202.016 30.3376 202.16 31.0096 202.16C31.6656 202.16 32.1829 202.024 32.5616 201.752C32.9402 201.475 33.1296 201.099 33.1296 200.624C33.1296 200.357 33.0682 200.141 32.9456 199.976C32.8282 199.805 32.5856 199.648 32.2176 199.504C31.8496 199.36 31.3002 199.189 30.5696 198.992C29.7856 198.779 29.1722 198.565 28.7296 198.352C28.2869 198.139 27.9722 197.893 27.7856 197.616C27.5989 197.333 27.5056 196.989 27.5056 196.584C27.5056 196.093 27.6442 195.664 27.9216 195.296C28.1989 194.923 28.5829 194.635 29.0736 194.432C29.5642 194.224 30.1349 194.12 30.7856 194.12C31.4362 194.12 32.0176 194.227 32.5296 194.44C33.0469 194.648 33.4629 194.941 33.7776 195.32C34.0922 195.699 34.2789 196.139 34.3376 196.64L33.1376 196.856C33.0576 196.349 32.8042 195.949 32.3776 195.656C31.9562 195.357 31.4202 195.203 30.7696 195.192C30.1562 195.176 29.6576 195.293 29.2736 195.544C28.8896 195.789 28.6976 196.117 28.6976 196.528C28.6976 196.757 28.7669 196.955 28.9056 197.12C29.0442 197.28 29.2949 197.432 29.6576 197.576C30.0256 197.72 30.5482 197.877 31.2256 198.048C32.0202 198.251 32.6442 198.464 33.0976 198.688C33.5509 198.912 33.8736 199.176 34.0656 199.48C34.2576 199.784 34.3536 200.16 34.3536 200.608C34.3536 201.424 34.0496 202.067 33.4416 202.536C32.8389 203 32.0069 203.232 30.9456 203.232ZM40.8318 203C40.3465 203.101 39.8665 203.141 39.3918 203.12C38.9225 203.099 38.5011 202.997 38.1278 202.816C37.7598 202.635 37.4798 202.352 37.2878 201.968C37.1331 201.648 37.0478 201.325 37.0318 201C37.0211 200.669 37.0158 200.293 37.0158 199.872V191.96H38.1838V199.824C38.1838 200.187 38.1865 200.491 38.1918 200.736C38.2025 200.976 38.2585 201.189 38.3598 201.376C38.5518 201.733 38.8558 201.947 39.2718 202.016C39.6931 202.085 40.2131 202.069 40.8318 201.968V203ZM35.1678 195.368V194.36H40.8318V195.368H35.1678ZM45.0061 203.24C44.3554 203.24 43.8087 203.123 43.3661 202.888C42.9287 202.653 42.6007 202.341 42.3821 201.952C42.1634 201.563 42.0541 201.139 42.0541 200.68C42.0541 200.211 42.1474 199.811 42.3341 199.48C42.5261 199.144 42.7847 198.869 43.1101 198.656C43.4407 198.443 43.8221 198.28 44.2541 198.168C44.6914 198.061 45.1741 197.968 45.7021 197.888C46.2354 197.803 46.7554 197.731 47.2621 197.672C47.7741 197.608 48.2221 197.547 48.6061 197.488L48.1901 197.744C48.2061 196.891 48.0407 196.259 47.6941 195.848C47.3474 195.437 46.7447 195.232 45.8861 195.232C45.2941 195.232 44.7927 195.365 44.3821 195.632C43.9767 195.899 43.6914 196.32 43.5261 196.896L42.3821 196.56C42.5794 195.787 42.9767 195.187 43.5741 194.76C44.1714 194.333 44.9474 194.12 45.9021 194.12C46.6914 194.12 47.3607 194.269 47.9101 194.568C48.4647 194.861 48.8567 195.288 49.0861 195.848C49.1927 196.099 49.2621 196.379 49.2941 196.688C49.3261 196.997 49.3421 197.312 49.3421 197.632V203H48.2941V200.832L48.5981 200.96C48.3047 201.701 47.8487 202.267 47.2301 202.656C46.6114 203.045 45.8701 203.24 45.0061 203.24ZM45.1421 202.224C45.6914 202.224 46.1714 202.125 46.5821 201.928C46.9927 201.731 47.3234 201.461 47.5741 201.12C47.8247 200.773 47.9874 200.384 48.0621 199.952C48.1261 199.675 48.1607 199.371 48.1661 199.04C48.1714 198.704 48.1741 198.453 48.1741 198.288L48.6221 198.52C48.2221 198.573 47.7874 198.627 47.3181 198.68C46.8541 198.733 46.3954 198.795 45.9421 198.864C45.4941 198.933 45.0887 199.016 44.7261 199.112C44.4807 199.181 44.2434 199.28 44.0141 199.408C43.7847 199.531 43.5954 199.696 43.4461 199.904C43.3021 200.112 43.2301 200.371 43.2301 200.68C43.2301 200.931 43.2914 201.173 43.4141 201.408C43.5421 201.643 43.7447 201.837 44.0221 201.992C44.3047 202.147 44.6781 202.224 45.1421 202.224ZM57.6647 203V198.592C57.6647 198.112 57.6194 197.672 57.5287 197.272C57.438 196.867 57.2914 196.515 57.0887 196.216C56.8914 195.912 56.6327 195.677 56.3127 195.512C55.998 195.347 55.614 195.264 55.1607 195.264C54.7447 195.264 54.3767 195.336 54.0567 195.48C53.742 195.624 53.4754 195.832 53.2567 196.104C53.0434 196.371 52.8807 196.696 52.7687 197.08C52.6567 197.464 52.6007 197.901 52.6007 198.392L51.7687 198.208C51.7687 197.323 51.9234 196.579 52.2327 195.976C52.542 195.373 52.9687 194.917 53.5127 194.608C54.0567 194.299 54.6807 194.144 55.3847 194.144C55.902 194.144 56.3527 194.224 56.7367 194.384C57.126 194.544 57.454 194.76 57.7207 195.032C57.9927 195.304 58.2114 195.616 58.3767 195.968C58.542 196.315 58.662 196.685 58.7367 197.08C58.8114 197.469 58.8487 197.859 58.8487 198.248V203H57.6647ZM51.4167 203V194.36H52.4807V196.488H52.6007V203H51.4167ZM65.6287 203C65.1434 203.101 64.6634 203.141 64.1887 203.12C63.7194 203.099 63.298 202.997 62.9247 202.816C62.5567 202.635 62.2767 202.352 62.0847 201.968C61.93 201.648 61.8447 201.325 61.8287 201C61.818 200.669 61.8127 200.293 61.8127 199.872V191.96H62.9807V199.824C62.9807 200.187 62.9834 200.491 62.9887 200.736C62.9994 200.976 63.0554 201.189 63.1567 201.376C63.3487 201.733 63.6527 201.947 64.0687 202.016C64.49 202.085 65.01 202.069 65.6287 201.968V203ZM59.9647 195.368V194.36H65.6287V195.368H59.9647ZM80.8381 203L80.8461 197.328C80.8461 196.661 80.6594 196.139 80.2861 195.76C79.9181 195.376 79.4487 195.184 78.8781 195.184C78.5527 195.184 78.2354 195.259 77.9261 195.408C77.6167 195.557 77.3607 195.797 77.1581 196.128C76.9607 196.459 76.8621 196.891 76.8621 197.424L76.1661 197.224C76.1501 196.605 76.2701 196.064 76.5261 195.6C76.7874 195.136 77.1447 194.776 77.5981 194.52C78.0567 194.259 78.5741 194.128 79.1501 194.128C80.0194 194.128 80.7154 194.397 81.2381 194.936C81.7607 195.469 82.0221 196.192 82.0221 197.104L82.0141 203H80.8381ZM70.5261 203V194.36H71.5821V196.488H71.7101V203H70.5261ZM75.6941 203L75.7021 197.408C75.7021 196.72 75.5181 196.179 75.1501 195.784C74.7874 195.384 74.3074 195.184 73.7101 195.184C73.1127 195.184 72.6301 195.389 72.2621 195.8C71.8941 196.205 71.7101 196.747 71.7101 197.424L71.0061 197.04C71.0061 196.485 71.1367 195.989 71.3981 195.552C71.6594 195.109 72.0167 194.763 72.4701 194.512C72.9234 194.256 73.4381 194.128 74.0141 194.128C74.5634 194.128 75.0514 194.245 75.4781 194.48C75.9101 194.715 76.2487 195.056 76.4941 195.504C76.7394 195.952 76.8621 196.496 76.8621 197.136L76.8541 203H75.6941ZM87.7057 203.24C86.863 203.24 86.1324 203.053 85.5137 202.68C84.9004 202.307 84.423 201.781 84.0817 201.104C83.7404 200.427 83.5697 199.632 83.5697 198.72C83.5697 197.776 83.7377 196.96 84.0737 196.272C84.4097 195.584 84.8817 195.053 85.4897 194.68C86.103 194.307 86.8257 194.12 87.6577 194.12C88.511 194.12 89.239 194.317 89.8417 194.712C90.4444 195.101 90.9004 195.661 91.2097 196.392C91.519 197.123 91.6604 197.995 91.6337 199.008H90.4337V198.592C90.4124 197.472 90.1697 196.627 89.7057 196.056C89.247 195.485 88.575 195.2 87.6897 195.2C86.7617 195.2 86.0497 195.501 85.5537 196.104C85.063 196.707 84.8177 197.565 84.8177 198.68C84.8177 199.768 85.063 200.613 85.5537 201.216C86.0497 201.813 86.751 202.112 87.6577 202.112C88.2764 202.112 88.815 201.971 89.2737 201.688C89.7377 201.4 90.103 200.987 90.3697 200.448L91.4657 200.872C91.1244 201.624 90.6204 202.208 89.9537 202.624C89.2924 203.035 88.543 203.24 87.7057 203.24ZM84.4017 199.008V198.024H91.0017V199.008H84.4017ZM96.6331 203.232C95.6197 203.232 94.7851 203.013 94.1291 202.576C93.4784 202.139 93.0784 201.531 92.9291 200.752L94.1291 200.552C94.2571 201.043 94.5477 201.435 95.0011 201.728C95.4597 202.016 96.0251 202.16 96.6971 202.16C97.3531 202.16 97.8704 202.024 98.2491 201.752C98.6277 201.475 98.8171 201.099 98.8171 200.624C98.8171 200.357 98.7557 200.141 98.6331 199.976C98.5157 199.805 98.2731 199.648 97.9051 199.504C97.5371 199.36 96.9877 199.189 96.2571 198.992C95.4731 198.779 94.8597 198.565 94.4171 198.352C93.9744 198.139 93.6597 197.893 93.4731 197.616C93.2864 197.333 93.1931 196.989 93.1931 196.584C93.1931 196.093 93.3317 195.664 93.6091 195.296C93.8864 194.923 94.2704 194.635 94.7611 194.432C95.2517 194.224 95.8224 194.12 96.4731 194.12C97.1237 194.12 97.7051 194.227 98.2171 194.44C98.7344 194.648 99.1504 194.941 99.4651 195.32C99.7797 195.699 99.9664 196.139 100.025 196.64L98.8251 196.856C98.7451 196.349 98.4917 195.949 98.0651 195.656C97.6437 195.357 97.1077 195.203 96.4571 195.192C95.8437 195.176 95.3451 195.293 94.9611 195.544C94.5771 195.789 94.3851 196.117 94.3851 196.528C94.3851 196.757 94.4544 196.955 94.5931 197.12C94.7317 197.28 94.9824 197.432 95.3451 197.576C95.7131 197.72 96.2357 197.877 96.9131 198.048C97.7077 198.251 98.3317 198.464 98.7851 198.688C99.2384 198.912 99.5611 199.176 99.7531 199.48C99.9451 199.784 100.041 200.16 100.041 200.608C100.041 201.424 99.7371 202.067 99.1291 202.536C98.5264 203 97.6944 203.232 96.6331 203.232ZM105.039 203.232C104.026 203.232 103.191 203.013 102.535 202.576C101.885 202.139 101.485 201.531 101.335 200.752L102.535 200.552C102.663 201.043 102.954 201.435 103.407 201.728C103.866 202.016 104.431 202.16 105.103 202.16C105.759 202.16 106.277 202.024 106.655 201.752C107.034 201.475 107.223 201.099 107.223 200.624C107.223 200.357 107.162 200.141 107.039 199.976C106.922 199.805 106.679 199.648 106.311 199.504C105.943 199.36 105.394 199.189 104.663 198.992C103.879 198.779 103.266 198.565 102.823 198.352C102.381 198.139 102.066 197.893 101.879 197.616C101.693 197.333 101.599 196.989 101.599 196.584C101.599 196.093 101.738 195.664 102.015 195.296C102.293 194.923 102.677 194.635 103.167 194.432C103.658 194.224 104.229 194.12 104.879 194.12C105.53 194.12 106.111 194.227 106.623 194.44C107.141 194.648 107.557 194.941 107.871 195.32C108.186 195.699 108.373 196.139 108.431 196.64L107.231 196.856C107.151 196.349 106.898 195.949 106.471 195.656C106.05 195.357 105.514 195.203 104.863 195.192C104.25 195.176 103.751 195.293 103.367 195.544C102.983 195.789 102.791 196.117 102.791 196.528C102.791 196.757 102.861 196.955 102.999 197.12C103.138 197.28 103.389 197.432 103.751 197.576C104.119 197.72 104.642 197.877 105.319 198.048C106.114 198.251 106.738 198.464 107.191 198.688C107.645 198.912 107.967 199.176 108.159 199.48C108.351 199.784 108.447 200.16 108.447 200.608C108.447 201.424 108.143 202.067 107.535 202.536C106.933 203 106.101 203.232 105.039 203.232ZM112.694 203.24C112.043 203.24 111.496 203.123 111.054 202.888C110.616 202.653 110.288 202.341 110.07 201.952C109.851 201.563 109.742 201.139 109.742 200.68C109.742 200.211 109.835 199.811 110.022 199.48C110.214 199.144 110.472 198.869 110.798 198.656C111.128 198.443 111.51 198.28 111.942 198.168C112.379 198.061 112.862 197.968 113.39 197.888C113.923 197.803 114.443 197.731 114.95 197.672C115.462 197.608 115.91 197.547 116.294 197.488L115.878 197.744C115.894 196.891 115.728 196.259 115.382 195.848C115.035 195.437 114.432 195.232 113.574 195.232C112.982 195.232 112.48 195.365 112.07 195.632C111.664 195.899 111.379 196.32 111.214 196.896L110.07 196.56C110.267 195.787 110.664 195.187 111.262 194.76C111.859 194.333 112.635 194.12 113.59 194.12C114.379 194.12 115.048 194.269 115.598 194.568C116.152 194.861 116.544 195.288 116.774 195.848C116.88 196.099 116.95 196.379 116.982 196.688C117.014 196.997 117.03 197.312 117.03 197.632V203H115.982V200.832L116.286 200.96C115.992 201.701 115.536 202.267 114.918 202.656C114.299 203.045 113.558 203.24 112.694 203.24ZM112.83 202.224C113.379 202.224 113.859 202.125 114.27 201.928C114.68 201.731 115.011 201.461 115.262 201.12C115.512 200.773 115.675 200.384 115.75 199.952C115.814 199.675 115.848 199.371 115.854 199.04C115.859 198.704 115.862 198.453 115.862 198.288L116.31 198.52C115.91 198.573 115.475 198.627 115.006 198.68C114.542 198.733 114.083 198.795 113.63 198.864C113.182 198.933 112.776 199.016 112.414 199.112C112.168 199.181 111.931 199.28 111.702 199.408C111.472 199.531 111.283 199.696 111.134 199.904C110.99 200.112 110.918 200.371 110.918 200.68C110.918 200.931 110.979 201.173 111.102 201.408C111.23 201.643 111.432 201.837 111.71 201.992C111.992 202.147 112.366 202.224 112.83 202.224ZM122.544 207.08C122.102 207.08 121.664 207.013 121.232 206.88C120.806 206.752 120.411 206.547 120.048 206.264C119.686 205.987 119.382 205.624 119.136 205.176L120.2 204.584C120.44 205.064 120.776 205.408 121.208 205.616C121.646 205.829 122.091 205.936 122.544 205.936C123.168 205.936 123.672 205.819 124.056 205.584C124.446 205.355 124.728 205.013 124.904 204.56C125.08 204.107 125.166 203.541 125.16 202.864V200.56H125.296V194.36H126.344V202.88C126.344 203.125 126.336 203.36 126.32 203.584C126.31 203.813 126.286 204.037 126.248 204.256C126.147 204.901 125.936 205.432 125.616 205.848C125.302 206.264 124.886 206.573 124.368 206.776C123.856 206.979 123.248 207.08 122.544 207.08ZM122.464 203.24C121.659 203.24 120.971 203.04 120.4 202.64C119.83 202.235 119.392 201.688 119.088 201C118.784 200.312 118.632 199.536 118.632 198.672C118.632 197.813 118.782 197.04 119.08 196.352C119.384 195.664 119.819 195.12 120.384 194.72C120.95 194.32 121.627 194.12 122.416 194.12C123.227 194.12 123.91 194.317 124.464 194.712C125.019 195.107 125.438 195.648 125.72 196.336C126.008 197.019 126.152 197.797 126.152 198.672C126.152 199.531 126.011 200.307 125.728 201C125.446 201.688 125.03 202.235 124.48 202.64C123.931 203.04 123.259 203.24 122.464 203.24ZM122.584 202.144C123.198 202.144 123.704 201.995 124.104 201.696C124.504 201.397 124.803 200.987 125 200.464C125.198 199.936 125.296 199.339 125.296 198.672C125.296 197.995 125.198 197.397 125 196.88C124.803 196.357 124.504 195.949 124.104 195.656C123.71 195.363 123.211 195.216 122.608 195.216C121.99 195.216 121.478 195.368 121.072 195.672C120.667 195.976 120.366 196.389 120.168 196.912C119.976 197.435 119.88 198.021 119.88 198.672C119.88 199.328 119.979 199.92 120.176 200.448C120.379 200.971 120.68 201.384 121.08 201.688C121.48 201.992 121.982 202.144 122.584 202.144ZM132.237 203.24C131.394 203.24 130.664 203.053 130.045 202.68C129.432 202.307 128.954 201.781 128.613 201.104C128.272 200.427 128.101 199.632 128.101 198.72C128.101 197.776 128.269 196.96 128.605 196.272C128.941 195.584 129.413 195.053 130.021 194.68C130.634 194.307 131.357 194.12 132.189 194.12C133.042 194.12 133.77 194.317 134.373 194.712C134.976 195.101 135.432 195.661 135.741 196.392C136.05 197.123 136.192 197.995 136.165 199.008H134.965V198.592C134.944 197.472 134.701 196.627 134.237 196.056C133.778 195.485 133.106 195.2 132.221 195.2C131.293 195.2 130.581 195.501 130.085 196.104C129.594 196.707 129.349 197.565 129.349 198.68C129.349 199.768 129.594 200.613 130.085 201.216C130.581 201.813 131.282 202.112 132.189 202.112C132.808 202.112 133.346 201.971 133.805 201.688C134.269 201.4 134.634 200.987 134.901 200.448L135.997 200.872C135.656 201.624 135.152 202.208 134.485 202.624C133.824 203.035 133.074 203.24 132.237 203.24ZM128.933 199.008V198.024H135.533V199.008H128.933ZM141.164 203.232C140.151 203.232 139.316 203.013 138.66 202.576C138.01 202.139 137.61 201.531 137.46 200.752L138.66 200.552C138.788 201.043 139.079 201.435 139.532 201.728C139.991 202.016 140.556 202.16 141.228 202.16C141.884 202.16 142.402 202.024 142.78 201.752C143.159 201.475 143.348 201.099 143.348 200.624C143.348 200.357 143.287 200.141 143.164 199.976C143.047 199.805 142.804 199.648 142.436 199.504C142.068 199.36 141.519 199.189 140.788 198.992C140.004 198.779 139.391 198.565 138.948 198.352C138.506 198.139 138.191 197.893 138.004 197.616C137.818 197.333 137.724 196.989 137.724 196.584C137.724 196.093 137.863 195.664 138.14 195.296C138.418 194.923 138.802 194.635 139.292 194.432C139.783 194.224 140.354 194.12 141.004 194.12C141.655 194.12 142.236 194.227 142.748 194.44C143.266 194.648 143.682 194.941 143.996 195.32C144.311 195.699 144.498 196.139 144.556 196.64L143.356 196.856C143.276 196.349 143.023 195.949 142.596 195.656C142.175 195.357 141.639 195.203 140.988 195.192C140.375 195.176 139.876 195.293 139.492 195.544C139.108 195.789 138.916 196.117 138.916 196.528C138.916 196.757 138.986 196.955 139.124 197.12C139.263 197.28 139.514 197.432 139.876 197.576C140.244 197.72 140.767 197.877 141.444 198.048C142.239 198.251 142.863 198.464 143.316 198.688C143.77 198.912 144.092 199.176 144.284 199.48C144.476 199.784 144.572 200.16 144.572 200.608C144.572 201.424 144.268 202.067 143.66 202.536C143.058 203 142.226 203.232 141.164 203.232ZM146.187 204.672L146.259 204.088C146.472 204.104 146.627 204.061 146.723 203.96C146.819 203.859 146.877 203.723 146.899 203.552C146.92 203.381 146.925 203.197 146.915 203H146.187V201.312H147.555V203.32C147.555 203.811 147.429 204.179 147.179 204.424C146.933 204.669 146.603 204.752 146.187 204.672ZM157.384 203.24C156.514 203.24 155.778 203.045 155.176 202.656C154.573 202.267 154.114 201.731 153.8 201.048C153.49 200.36 153.33 199.571 153.32 198.68C153.33 197.773 153.496 196.979 153.816 196.296C154.136 195.608 154.597 195.075 155.2 194.696C155.802 194.312 156.533 194.12 157.392 194.12C158.266 194.12 159.026 194.333 159.672 194.76C160.322 195.187 160.768 195.771 161.008 196.512L159.856 196.88C159.653 196.363 159.33 195.963 158.888 195.68C158.45 195.392 157.949 195.248 157.384 195.248C156.749 195.248 156.224 195.395 155.808 195.688C155.392 195.976 155.082 196.379 154.88 196.896C154.677 197.413 154.573 198.008 154.568 198.68C154.578 199.715 154.818 200.547 155.288 201.176C155.757 201.8 156.456 202.112 157.384 202.112C157.97 202.112 158.469 201.979 158.88 201.712C159.296 201.44 159.61 201.045 159.824 200.528L161.008 200.88C160.688 201.648 160.218 202.235 159.6 202.64C158.981 203.04 158.242 203.24 157.384 203.24ZM168.899 203V198.592C168.899 198.112 168.854 197.672 168.763 197.272C168.672 196.867 168.526 196.515 168.323 196.216C168.126 195.912 167.867 195.677 167.547 195.512C167.232 195.347 166.848 195.264 166.395 195.264C165.979 195.264 165.611 195.336 165.291 195.48C164.976 195.624 164.71 195.832 164.491 196.104C164.278 196.371 164.115 196.696 164.003 197.08C163.891 197.464 163.835 197.901 163.835 198.392L163.003 198.208C163.003 197.323 163.158 196.579 163.467 195.976C163.776 195.373 164.203 194.917 164.747 194.608C165.291 194.299 165.915 194.144 166.619 194.144C167.136 194.144 167.587 194.224 167.971 194.384C168.36 194.544 168.688 194.76 168.955 195.032C169.227 195.304 169.446 195.616 169.611 195.968C169.776 196.315 169.896 196.685 169.971 197.08C170.046 197.469 170.083 197.859 170.083 198.248V203H168.899ZM162.651 203V191.48H163.715V197.984H163.835V203H162.651ZM174.631 203.24C173.98 203.24 173.434 203.123 172.991 202.888C172.554 202.653 172.226 202.341 172.007 201.952C171.788 201.563 171.679 201.139 171.679 200.68C171.679 200.211 171.772 199.811 171.959 199.48C172.151 199.144 172.41 198.869 172.735 198.656C173.066 198.443 173.447 198.28 173.879 198.168C174.316 198.061 174.799 197.968 175.327 197.888C175.86 197.803 176.38 197.731 176.887 197.672C177.399 197.608 177.847 197.547 178.231 197.488L177.815 197.744C177.831 196.891 177.666 196.259 177.319 195.848C176.972 195.437 176.37 195.232 175.511 195.232C174.919 195.232 174.418 195.365 174.007 195.632C173.602 195.899 173.316 196.32 173.151 196.896L172.007 196.56C172.204 195.787 172.602 195.187 173.199 194.76C173.796 194.333 174.572 194.12 175.527 194.12C176.316 194.12 176.986 194.269 177.535 194.568C178.09 194.861 178.482 195.288 178.711 195.848C178.818 196.099 178.887 196.379 178.919 196.688C178.951 196.997 178.967 197.312 178.967 197.632V203H177.919V200.832L178.223 200.96C177.93 201.701 177.474 202.267 176.855 202.656C176.236 203.045 175.495 203.24 174.631 203.24ZM174.767 202.224C175.316 202.224 175.796 202.125 176.207 201.928C176.618 201.731 176.948 201.461 177.199 201.12C177.45 200.773 177.612 200.384 177.687 199.952C177.751 199.675 177.786 199.371 177.791 199.04C177.796 198.704 177.799 198.453 177.799 198.288L178.247 198.52C177.847 198.573 177.412 198.627 176.943 198.68C176.479 198.733 176.02 198.795 175.567 198.864C175.119 198.933 174.714 199.016 174.351 199.112C174.106 199.181 173.868 199.28 173.639 199.408C173.41 199.531 173.22 199.696 173.071 199.904C172.927 200.112 172.855 200.371 172.855 200.68C172.855 200.931 172.916 201.173 173.039 201.408C173.167 201.643 173.37 201.837 173.647 201.992C173.93 202.147 174.303 202.224 174.767 202.224ZM187.29 203V198.592C187.29 198.112 187.244 197.672 187.154 197.272C187.063 196.867 186.916 196.515 186.714 196.216C186.516 195.912 186.258 195.677 185.938 195.512C185.623 195.347 185.239 195.264 184.786 195.264C184.37 195.264 184.002 195.336 183.682 195.48C183.367 195.624 183.1 195.832 182.882 196.104C182.668 196.371 182.506 196.696 182.394 197.08C182.282 197.464 182.226 197.901 182.226 198.392L181.394 198.208C181.394 197.323 181.548 196.579 181.858 195.976C182.167 195.373 182.594 194.917 183.138 194.608C183.682 194.299 184.306 194.144 185.01 194.144C185.527 194.144 185.978 194.224 186.362 194.384C186.751 194.544 187.079 194.76 187.346 195.032C187.618 195.304 187.836 195.616 188.002 195.968C188.167 196.315 188.287 196.685 188.362 197.08C188.436 197.469 188.474 197.859 188.474 198.248V203H187.29ZM181.042 203V194.36H182.106V196.488H182.226V203H181.042ZM196.79 203V198.592C196.79 198.112 196.744 197.672 196.654 197.272C196.563 196.867 196.416 196.515 196.214 196.216C196.016 195.912 195.758 195.677 195.438 195.512C195.123 195.347 194.739 195.264 194.286 195.264C193.87 195.264 193.502 195.336 193.182 195.48C192.867 195.624 192.6 195.832 192.382 196.104C192.168 196.371 192.006 196.696 191.894 197.08C191.782 197.464 191.726 197.901 191.726 198.392L190.894 198.208C190.894 197.323 191.048 196.579 191.358 195.976C191.667 195.373 192.094 194.917 192.638 194.608C193.182 194.299 193.806 194.144 194.51 194.144C195.027 194.144 195.478 194.224 195.862 194.384C196.251 194.544 196.579 194.76 196.846 195.032C197.118 195.304 197.336 195.616 197.502 195.968C197.667 196.315 197.787 196.685 197.862 197.08C197.936 197.469 197.974 197.859 197.974 198.248V203H196.79ZM190.542 203V194.36H191.606V196.488H191.726V203H190.542ZM203.659 203.24C202.816 203.24 202.085 203.053 201.467 202.68C200.853 202.307 200.376 201.781 200.035 201.104C199.693 200.427 199.523 199.632 199.523 198.72C199.523 197.776 199.691 196.96 200.027 196.272C200.363 195.584 200.835 195.053 201.443 194.68C202.056 194.307 202.779 194.12 203.611 194.12C204.464 194.12 205.192 194.317 205.795 194.712C206.397 195.101 206.853 195.661 207.163 196.392C207.472 197.123 207.613 197.995 207.587 199.008H206.387V198.592C206.365 197.472 206.123 196.627 205.659 196.056C205.2 195.485 204.528 195.2 203.643 195.2C202.715 195.2 202.003 195.501 201.507 196.104C201.016 196.707 200.771 197.565 200.771 198.68C200.771 199.768 201.016 200.613 201.507 201.216C202.003 201.813 202.704 202.112 203.611 202.112C204.229 202.112 204.768 201.971 205.227 201.688C205.691 201.4 206.056 200.987 206.323 200.448L207.419 200.872C207.077 201.624 206.573 202.208 205.907 202.624C205.245 203.035 204.496 203.24 203.659 203.24ZM200.355 199.008V198.024H206.955V199.008H200.355ZM209.522 203V191.24H210.698V203H209.522ZM216.321 203.232C215.307 203.232 214.473 203.013 213.817 202.576C213.166 202.139 212.766 201.531 212.617 200.752L213.817 200.552C213.945 201.043 214.235 201.435 214.689 201.728C215.147 202.016 215.713 202.16 216.385 202.16C217.041 202.16 217.558 202.024 217.937 201.752C218.315 201.475 218.505 201.099 218.505 200.624C218.505 200.357 218.443 200.141 218.321 199.976C218.203 199.805 217.961 199.648 217.593 199.504C217.225 199.36 216.675 199.189 215.945 198.992C215.161 198.779 214.547 198.565 214.105 198.352C213.662 198.139 213.347 197.893 213.161 197.616C212.974 197.333 212.881 196.989 212.881 196.584C212.881 196.093 213.019 195.664 213.297 195.296C213.574 194.923 213.958 194.635 214.449 194.432C214.939 194.224 215.51 194.12 216.161 194.12C216.811 194.12 217.393 194.227 217.905 194.44C218.422 194.648 218.838 194.941 219.153 195.32C219.467 195.699 219.654 196.139 219.713 196.64L218.513 196.856C218.433 196.349 218.179 195.949 217.753 195.656C217.331 195.357 216.795 195.203 216.145 195.192C215.531 195.176 215.033 195.293 214.649 195.544C214.265 195.789 214.073 196.117 214.073 196.528C214.073 196.757 214.142 196.955 214.281 197.12C214.419 197.28 214.67 197.432 215.033 197.576C215.401 197.72 215.923 197.877 216.601 198.048C217.395 198.251 218.019 198.464 218.473 198.688C218.926 198.912 219.249 199.176 219.441 199.48C219.633 199.784 219.729 200.16 219.729 200.608C219.729 201.424 219.425 202.067 218.817 202.536C218.214 203 217.382 203.232 216.321 203.232ZM221.343 204.672L221.415 204.088C221.628 204.104 221.783 204.061 221.879 203.96C221.975 203.859 222.033 203.723 222.055 203.552C222.076 203.381 222.081 203.197 222.071 203H221.343V201.312H222.711V203.32C222.711 203.811 222.585 204.179 222.335 204.424C222.089 204.669 221.759 204.752 221.343 204.672ZM62.6858 225.24C62.0351 225.24 61.4884 225.123 61.0458 224.888C60.6084 224.653 60.2804 224.341 60.0618 223.952C59.8431 223.563 59.7338 223.139 59.7338 222.68C59.7338 222.211 59.8271 221.811 60.0138 221.48C60.2058 221.144 60.4644 220.869 60.7898 220.656C61.1204 220.443 61.5018 220.28 61.9338 220.168C62.3711 220.061 62.8538 219.968 63.3818 219.888C63.9151 219.803 64.4351 219.731 64.9418 219.672C65.4538 219.608 65.9018 219.547 66.2858 219.488L65.8698 219.744C65.8858 218.891 65.7204 218.259 65.3738 217.848C65.0271 217.437 64.4244 217.232 63.5658 217.232C62.9738 217.232 62.4724 217.365 62.0618 217.632C61.6564 217.899 61.3711 218.32 61.2057 218.896L60.0618 218.56C60.2591 217.787 60.6564 217.187 61.2538 216.76C61.8511 216.333 62.6271 216.12 63.5818 216.12C64.3711 216.12 65.0404 216.269 65.5898 216.568C66.1444 216.861 66.5364 217.288 66.7658 217.848C66.8724 218.099 66.9418 218.379 66.9738 218.688C67.0058 218.997 67.0218 219.312 67.0218 219.632V225H65.9738V222.832L66.2778 222.96C65.9844 223.701 65.5284 224.267 64.9098 224.656C64.2911 225.045 63.5498 225.24 62.6858 225.24ZM62.8218 224.224C63.3711 224.224 63.8511 224.125 64.2618 223.928C64.6724 223.731 65.0031 223.461 65.2538 223.12C65.5044 222.773 65.6671 222.384 65.7418 221.952C65.8058 221.675 65.8404 221.371 65.8458 221.04C65.8511 220.704 65.8538 220.453 65.8538 220.288L66.3018 220.52C65.9018 220.573 65.4671 220.627 64.9978 220.68C64.5338 220.733 64.0751 220.795 63.6218 220.864C63.1738 220.933 62.7684 221.016 62.4058 221.112C62.1604 221.181 61.9231 221.28 61.6938 221.408C61.4644 221.531 61.2751 221.696 61.1258 221.904C60.9818 222.112 60.9098 222.371 60.9098 222.68C60.9098 222.931 60.9711 223.173 61.0938 223.408C61.2218 223.643 61.4244 223.837 61.7018 223.992C61.9844 224.147 62.3578 224.224 62.8218 224.224ZM75.3444 225V220.592C75.3444 220.112 75.299 219.672 75.2084 219.272C75.1177 218.867 74.971 218.515 74.7684 218.216C74.571 217.912 74.3124 217.677 73.9924 217.512C73.6777 217.347 73.2937 217.264 72.8404 217.264C72.4244 217.264 72.0564 217.336 71.7364 217.48C71.4217 217.624 71.155 217.832 70.9364 218.104C70.723 218.371 70.5604 218.696 70.4484 219.08C70.3364 219.464 70.2804 219.901 70.2804 220.392L69.4484 220.208C69.4484 219.323 69.603 218.579 69.9124 217.976C70.2217 217.373 70.6484 216.917 71.1924 216.608C71.7364 216.299 72.3604 216.144 73.0644 216.144C73.5817 216.144 74.0324 216.224 74.4164 216.384C74.8057 216.544 75.1337 216.76 75.4004 217.032C75.6724 217.304 75.891 217.616 76.0564 217.968C76.2217 218.315 76.3417 218.685 76.4164 219.08C76.491 219.469 76.5284 219.859 76.5284 220.248V225H75.3444ZM69.0964 225V216.36H70.1604V218.488H70.2804V225H69.0964ZM81.9095 225.24C81.1042 225.24 80.4162 225.04 79.8455 224.64C79.2748 224.235 78.8375 223.688 78.5335 223C78.2295 222.312 78.0775 221.536 78.0775 220.672C78.0775 219.813 78.2268 219.04 78.5255 218.352C78.8295 217.664 79.2642 217.12 79.8295 216.72C80.3948 216.32 81.0722 216.12 81.8615 216.12C82.6722 216.12 83.3548 216.317 83.9095 216.712C84.4642 217.107 84.8828 217.648 85.1655 218.336C85.4535 219.019 85.5975 219.797 85.5975 220.672C85.5975 221.531 85.4562 222.307 85.1735 223C84.8908 223.688 84.4748 224.235 83.9255 224.64C83.3762 225.04 82.7042 225.24 81.9095 225.24ZM82.0295 224.144C82.6428 224.144 83.1495 223.995 83.5495 223.696C83.9495 223.397 84.2482 222.987 84.4455 222.464C84.6428 221.936 84.7415 221.339 84.7415 220.672C84.7415 219.995 84.6428 219.397 84.4455 218.88C84.2482 218.357 83.9495 217.949 83.5495 217.656C83.1548 217.363 82.6562 217.216 82.0535 217.216C81.4348 217.216 80.9228 217.368 80.5175 217.672C80.1122 217.976 79.8108 218.389 79.6135 218.912C79.4215 219.435 79.3255 220.021 79.3255 220.672C79.3255 221.328 79.4242 221.92 79.6215 222.448C79.8242 222.971 80.1255 223.384 80.5255 223.688C80.9255 223.992 81.4268 224.144 82.0295 224.144ZM84.7415 225V218.496H84.6135V213.48H85.7975V225H84.7415ZM94.677 229.08C94.2343 229.08 93.797 229.013 93.365 228.88C92.9383 228.752 92.5437 228.547 92.181 228.264C91.8183 227.987 91.5143 227.624 91.269 227.176L92.333 226.584C92.573 227.064 92.909 227.408 93.341 227.616C93.7783 227.829 94.2237 227.936 94.677 227.936C95.301 227.936 95.805 227.819 96.189 227.584C96.5783 227.355 96.861 227.013 97.037 226.56C97.213 226.107 97.2983 225.541 97.293 224.864V222.56H97.429V216.36H98.477V224.88C98.477 225.125 98.469 225.36 98.453 225.584C98.4423 225.813 98.4183 226.037 98.381 226.256C98.2797 226.901 98.069 227.432 97.749 227.848C97.4343 228.264 97.0183 228.573 96.501 228.776C95.989 228.979 95.381 229.08 94.677 229.08ZM94.597 225.24C93.7917 225.24 93.1037 225.04 92.533 224.64C91.9623 224.235 91.525 223.688 91.221 223C90.917 222.312 90.765 221.536 90.765 220.672C90.765 219.813 90.9143 219.04 91.213 218.352C91.517 217.664 91.9517 217.12 92.517 216.72C93.0823 216.32 93.7597 216.12 94.549 216.12C95.3597 216.12 96.0423 216.317 96.597 216.712C97.1517 217.107 97.5703 217.648 97.853 218.336C98.141 219.019 98.285 219.797 98.285 220.672C98.285 221.531 98.1437 222.307 97.861 223C97.5783 223.688 97.1623 224.235 96.613 224.64C96.0637 225.04 95.3917 225.24 94.597 225.24ZM94.717 224.144C95.3303 224.144 95.837 223.995 96.237 223.696C96.637 223.397 96.9357 222.987 97.133 222.464C97.3303 221.936 97.429 221.339 97.429 220.672C97.429 219.995 97.3303 219.397 97.133 218.88C96.9357 218.357 96.637 217.949 96.237 217.656C95.8423 217.363 95.3437 217.216 94.741 217.216C94.1223 217.216 93.6103 217.368 93.205 217.672C92.7997 217.976 92.4983 218.389 92.301 218.912C92.109 219.435 92.013 220.021 92.013 220.672C92.013 221.328 92.1117 221.92 92.309 222.448C92.5117 222.971 92.813 223.384 93.213 223.688C93.613 223.992 94.1143 224.144 94.717 224.144ZM100.714 225V216.36H101.77V218.44L101.562 218.168C101.658 217.912 101.783 217.677 101.938 217.464C102.092 217.245 102.26 217.067 102.442 216.928C102.666 216.731 102.927 216.581 103.226 216.48C103.524 216.373 103.826 216.312 104.13 216.296C104.434 216.275 104.711 216.296 104.962 216.36V217.464C104.647 217.384 104.303 217.365 103.93 217.408C103.556 217.451 103.212 217.6 102.898 217.856C102.61 218.08 102.394 218.349 102.25 218.664C102.106 218.973 102.01 219.304 101.962 219.656C101.914 220.003 101.89 220.347 101.89 220.688V225H100.714ZM109.931 225.24C109.072 225.24 108.339 225.045 107.731 224.656C107.123 224.267 106.656 223.728 106.331 223.04C106.006 222.352 105.843 221.563 105.843 220.672C105.843 219.765 106.008 218.971 106.339 218.288C106.67 217.605 107.139 217.075 107.747 216.696C108.36 216.312 109.088 216.12 109.931 216.12C110.795 216.12 111.531 216.315 112.139 216.704C112.752 217.088 113.219 217.624 113.539 218.312C113.864 218.995 114.027 219.781 114.027 220.672C114.027 221.579 113.864 222.376 113.539 223.064C113.214 223.747 112.744 224.28 112.131 224.664C111.518 225.048 110.784 225.24 109.931 225.24ZM109.931 224.112C110.891 224.112 111.606 223.795 112.075 223.16C112.544 222.52 112.779 221.691 112.779 220.672C112.779 219.627 112.542 218.795 112.067 218.176C111.598 217.557 110.886 217.248 109.931 217.248C109.286 217.248 108.752 217.395 108.331 217.688C107.915 217.976 107.603 218.379 107.395 218.896C107.192 219.408 107.091 220 107.091 220.672C107.091 221.712 107.331 222.547 107.811 223.176C108.291 223.8 108.998 224.112 109.931 224.112ZM119.096 225.216C118.579 225.216 118.125 225.136 117.736 224.976C117.352 224.816 117.024 224.6 116.752 224.328C116.485 224.056 116.269 223.747 116.104 223.4C115.939 223.048 115.819 222.677 115.744 222.288C115.669 221.893 115.632 221.501 115.632 221.112V216.36H116.816V220.768C116.816 221.243 116.861 221.683 116.952 222.088C117.043 222.493 117.187 222.848 117.384 223.152C117.587 223.451 117.845 223.683 118.16 223.848C118.48 224.013 118.867 224.096 119.32 224.096C119.736 224.096 120.101 224.024 120.416 223.88C120.736 223.736 121.003 223.531 121.216 223.264C121.435 222.992 121.6 222.664 121.712 222.28C121.824 221.891 121.88 221.453 121.88 220.968L122.712 221.152C122.712 222.037 122.557 222.781 122.248 223.384C121.939 223.987 121.512 224.443 120.968 224.752C120.424 225.061 119.8 225.216 119.096 225.216ZM122 225V222.872H121.88V216.36H123.056V225H122ZM129.172 225.24C128.377 225.24 127.705 225.04 127.156 224.64C126.607 224.235 126.191 223.688 125.908 223C125.625 222.307 125.484 221.531 125.484 220.672C125.484 219.797 125.625 219.019 125.908 218.336C126.196 217.648 126.617 217.107 127.172 216.712C127.727 216.317 128.409 216.12 129.22 216.12C130.009 216.12 130.687 216.32 131.252 216.72C131.817 217.12 132.249 217.664 132.548 218.352C132.852 219.04 133.004 219.813 133.004 220.672C133.004 221.536 132.852 222.312 132.548 223C132.244 223.688 131.807 224.235 131.236 224.64C130.665 225.04 129.977 225.24 129.172 225.24ZM125.284 228.84V216.36H126.34V222.864H126.468V228.84H125.284ZM129.052 224.144C129.655 224.144 130.156 223.992 130.556 223.688C130.956 223.384 131.255 222.971 131.452 222.448C131.655 221.92 131.756 221.328 131.756 220.672C131.756 220.021 131.657 219.435 131.46 218.912C131.263 218.389 130.961 217.976 130.556 217.672C130.156 217.368 129.647 217.216 129.028 217.216C128.425 217.216 127.924 217.363 127.524 217.656C127.129 217.949 126.833 218.357 126.636 218.88C126.439 219.397 126.34 219.995 126.34 220.672C126.34 221.339 126.439 221.936 126.636 222.464C126.833 222.987 127.132 223.397 127.532 223.696C127.932 223.995 128.439 224.144 129.052 224.144ZM141.548 225.24C140.678 225.24 139.942 225.045 139.34 224.656C138.737 224.267 138.278 223.731 137.964 223.048C137.654 222.36 137.494 221.571 137.484 220.68C137.494 219.773 137.66 218.979 137.98 218.296C138.3 217.608 138.761 217.075 139.364 216.696C139.966 216.312 140.697 216.12 141.556 216.12C142.43 216.12 143.19 216.333 143.836 216.76C144.486 217.187 144.932 217.771 145.172 218.512L144.02 218.88C143.817 218.363 143.494 217.963 143.052 217.68C142.614 217.392 142.113 217.248 141.548 217.248C140.913 217.248 140.388 217.395 139.972 217.688C139.556 217.976 139.246 218.379 139.044 218.896C138.841 219.413 138.737 220.008 138.732 220.68C138.742 221.715 138.982 222.547 139.452 223.176C139.921 223.8 140.62 224.112 141.548 224.112C142.134 224.112 142.633 223.979 143.044 223.712C143.46 223.44 143.774 223.045 143.988 222.528L145.172 222.88C144.852 223.648 144.382 224.235 143.764 224.64C143.145 225.04 142.406 225.24 141.548 225.24ZM153.063 225V220.592C153.063 220.112 153.018 219.672 152.927 219.272C152.836 218.867 152.69 218.515 152.487 218.216C152.29 217.912 152.031 217.677 151.711 217.512C151.396 217.347 151.012 217.264 150.559 217.264C150.143 217.264 149.775 217.336 149.455 217.48C149.14 217.624 148.874 217.832 148.655 218.104C148.442 218.371 148.279 218.696 148.167 219.08C148.055 219.464 147.999 219.901 147.999 220.392L147.167 220.208C147.167 219.323 147.322 218.579 147.631 217.976C147.94 217.373 148.367 216.917 148.911 216.608C149.455 216.299 150.079 216.144 150.783 216.144C151.3 216.144 151.751 216.224 152.135 216.384C152.524 216.544 152.852 216.76 153.119 217.032C153.391 217.304 153.61 217.616 153.775 217.968C153.94 218.315 154.06 218.685 154.135 219.08C154.21 219.469 154.247 219.859 154.247 220.248V225H153.063ZM146.815 225V213.48H147.879V219.984H147.999V225H146.815ZM158.795 225.24C158.144 225.24 157.598 225.123 157.155 224.888C156.718 224.653 156.39 224.341 156.171 223.952C155.952 223.563 155.843 223.139 155.843 222.68C155.843 222.211 155.936 221.811 156.123 221.48C156.315 221.144 156.574 220.869 156.899 220.656C157.23 220.443 157.611 220.28 158.043 220.168C158.48 220.061 158.963 219.968 159.491 219.888C160.024 219.803 160.544 219.731 161.051 219.672C161.563 219.608 162.011 219.547 162.395 219.488L161.979 219.744C161.995 218.891 161.83 218.259 161.483 217.848C161.136 217.437 160.534 217.232 159.675 217.232C159.083 217.232 158.582 217.365 158.171 217.632C157.766 217.899 157.48 218.32 157.315 218.896L156.171 218.56C156.368 217.787 156.766 217.187 157.363 216.76C157.96 216.333 158.736 216.12 159.691 216.12C160.48 216.12 161.15 216.269 161.699 216.568C162.254 216.861 162.646 217.288 162.875 217.848C162.982 218.099 163.051 218.379 163.083 218.688C163.115 218.997 163.131 219.312 163.131 219.632V225H162.083V222.832L162.387 222.96C162.094 223.701 161.638 224.267 161.019 224.656C160.4 225.045 159.659 225.24 158.795 225.24ZM158.931 224.224C159.48 224.224 159.96 224.125 160.371 223.928C160.782 223.731 161.112 223.461 161.363 223.12C161.614 222.773 161.776 222.384 161.851 221.952C161.915 221.675 161.95 221.371 161.955 221.04C161.96 220.704 161.963 220.453 161.963 220.288L162.411 220.52C162.011 220.573 161.576 220.627 161.107 220.68C160.643 220.733 160.184 220.795 159.731 220.864C159.283 220.933 158.878 221.016 158.515 221.112C158.27 221.181 158.032 221.28 157.803 221.408C157.574 221.531 157.384 221.696 157.235 221.904C157.091 222.112 157.019 222.371 157.019 222.68C157.019 222.931 157.08 223.173 157.203 223.408C157.331 223.643 157.534 223.837 157.811 223.992C158.094 224.147 158.467 224.224 158.931 224.224ZM169.918 225C169.432 225.101 168.952 225.141 168.478 225.12C168.008 225.099 167.587 224.997 167.214 224.816C166.846 224.635 166.566 224.352 166.374 223.968C166.219 223.648 166.134 223.325 166.118 223C166.107 222.669 166.102 222.293 166.102 221.872V213.96H167.27V221.824C167.27 222.187 167.272 222.491 167.278 222.736C167.288 222.976 167.344 223.189 167.446 223.376C167.638 223.733 167.942 223.947 168.358 224.016C168.779 224.085 169.299 224.069 169.918 223.968V225ZM164.254 217.368V216.36H169.918V217.368H164.254ZM174.844 225.232C173.831 225.232 172.996 225.013 172.34 224.576C171.689 224.139 171.289 223.531 171.14 222.752L172.34 222.552C172.468 223.043 172.759 223.435 173.212 223.728C173.671 224.016 174.236 224.16 174.908 224.16C175.564 224.16 176.081 224.024 176.46 223.752C176.839 223.475 177.028 223.099 177.028 222.624C177.028 222.357 176.967 222.141 176.844 221.976C176.727 221.805 176.484 221.648 176.116 221.504C175.748 221.36 175.199 221.189 174.468 220.992C173.684 220.779 173.071 220.565 172.628 220.352C172.185 220.139 171.871 219.893 171.684 219.616C171.497 219.333 171.404 218.989 171.404 218.584C171.404 218.093 171.543 217.664 171.82 217.296C172.097 216.923 172.481 216.635 172.972 216.432C173.463 216.224 174.033 216.12 174.684 216.12C175.335 216.12 175.916 216.227 176.428 216.44C176.945 216.648 177.361 216.941 177.676 217.32C177.991 217.699 178.177 218.139 178.236 218.64L177.036 218.856C176.956 218.349 176.703 217.949 176.276 217.656C175.855 217.357 175.319 217.203 174.668 217.192C174.055 217.176 173.556 217.293 173.172 217.544C172.788 217.789 172.596 218.117 172.596 218.528C172.596 218.757 172.665 218.955 172.804 219.12C172.943 219.28 173.193 219.432 173.556 219.576C173.924 219.72 174.447 219.877 175.124 220.048C175.919 220.251 176.543 220.464 176.996 220.688C177.449 220.912 177.772 221.176 177.964 221.48C178.156 221.784 178.252 222.16 178.252 222.608C178.252 223.424 177.948 224.067 177.34 224.536C176.737 225 175.905 225.232 174.844 225.232Z" fill="#3C3F34"/>
<g filter="url(#filter0_d_737_291)">
<circle cx="118.5" cy="71.5" r="51.5" fill="white"/>
</g>
<g filter="url(#filter1_d_737_291)">
<circle cx="118.5" cy="71.5001" r="43.775" fill="white"/>
</g>
<path d="M112.087 59.8071H113.087C114.075 59.8058 115.022 59.4128 115.72 58.7143C116.419 58.0158 116.812 57.0688 116.813 56.081V56.0398H114.633V56.081C114.633 56.4909 114.47 56.8839 114.18 57.1738C113.89 57.4636 113.497 57.6267 113.087 57.6274H112.087C111.677 57.6267 111.284 57.4636 110.994 57.1738C110.704 56.8839 110.541 56.4909 110.54 56.081V52.2327C110.541 51.8229 110.705 51.4303 110.994 51.1407C111.284 50.8511 111.677 50.6881 112.087 50.6875H113.087C113.497 50.6881 113.89 50.8513 114.18 51.1411C114.47 51.431 114.633 51.8239 114.633 52.2339H116.813C116.812 51.246 116.419 50.2991 115.72 49.6006C115.022 48.9021 114.075 48.5091 113.087 48.5078H112.087C111.099 48.5088 110.152 48.9016 109.453 49.6002C108.755 50.2988 108.362 51.246 108.361 52.2339V56.0822C108.362 57.0699 108.755 58.0168 109.454 58.7151C110.152 59.4134 111.099 59.8061 112.087 59.8071Z" fill="url(#paint0_linear_737_291)"/>
<path d="M122.326 59.8071C123.447 59.8058 124.521 59.3601 125.313 58.5678C126.106 57.7755 126.551 56.7013 126.553 55.5809V52.7328C126.553 52.1778 126.443 51.6282 126.231 51.1155C126.019 50.6027 125.707 50.1368 125.315 49.7444C124.922 49.352 124.456 49.0407 123.944 48.8283C123.431 48.6159 122.881 48.5066 122.326 48.5066C121.771 48.5066 121.222 48.6159 120.709 48.8283C120.196 49.0407 119.731 49.352 119.338 49.7444C118.946 50.1368 118.634 50.6027 118.422 51.1155C118.21 51.6282 118.1 52.1778 118.1 52.7328V55.5809C118.101 56.7014 118.547 57.7758 119.339 58.5682C120.132 59.3605 121.206 59.8061 122.326 59.8071ZM120.28 52.7328C120.28 52.19 120.496 51.6695 120.879 51.2857C121.263 50.9019 121.784 50.6863 122.326 50.6863C122.869 50.6863 123.39 50.9019 123.774 51.2857C124.157 51.6695 124.373 52.19 124.373 52.7328V55.5809C124.373 56.1237 124.157 56.6442 123.774 57.028C123.39 57.4118 122.869 57.6274 122.326 57.6274C121.784 57.6274 121.263 57.4118 120.879 57.028C120.496 56.6442 120.28 56.1237 120.28 55.5809V52.7328Z" fill="url(#paint1_linear_737_291)"/>
<path d="M131.933 59.7998L129.859 60.4586C129.296 60.6374 128.815 61.0117 128.504 61.5137C128.193 62.0158 128.072 62.6125 128.162 63.1961C128.252 63.7798 128.549 64.3119 128.997 64.6964C129.445 65.0808 130.016 65.2923 130.607 65.2926H133.925V63.1129H130.607C130.537 63.1122 130.469 63.0866 130.416 63.0407C130.363 62.9948 130.329 62.9315 130.318 62.8623C130.307 62.793 130.322 62.7222 130.358 62.6626C130.395 62.6029 130.452 62.5582 130.518 62.5365L132.593 61.8778C133.126 61.71 133.591 61.3765 133.92 60.9258C134.25 60.4751 134.427 59.9308 134.426 59.3723V59.1144C134.425 58.4173 134.148 57.749 133.655 57.2561C133.162 56.7633 132.493 56.4861 131.796 56.4855H130.762C130.065 56.4864 129.397 56.7637 128.904 57.2565C128.411 57.7494 128.134 58.4175 128.133 59.1144V59.4329H130.313V59.1144C130.313 58.9954 130.36 58.8813 130.445 58.7971C130.529 58.7129 130.643 58.6655 130.762 58.6652H131.796C131.915 58.6652 132.03 58.7125 132.114 58.7967C132.199 58.8809 132.246 58.9952 132.246 59.1144V59.3723C132.247 59.4677 132.216 59.5607 132.16 59.6376C132.103 59.7145 132.024 59.7714 131.933 59.7998Z" fill="url(#paint2_linear_737_291)"/>
<path d="M115.509 64.8724C117.324 64.8785 119.089 65.4701 120.541 66.5591C121.993 67.6482 123.055 69.1766 123.569 70.9174C123.757 71.5724 124.156 72.1475 124.702 72.5544C125.249 72.9613 125.915 73.1775 126.596 73.1697H126.613C127.467 73.1699 128.312 73.34 129.099 73.6701C129.886 74.0002 130.599 74.4836 131.197 75.0923C131.796 75.7009 132.267 76.4226 132.583 77.2152C132.9 78.0078 133.055 78.8554 133.041 79.7088C133.023 80.6042 132.814 81.4854 132.427 82.2929C133.137 82.4714 133.815 82.7573 134.438 83.1406C134.932 82.0772 135.198 80.9222 135.218 79.7499C135.237 78.6073 135.029 77.4723 134.605 76.411C134.181 75.3498 133.55 74.3835 132.749 73.5686C131.948 72.7537 130.993 72.1064 129.939 71.6646C128.885 71.2227 127.754 70.995 126.611 70.9949H126.589C126.38 70.9978 126.176 70.9319 126.008 70.8071C125.84 70.6823 125.718 70.5057 125.66 70.3046C125.02 68.1072 123.684 66.1768 121.854 64.8032C120.023 63.4297 117.796 62.6871 115.507 62.6871C113.218 62.6871 110.991 63.4297 109.161 64.8032C107.33 66.1768 105.994 68.1072 105.354 70.3046C105.295 70.504 105.171 70.6785 105.003 70.8014C104.836 70.9243 104.632 70.9888 104.424 70.9852H104.405C103.261 70.9856 102.129 71.2138 101.075 71.6565C100.021 72.0991 99.0653 72.7473 98.2643 73.5632C97.4632 74.3791 96.8327 75.3464 96.4096 76.4086C95.9864 77.4709 95.7791 78.6067 95.7997 79.7499C95.8772 84.4145 99.7958 88.2108 104.529 88.2108H107.997C108.118 87.4505 108.36 86.7146 108.714 86.0311H104.529C100.975 86.0311 98.0363 83.1963 97.9782 79.7136C97.9637 78.8603 98.1192 78.0126 98.4357 77.22C98.7523 76.4274 99.2234 75.7058 99.8217 75.0971C100.42 74.4885 101.133 74.005 101.92 73.6749C102.707 73.3448 103.552 73.1747 104.406 73.1745H104.428C104.642 73.1742 104.855 73.1527 105.065 73.1104C105.836 73.9311 106.27 75.0117 106.282 76.1377L108.743 76.0675C108.722 74.4672 108.141 72.925 107.101 71.7081C107.251 71.4658 107.368 71.2043 107.448 70.9307C107.96 69.1874 109.021 67.656 110.473 66.5644C111.926 65.4728 113.692 64.8793 115.509 64.8724Z" fill="url(#paint3_linear_737_291)"/>
<path d="M130.894 84.1493C130.4 84.5149 129.996 84.9899 129.716 85.5371C129.436 86.0844 129.286 86.6891 129.278 87.3038L127.099 87.2421C127.11 86.393 127.299 85.5556 127.654 84.784C128.008 84.0123 128.521 83.3234 129.157 82.7616C128.69 81.445 127.817 80.3106 126.664 79.5213C125.511 78.732 124.138 78.3286 122.742 78.369C121.345 78.4093 119.997 78.8914 118.892 79.746C117.787 80.6005 116.981 81.7835 116.59 83.1249C116.503 83.4219 116.321 83.6823 116.072 83.8667C115.824 84.0511 115.522 84.1495 115.212 84.1469H115.2C114.505 84.1468 113.816 84.2852 113.175 84.5541C112.534 84.823 111.952 85.217 111.465 85.713C110.978 86.209 110.594 86.7972 110.337 87.4431C110.079 88.089 109.953 88.7798 109.965 89.4751C110.012 92.3462 112.415 94.6215 115.286 94.6215H130.574C133.445 94.6215 135.848 92.3462 135.896 89.4751C135.921 88.1104 135.412 86.79 134.478 85.7951C133.543 84.8003 132.257 84.2097 130.894 84.1493Z" fill="url(#paint4_linear_737_291)"/>
<defs>
<filter id="filter0_d_737_291" x="37" y="0" width="163" height="163" filterUnits="userSpaceOnUse" color-interpolation-filters="sRGB">
<feFlood flood-opacity="0" result="BackgroundImageFix"/>
<feColorMatrix in="SourceAlpha" type="matrix" values="0 0 0 0 0 0 0 0 0 0 0 0 0 0 0 0 0 0 127 0" result="hardAlpha"/>
<feOffset dy="10"/>
<feGaussianBlur stdDeviation="15"/>
<feComposite in2="hardAlpha" operator="out"/>
<feColorMatrix type="matrix" values="0 0 0 0 0.633333 0 0 0 0 0.633333 0 0 0 0 0.633333 0 0 0 0.25 0"/>
<feBlend mode="normal" in2="BackgroundImageFix" result="effect1_dropShadow_737_291"/>
<feBlend mode="normal" in="SourceGraphic" in2="effect1_dropShadow_737_291" result="shape"/>
</filter>
<filter id="filter1_d_737_291" x="44.725" y="7.7251" width="147.55" height="147.55" filterUnits="userSpaceOnUse" color-interpolation-filters="sRGB">
<feFlood flood-opacity="0" result="BackgroundImageFix"/>
<feColorMatrix in="SourceAlpha" type="matrix" values="0 0 0 0 0 0 0 0 0 0 0 0 0 0 0 0 0 0 127 0" result="hardAlpha"/>
<feOffset dy="10"/>
<feGaussianBlur stdDeviation="15"/>
<feComposite in2="hardAlpha" operator="out"/>
<feColorMatrix type="matrix" values="0 0 0 0 0.633333 0 0 0 0 0.633333 0 0 0 0 0.633333 0 0 0 0.25 0"/>
<feBlend mode="normal" in2="BackgroundImageFix" result="effect1_dropShadow_737_291"/>
<feBlend mode="normal" in="SourceGraphic" in2="effect1_dropShadow_737_291" result="shape"/>
</filter>
<linearGradient id="paint0_linear_737_291" x1="108.361" y1="49.1669" x2="117.763" y2="50.2556" gradientUnits="userSpaceOnUse">
<stop stop-color="#97BC5D"/>
<stop offset="1" stop-color="#C0D997"/>
</linearGradient>
<linearGradient id="paint1_linear_737_291" x1="118.1" y1="49.1658" x2="127.503" y2="50.2543" gradientUnits="userSpaceOnUse">
<stop stop-color="#97BC5D"/>
<stop offset="1" stop-color="#C0D997"/>
</linearGradient>
<linearGradient id="paint2_linear_737_291" x1="128.133" y1="56.9992" x2="135.142" y2="57.7744" gradientUnits="userSpaceOnUse">
<stop stop-color="#97BC5D"/>
<stop offset="1" stop-color="#C0D997"/>
</linearGradient>
<linearGradient id="paint3_linear_737_291" x1="95.7983" y1="64.176" x2="137.837" y2="74.2256" gradientUnits="userSpaceOnUse">
<stop stop-color="#97BC5D"/>
<stop offset="1" stop-color="#C0D997"/>
</linearGradient>
<linearGradient id="paint4_linear_737_291" x1="109.964" y1="79.3144" x2="137.519" y2="86.1185" gradientUnits="userSpaceOnUse">
<stop stop-color="#97BC5D"/>
<stop offset="1" stop-color="#C0D997"/>
</linearGradient>
</defs>
</svg>
