<svg width="335" height="237" viewBox="0 0 335 237" fill="none" xmlns="http://www.w3.org/2000/svg">
<g filter="url(#filter0_d_737_334)">
<path d="M55.9221 170.3C54.9021 170.3 53.9821 170.127 53.1621 169.78C52.3488 169.433 51.6754 168.94 51.1421 168.3C50.6154 167.653 50.2721 166.89 50.1121 166.01L51.9521 165.72C52.1854 166.627 52.6688 167.337 53.4021 167.85C54.1421 168.357 55.0121 168.61 56.0121 168.61C56.6588 168.61 57.2421 168.51 57.7621 168.31C58.2888 168.103 58.7054 167.81 59.0121 167.43C59.3188 167.05 59.4721 166.6 59.4721 166.08C59.4721 165.76 59.4154 165.487 59.3021 165.26C59.1954 165.027 59.0454 164.83 58.8521 164.67C58.6654 164.503 58.4521 164.363 58.2121 164.25C57.9721 164.137 57.7221 164.043 57.4621 163.97L53.7921 162.88C53.3921 162.76 53.0054 162.61 52.6321 162.43C52.2588 162.243 51.9254 162.013 51.6321 161.74C51.3388 161.46 51.1054 161.127 50.9321 160.74C50.7588 160.347 50.6721 159.883 50.6721 159.35C50.6721 158.497 50.8921 157.77 51.3321 157.17C51.7788 156.563 52.3821 156.1 53.1421 155.78C53.9021 155.46 54.7588 155.303 55.7121 155.31C56.6788 155.317 57.5421 155.49 58.3021 155.83C59.0688 156.163 59.7021 156.643 60.2021 157.27C60.7088 157.897 61.0488 158.647 61.2221 159.52L59.3321 159.85C59.2321 159.263 59.0088 158.76 58.6621 158.34C58.3221 157.913 57.8954 157.587 57.3821 157.36C56.8688 157.127 56.3054 157.007 55.6921 157C55.1054 156.993 54.5754 157.087 54.1021 157.28C53.6288 157.473 53.2521 157.743 52.9721 158.09C52.6921 158.43 52.5521 158.823 52.5521 159.27C52.5521 159.71 52.6788 160.067 52.9321 160.34C53.1854 160.607 53.4954 160.82 53.8621 160.98C54.2354 161.133 54.5988 161.26 54.9521 161.36L57.6921 162.15C58.0054 162.237 58.3654 162.357 58.7721 162.51C59.1854 162.663 59.5854 162.88 59.9721 163.16C60.3588 163.433 60.6788 163.8 60.9321 164.26C61.1854 164.713 61.3121 165.287 61.3121 165.98C61.3121 166.673 61.1721 167.29 60.8921 167.83C60.6188 168.37 60.2354 168.823 59.7421 169.19C59.2488 169.55 58.6754 169.823 58.0221 170.01C57.3688 170.203 56.6688 170.3 55.9221 170.3ZM67.5098 170.28C66.8164 170.28 66.2198 170.17 65.7198 169.95C65.2264 169.73 64.8164 169.437 64.4898 169.07C64.1631 168.703 63.9064 168.297 63.7198 167.85C63.5331 167.403 63.3998 166.947 63.3198 166.48C63.2464 166.013 63.2098 165.577 63.2098 165.17V159.2H65.0098V164.61C65.0098 165.117 65.0564 165.607 65.1498 166.08C65.2431 166.553 65.3998 166.98 65.6198 167.36C65.8464 167.74 66.1464 168.04 66.5198 168.26C66.8998 168.48 67.3731 168.59 67.9398 168.59C68.3864 168.59 68.7931 168.513 69.1598 168.36C69.5264 168.207 69.8398 167.98 70.0998 167.68C70.3598 167.373 70.5598 166.987 70.6998 166.52C70.8398 166.053 70.9098 165.51 70.9098 164.89L72.0798 165.25C72.0798 166.29 71.8898 167.187 71.5098 167.94C71.1364 168.693 70.6064 169.273 69.9198 169.68C69.2398 170.08 68.4364 170.28 67.5098 170.28ZM71.1098 170V167.11H70.9098V159.2H72.6998V170H71.1098ZM79.5796 170.29C78.2929 170.29 77.2363 170.01 76.4096 169.45C75.5896 168.883 75.0863 168.093 74.8996 167.08L76.7196 166.79C76.8663 167.377 77.2029 167.843 77.7296 168.19C78.2563 168.53 78.9096 168.7 79.6896 168.7C80.4296 168.7 81.0096 168.547 81.4296 168.24C81.8496 167.933 82.0596 167.517 82.0596 166.99C82.0596 166.683 81.9896 166.437 81.8496 166.25C81.7096 166.057 81.4196 165.877 80.9796 165.71C80.5463 165.543 79.8896 165.343 79.0096 165.11C78.0563 164.857 77.3063 164.593 76.7596 164.32C76.2129 164.047 75.8229 163.73 75.5896 163.37C75.3563 163.01 75.2396 162.573 75.2396 162.06C75.2396 161.427 75.4129 160.873 75.7596 160.4C76.1063 159.92 76.5896 159.55 77.2096 159.29C77.8363 159.03 78.5629 158.9 79.3896 158.9C80.2096 158.9 80.9429 159.03 81.5896 159.29C82.2363 159.55 82.7563 159.92 83.1496 160.4C83.5496 160.873 83.7863 161.427 83.8596 162.06L82.0396 162.39C81.9529 161.81 81.6729 161.353 81.1996 161.02C80.7329 160.687 80.1296 160.51 79.3896 160.49C78.6896 160.463 78.1196 160.587 77.6796 160.86C77.2463 161.133 77.0296 161.503 77.0296 161.97C77.0296 162.23 77.1096 162.453 77.2696 162.64C77.4363 162.827 77.7396 163.003 78.1796 163.17C78.6263 163.337 79.2729 163.527 80.1196 163.74C81.0729 163.98 81.8229 164.243 82.3696 164.53C82.9229 164.81 83.3163 165.143 83.5496 165.53C83.7829 165.91 83.8996 166.38 83.8996 166.94C83.8996 167.98 83.5163 168.8 82.7496 169.4C81.9829 169.993 80.9263 170.29 79.5796 170.29ZM92.1351 170C91.4951 170.127 90.8617 170.177 90.2351 170.15C89.6151 170.13 89.0617 170.007 88.5751 169.78C88.0884 169.547 87.7184 169.187 87.4651 168.7C87.2517 168.273 87.1351 167.843 87.1151 167.41C87.1017 166.97 87.0951 166.473 87.0951 165.92V156.2H88.8751V165.84C88.8751 166.28 88.8784 166.657 88.8851 166.97C88.8984 167.283 88.9684 167.553 89.0951 167.78C89.3351 168.207 89.7151 168.457 90.2351 168.53C90.7617 168.603 91.3951 168.583 92.1351 168.47V170ZM84.9051 160.67V159.2H92.1351V160.67H84.9051ZM97.3977 170.3C96.5911 170.3 95.9144 170.153 95.3677 169.86C94.8277 169.56 94.4177 169.167 94.1377 168.68C93.8644 168.193 93.7277 167.66 93.7277 167.08C93.7277 166.513 93.8344 166.023 94.0477 165.61C94.2677 165.19 94.5744 164.843 94.9677 164.57C95.3611 164.29 95.8311 164.07 96.3777 163.91C96.8911 163.77 97.4644 163.65 98.0977 163.55C98.7377 163.443 99.3844 163.347 100.038 163.26C100.691 163.173 101.301 163.09 101.868 163.01L101.228 163.38C101.248 162.42 101.054 161.71 100.648 161.25C100.248 160.79 99.5544 160.56 98.5677 160.56C97.9144 160.56 97.3411 160.71 96.8477 161.01C96.3611 161.303 96.0177 161.783 95.8177 162.45L94.1277 161.94C94.3877 160.993 94.8911 160.25 95.6377 159.71C96.3844 159.17 97.3677 158.9 98.5877 158.9C99.5677 158.9 100.408 159.077 101.108 159.43C101.814 159.777 102.321 160.303 102.628 161.01C102.781 161.343 102.878 161.707 102.918 162.1C102.958 162.487 102.978 162.893 102.978 163.32V170H101.398V167.41L101.768 167.65C101.361 168.523 100.791 169.183 100.058 169.63C99.3311 170.077 98.4444 170.3 97.3977 170.3ZM97.6677 168.81C98.3077 168.81 98.8611 168.697 99.3277 168.47C99.8011 168.237 100.181 167.933 100.468 167.56C100.754 167.18 100.941 166.767 101.028 166.32C101.128 165.987 101.181 165.617 101.188 165.21C101.201 164.797 101.208 164.48 101.208 164.26L101.828 164.53C101.248 164.61 100.678 164.687 100.118 164.76C99.5577 164.833 99.0277 164.913 98.5277 165C98.0277 165.08 97.5777 165.177 97.1777 165.29C96.8844 165.383 96.6077 165.503 96.3477 165.65C96.0944 165.797 95.8877 165.987 95.7277 166.22C95.5744 166.447 95.4977 166.73 95.4977 167.07C95.4977 167.363 95.5711 167.643 95.7177 167.91C95.8711 168.177 96.1044 168.393 96.4177 168.56C96.7377 168.727 97.1544 168.81 97.6677 168.81ZM105.778 157.29V155.45H107.558V157.29H105.778ZM105.778 170V159.2H107.558V170H105.778ZM118.248 170V164.59C118.248 164.077 118.202 163.583 118.108 163.11C118.022 162.637 117.865 162.213 117.638 161.84C117.418 161.46 117.118 161.16 116.738 160.94C116.365 160.72 115.892 160.61 115.318 160.61C114.872 160.61 114.465 160.687 114.098 160.84C113.738 160.987 113.428 161.213 113.168 161.52C112.908 161.827 112.705 162.213 112.558 162.68C112.418 163.14 112.348 163.683 112.348 164.31L111.178 163.95C111.178 162.903 111.365 162.007 111.738 161.26C112.118 160.507 112.648 159.93 113.328 159.53C114.015 159.123 114.822 158.92 115.748 158.92C116.448 158.92 117.045 159.03 117.538 159.25C118.032 159.47 118.442 159.763 118.768 160.13C119.095 160.49 119.352 160.897 119.538 161.35C119.725 161.797 119.855 162.253 119.928 162.72C120.008 163.18 120.048 163.617 120.048 164.03V170H118.248ZM110.548 170V159.2H112.148V162.09H112.348V170H110.548ZM125.718 170.3C124.911 170.3 124.235 170.153 123.688 169.86C123.148 169.56 122.738 169.167 122.458 168.68C122.185 168.193 122.048 167.66 122.048 167.08C122.048 166.513 122.155 166.023 122.368 165.61C122.588 165.19 122.895 164.843 123.288 164.57C123.681 164.29 124.151 164.07 124.698 163.91C125.211 163.77 125.785 163.65 126.418 163.55C127.058 163.443 127.705 163.347 128.358 163.26C129.011 163.173 129.621 163.09 130.188 163.01L129.548 163.38C129.568 162.42 129.375 161.71 128.968 161.25C128.568 160.79 127.875 160.56 126.888 160.56C126.235 160.56 125.661 160.71 125.168 161.01C124.681 161.303 124.338 161.783 124.138 162.45L122.448 161.94C122.708 160.993 123.211 160.25 123.958 159.71C124.705 159.17 125.688 158.9 126.908 158.9C127.888 158.9 128.728 159.077 129.428 159.43C130.135 159.777 130.641 160.303 130.948 161.01C131.101 161.343 131.198 161.707 131.238 162.1C131.278 162.487 131.298 162.893 131.298 163.32V170H129.718V167.41L130.088 167.65C129.681 168.523 129.111 169.183 128.378 169.63C127.651 170.077 126.765 170.3 125.718 170.3ZM125.988 168.81C126.628 168.81 127.181 168.697 127.648 168.47C128.121 168.237 128.501 167.933 128.788 167.56C129.075 167.18 129.261 166.767 129.348 166.32C129.448 165.987 129.501 165.617 129.508 165.21C129.521 164.797 129.528 164.48 129.528 164.26L130.148 164.53C129.568 164.61 128.998 164.687 128.438 164.76C127.878 164.833 127.348 164.913 126.848 165C126.348 165.08 125.898 165.177 125.498 165.29C125.205 165.383 124.928 165.503 124.668 165.65C124.415 165.797 124.208 165.987 124.048 166.22C123.895 166.447 123.818 166.73 123.818 167.07C123.818 167.363 123.891 167.643 124.038 167.91C124.191 168.177 124.425 168.393 124.738 168.56C125.058 168.727 125.475 168.81 125.988 168.81ZM138.858 170.3C137.845 170.3 136.991 170.05 136.298 169.55C135.605 169.043 135.078 168.36 134.718 167.5C134.365 166.633 134.188 165.663 134.188 164.59C134.188 163.503 134.365 162.53 134.718 161.67C135.078 160.81 135.605 160.133 136.298 159.64C136.998 159.147 137.855 158.9 138.868 158.9C139.868 158.9 140.728 159.15 141.448 159.65C142.175 160.143 142.731 160.82 143.118 161.68C143.505 162.54 143.698 163.51 143.698 164.59C143.698 165.67 143.505 166.64 143.118 167.5C142.731 168.36 142.175 169.043 141.448 169.55C140.728 170.05 139.865 170.3 138.858 170.3ZM133.888 170V155.6H135.678V162.05H135.478V170H133.888ZM138.638 168.67C139.351 168.67 139.941 168.49 140.408 168.13C140.875 167.77 141.225 167.283 141.458 166.67C141.691 166.05 141.808 165.357 141.808 164.59C141.808 163.83 141.691 163.143 141.458 162.53C141.231 161.917 140.878 161.43 140.398 161.07C139.925 160.71 139.321 160.53 138.588 160.53C137.888 160.53 137.308 160.703 136.848 161.05C136.388 161.39 136.045 161.867 135.818 162.48C135.591 163.087 135.478 163.79 135.478 164.59C135.478 165.377 135.588 166.08 135.808 166.7C136.035 167.313 136.381 167.797 136.848 168.15C137.315 168.497 137.911 168.67 138.638 168.67ZM146.09 170V155.3H147.87V170H146.09ZM155.551 170.3C154.491 170.3 153.564 170.067 152.771 169.6C151.984 169.127 151.371 168.47 150.931 167.63C150.491 166.783 150.271 165.797 150.271 164.67C150.271 163.49 150.487 162.47 150.921 161.61C151.354 160.743 151.957 160.077 152.731 159.61C153.511 159.137 154.424 158.9 155.471 158.9C156.557 158.9 157.481 159.15 158.241 159.65C159.007 160.15 159.581 160.863 159.961 161.79C160.347 162.717 160.514 163.82 160.461 165.1H158.661V164.46C158.641 163.133 158.371 162.143 157.851 161.49C157.331 160.83 156.557 160.5 155.531 160.5C154.431 160.5 153.594 160.853 153.021 161.56C152.447 162.267 152.161 163.28 152.161 164.6C152.161 165.873 152.447 166.86 153.021 167.56C153.594 168.26 154.411 168.61 155.471 168.61C156.184 168.61 156.804 168.447 157.331 168.12C157.857 167.793 158.271 167.323 158.571 166.71L160.281 167.3C159.861 168.253 159.227 168.993 158.381 169.52C157.541 170.04 156.597 170.3 155.551 170.3ZM151.561 165.1V163.67H159.541V165.1H151.561ZM170.931 170.3C169.924 170.3 169.061 170.05 168.341 169.55C167.621 169.043 167.064 168.36 166.671 167.5C166.284 166.64 166.091 165.67 166.091 164.59C166.091 163.51 166.284 162.54 166.671 161.68C167.064 160.82 167.621 160.143 168.341 159.65C169.061 159.15 169.921 158.9 170.921 158.9C171.941 158.9 172.798 159.147 173.491 159.64C174.184 160.133 174.708 160.81 175.061 161.67C175.421 162.53 175.601 163.503 175.601 164.59C175.601 165.663 175.421 166.633 175.061 167.5C174.708 168.36 174.184 169.043 173.491 169.55C172.798 170.05 171.944 170.3 170.931 170.3ZM171.151 168.67C171.878 168.67 172.474 168.497 172.941 168.15C173.408 167.797 173.751 167.313 173.971 166.7C174.198 166.08 174.311 165.377 174.311 164.59C174.311 163.79 174.198 163.087 173.971 162.48C173.751 161.867 173.411 161.39 172.951 161.05C172.491 160.703 171.908 160.53 171.201 160.53C170.468 160.53 169.861 160.71 169.381 161.07C168.908 161.43 168.554 161.917 168.321 162.53C168.094 163.143 167.981 163.83 167.981 164.59C167.981 165.357 168.098 166.05 168.331 166.67C168.564 167.283 168.914 167.77 169.381 168.13C169.854 168.49 170.444 168.67 171.151 168.67ZM174.311 170V162.05H174.111V155.6H175.901V170H174.311ZM181.773 170.3C180.966 170.3 180.289 170.153 179.743 169.86C179.203 169.56 178.793 169.167 178.513 168.68C178.239 168.193 178.103 167.66 178.103 167.08C178.103 166.513 178.209 166.023 178.423 165.61C178.643 165.19 178.949 164.843 179.343 164.57C179.736 164.29 180.206 164.07 180.753 163.91C181.266 163.77 181.839 163.65 182.473 163.55C183.113 163.443 183.759 163.347 184.413 163.26C185.066 163.173 185.676 163.09 186.243 163.01L185.603 163.38C185.623 162.42 185.429 161.71 185.023 161.25C184.623 160.79 183.929 160.56 182.943 160.56C182.289 160.56 181.716 160.71 181.223 161.01C180.736 161.303 180.393 161.783 180.193 162.45L178.503 161.94C178.763 160.993 179.266 160.25 180.013 159.71C180.759 159.17 181.743 158.9 182.963 158.9C183.943 158.9 184.783 159.077 185.483 159.43C186.189 159.777 186.696 160.303 187.003 161.01C187.156 161.343 187.253 161.707 187.293 162.1C187.333 162.487 187.353 162.893 187.353 163.32V170H185.773V167.41L186.143 167.65C185.736 168.523 185.166 169.183 184.433 169.63C183.706 170.077 182.819 170.3 181.773 170.3ZM182.043 168.81C182.683 168.81 183.236 168.697 183.703 168.47C184.176 168.237 184.556 167.933 184.843 167.56C185.129 167.18 185.316 166.767 185.403 166.32C185.503 165.987 185.556 165.617 185.563 165.21C185.576 164.797 185.583 164.48 185.583 164.26L186.203 164.53C185.623 164.61 185.053 164.687 184.493 164.76C183.933 164.833 183.403 164.913 182.903 165C182.403 165.08 181.953 165.177 181.553 165.29C181.259 165.383 180.983 165.503 180.723 165.65C180.469 165.797 180.263 165.987 180.103 166.22C179.949 166.447 179.873 166.73 179.873 167.07C179.873 167.363 179.946 167.643 180.093 167.91C180.246 168.177 180.479 168.393 180.793 168.56C181.113 168.727 181.529 168.81 182.043 168.81ZM195.983 170C195.343 170.127 194.709 170.177 194.083 170.15C193.463 170.13 192.909 170.007 192.423 169.78C191.936 169.547 191.566 169.187 191.313 168.7C191.099 168.273 190.983 167.843 190.963 167.41C190.949 166.97 190.943 166.473 190.943 165.92V156.2H192.723V165.84C192.723 166.28 192.726 166.657 192.733 166.97C192.746 167.283 192.816 167.553 192.943 167.78C193.183 168.207 193.563 168.457 194.083 168.53C194.609 168.603 195.243 168.583 195.983 168.47V170ZM188.753 160.67V159.2H195.983V160.67H188.753ZM201.245 170.3C200.439 170.3 199.762 170.153 199.215 169.86C198.675 169.56 198.265 169.167 197.985 168.68C197.712 168.193 197.575 167.66 197.575 167.08C197.575 166.513 197.682 166.023 197.895 165.61C198.115 165.19 198.422 164.843 198.815 164.57C199.209 164.29 199.679 164.07 200.225 163.91C200.739 163.77 201.312 163.65 201.945 163.55C202.585 163.443 203.232 163.347 203.885 163.26C204.539 163.173 205.149 163.09 205.715 163.01L205.075 163.38C205.095 162.42 204.902 161.71 204.495 161.25C204.095 160.79 203.402 160.56 202.415 160.56C201.762 160.56 201.189 160.71 200.695 161.01C200.209 161.303 199.865 161.783 199.665 162.45L197.975 161.94C198.235 160.993 198.739 160.25 199.485 159.71C200.232 159.17 201.215 158.9 202.435 158.9C203.415 158.9 204.255 159.077 204.955 159.43C205.662 159.777 206.169 160.303 206.475 161.01C206.629 161.343 206.725 161.707 206.765 162.1C206.805 162.487 206.825 162.893 206.825 163.32V170H205.245V167.41L205.615 167.65C205.209 168.523 204.639 169.183 203.905 169.63C203.179 170.077 202.292 170.3 201.245 170.3ZM201.515 168.81C202.155 168.81 202.709 168.697 203.175 168.47C203.649 168.237 204.029 167.933 204.315 167.56C204.602 167.18 204.789 166.767 204.875 166.32C204.975 165.987 205.029 165.617 205.035 165.21C205.049 164.797 205.055 164.48 205.055 164.26L205.675 164.53C205.095 164.61 204.525 164.687 203.965 164.76C203.405 164.833 202.875 164.913 202.375 165C201.875 165.08 201.425 165.177 201.025 165.29C200.732 165.383 200.455 165.503 200.195 165.65C199.942 165.797 199.735 165.987 199.575 166.22C199.422 166.447 199.345 166.73 199.345 167.07C199.345 167.363 199.419 167.643 199.565 167.91C199.719 168.177 199.952 168.393 200.265 168.56C200.585 168.727 201.002 168.81 201.515 168.81ZM217.509 170.29C216.223 170.29 215.166 170.01 214.339 169.45C213.519 168.883 213.016 168.093 212.829 167.08L214.649 166.79C214.796 167.377 215.133 167.843 215.659 168.19C216.186 168.53 216.839 168.7 217.619 168.7C218.359 168.7 218.939 168.547 219.359 168.24C219.779 167.933 219.989 167.517 219.989 166.99C219.989 166.683 219.919 166.437 219.779 166.25C219.639 166.057 219.349 165.877 218.909 165.71C218.476 165.543 217.819 165.343 216.939 165.11C215.986 164.857 215.236 164.593 214.689 164.32C214.143 164.047 213.753 163.73 213.519 163.37C213.286 163.01 213.169 162.573 213.169 162.06C213.169 161.427 213.343 160.873 213.689 160.4C214.036 159.92 214.519 159.55 215.139 159.29C215.766 159.03 216.493 158.9 217.319 158.9C218.139 158.9 218.873 159.03 219.519 159.29C220.166 159.55 220.686 159.92 221.079 160.4C221.479 160.873 221.716 161.427 221.789 162.06L219.969 162.39C219.883 161.81 219.603 161.353 219.129 161.02C218.663 160.687 218.059 160.51 217.319 160.49C216.619 160.463 216.049 160.587 215.609 160.86C215.176 161.133 214.959 161.503 214.959 161.97C214.959 162.23 215.039 162.453 215.199 162.64C215.366 162.827 215.669 163.003 216.109 163.17C216.556 163.337 217.203 163.527 218.049 163.74C219.003 163.98 219.753 164.243 220.299 164.53C220.853 164.81 221.246 165.143 221.479 165.53C221.713 165.91 221.829 166.38 221.829 166.94C221.829 167.98 221.446 168.8 220.679 169.4C219.913 169.993 218.856 170.29 217.509 170.29ZM230.065 170C229.425 170.127 228.791 170.177 228.165 170.15C227.545 170.13 226.991 170.007 226.505 169.78C226.018 169.547 225.648 169.187 225.395 168.7C225.181 168.273 225.065 167.843 225.045 167.41C225.031 166.97 225.025 166.473 225.025 165.92V156.2H226.805V165.84C226.805 166.28 226.808 166.657 226.815 166.97C226.828 167.283 226.898 167.553 227.025 167.78C227.265 168.207 227.645 168.457 228.165 168.53C228.691 168.603 229.325 168.583 230.065 168.47V170ZM222.835 160.67V159.2H230.065V160.67H222.835ZM236.408 170.3C235.335 170.3 234.408 170.057 233.628 169.57C232.855 169.083 232.258 168.41 231.838 167.55C231.418 166.69 231.208 165.703 231.208 164.59C231.208 163.457 231.422 162.463 231.848 161.61C232.275 160.757 232.878 160.093 233.658 159.62C234.438 159.14 235.355 158.9 236.408 158.9C237.488 158.9 238.418 159.143 239.198 159.63C239.978 160.11 240.575 160.78 240.988 161.64C241.408 162.493 241.618 163.477 241.618 164.59C241.618 165.717 241.408 166.71 240.988 167.57C240.568 168.423 239.968 169.093 239.188 169.58C238.408 170.06 237.482 170.3 236.408 170.3ZM236.408 168.61C237.528 168.61 238.362 168.237 238.908 167.49C239.455 166.743 239.728 165.777 239.728 164.59C239.728 163.37 239.452 162.4 238.898 161.68C238.345 160.953 237.515 160.59 236.408 160.59C235.655 160.59 235.035 160.76 234.548 161.1C234.062 161.44 233.698 161.91 233.458 162.51C233.218 163.11 233.098 163.803 233.098 164.59C233.098 165.803 233.378 166.777 233.938 167.51C234.498 168.243 235.322 168.61 236.408 168.61ZM243.82 170V159.2H245.41V161.81L245.15 161.47C245.277 161.137 245.44 160.83 245.64 160.55C245.847 160.27 246.077 160.04 246.33 159.86C246.61 159.633 246.927 159.46 247.28 159.34C247.633 159.22 247.993 159.15 248.36 159.13C248.727 159.103 249.07 159.127 249.39 159.2V160.87C249.017 160.77 248.607 160.743 248.16 160.79C247.713 160.837 247.3 161 246.92 161.28C246.573 161.527 246.303 161.827 246.11 162.18C245.923 162.533 245.793 162.917 245.72 163.33C245.647 163.737 245.61 164.153 245.61 164.58V170H243.82ZM253.999 170.3C253.193 170.3 252.516 170.153 251.969 169.86C251.429 169.56 251.019 169.167 250.739 168.68C250.466 168.193 250.329 167.66 250.329 167.08C250.329 166.513 250.436 166.023 250.649 165.61C250.869 165.19 251.176 164.843 251.569 164.57C251.963 164.29 252.433 164.07 252.979 163.91C253.493 163.77 254.066 163.65 254.699 163.55C255.339 163.443 255.986 163.347 256.639 163.26C257.293 163.173 257.903 163.09 258.469 163.01L257.829 163.38C257.849 162.42 257.656 161.71 257.249 161.25C256.849 160.79 256.156 160.56 255.169 160.56C254.516 160.56 253.943 160.71 253.449 161.01C252.963 161.303 252.619 161.783 252.419 162.45L250.729 161.94C250.989 160.993 251.493 160.25 252.239 159.71C252.986 159.17 253.969 158.9 255.189 158.9C256.169 158.9 257.009 159.077 257.709 159.43C258.416 159.777 258.923 160.303 259.229 161.01C259.383 161.343 259.479 161.707 259.519 162.1C259.559 162.487 259.579 162.893 259.579 163.32V170H257.999V167.41L258.369 167.65C257.963 168.523 257.393 169.183 256.659 169.63C255.933 170.077 255.046 170.3 253.999 170.3ZM254.269 168.81C254.909 168.81 255.463 168.697 255.929 168.47C256.403 168.237 256.783 167.933 257.069 167.56C257.356 167.18 257.543 166.767 257.629 166.32C257.729 165.987 257.783 165.617 257.789 165.21C257.803 164.797 257.809 164.48 257.809 164.26L258.429 164.53C257.849 164.61 257.279 164.687 256.719 164.76C256.159 164.833 255.629 164.913 255.129 165C254.629 165.08 254.179 165.177 253.779 165.29C253.486 165.383 253.209 165.503 252.949 165.65C252.696 165.797 252.489 165.987 252.329 166.22C252.176 166.447 252.099 166.73 252.099 167.07C252.099 167.363 252.173 167.643 252.319 167.91C252.473 168.177 252.706 168.393 253.019 168.56C253.339 168.727 253.756 168.81 254.269 168.81ZM266.549 175.1C265.983 175.1 265.429 175.013 264.889 174.84C264.349 174.667 263.853 174.403 263.399 174.05C262.953 173.703 262.579 173.263 262.279 172.73L263.909 171.87C264.176 172.397 264.553 172.78 265.039 173.02C265.533 173.26 266.039 173.38 266.559 173.38C267.246 173.38 267.816 173.253 268.269 173C268.723 172.753 269.056 172.383 269.269 171.89C269.489 171.397 269.596 170.783 269.589 170.05V167.1H269.799V159.2H271.379V170.07C271.379 170.363 271.369 170.647 271.349 170.92C271.336 171.193 271.303 171.463 271.249 171.73C271.109 172.497 270.833 173.127 270.419 173.62C270.006 174.12 269.473 174.49 268.819 174.73C268.166 174.977 267.409 175.1 266.549 175.1ZM266.419 170.3C265.413 170.3 264.549 170.05 263.829 169.55C263.109 169.043 262.553 168.36 262.159 167.5C261.773 166.64 261.579 165.67 261.579 164.59C261.579 163.51 261.773 162.54 262.159 161.68C262.553 160.82 263.109 160.143 263.829 159.65C264.549 159.15 265.409 158.9 266.409 158.9C267.429 158.9 268.286 159.147 268.979 159.64C269.673 160.133 270.196 160.81 270.549 161.67C270.909 162.53 271.089 163.503 271.089 164.59C271.089 165.663 270.909 166.633 270.549 167.5C270.196 168.36 269.673 169.043 268.979 169.55C268.286 170.05 267.433 170.3 266.419 170.3ZM266.639 168.67C267.366 168.67 267.963 168.497 268.429 168.15C268.896 167.797 269.239 167.313 269.459 166.7C269.686 166.08 269.799 165.377 269.799 164.59C269.799 163.79 269.686 163.087 269.459 162.48C269.239 161.867 268.899 161.39 268.439 161.05C267.979 160.703 267.396 160.53 266.689 160.53C265.956 160.53 265.349 160.71 264.869 161.07C264.396 161.43 264.043 161.917 263.809 162.53C263.583 163.143 263.469 163.83 263.469 164.59C263.469 165.357 263.586 166.05 263.819 166.67C264.053 167.283 264.403 167.77 264.869 168.13C265.343 168.49 265.933 168.67 266.639 168.67ZM278.851 170.3C277.791 170.3 276.865 170.067 276.071 169.6C275.285 169.127 274.671 168.47 274.231 167.63C273.791 166.783 273.571 165.797 273.571 164.67C273.571 163.49 273.788 162.47 274.221 161.61C274.655 160.743 275.258 160.077 276.031 159.61C276.811 159.137 277.725 158.9 278.771 158.9C279.858 158.9 280.781 159.15 281.541 159.65C282.308 160.15 282.881 160.863 283.261 161.79C283.648 162.717 283.815 163.82 283.761 165.1H281.961V164.46C281.941 163.133 281.671 162.143 281.151 161.49C280.631 160.83 279.858 160.5 278.831 160.5C277.731 160.5 276.895 160.853 276.321 161.56C275.748 162.267 275.461 163.28 275.461 164.6C275.461 165.873 275.748 166.86 276.321 167.56C276.895 168.26 277.711 168.61 278.771 168.61C279.485 168.61 280.105 168.447 280.631 168.12C281.158 167.793 281.571 167.323 281.871 166.71L283.581 167.3C283.161 168.253 282.528 168.993 281.681 169.52C280.841 170.04 279.898 170.3 278.851 170.3ZM274.861 165.1V163.67H282.841V165.1H274.861Z" fill="#3C3F34"/>
<path d="M16.0341 203V191.48H19.5301C19.6527 191.48 19.8607 191.483 20.1541 191.488C20.4527 191.493 20.7381 191.515 21.0101 191.552C21.8847 191.675 22.6154 192 23.2021 192.528C23.7887 193.056 24.2287 193.728 24.5221 194.544C24.8154 195.36 24.9621 196.259 24.9621 197.24C24.9621 198.221 24.8154 199.12 24.5221 199.936C24.2287 200.752 23.7887 201.424 23.2021 201.952C22.6154 202.48 21.8847 202.805 21.0101 202.928C20.7434 202.96 20.4581 202.981 20.1541 202.992C19.8501 202.997 19.6421 203 19.5301 203H16.0341ZM17.2501 201.872H19.5301C19.7487 201.872 19.9834 201.867 20.2341 201.856C20.4901 201.84 20.7087 201.813 20.8901 201.776C21.5621 201.659 22.1034 201.387 22.5141 200.96C22.9301 200.533 23.2341 200 23.4261 199.36C23.6181 198.715 23.7141 198.008 23.7141 197.24C23.7141 196.467 23.6181 195.757 23.4261 195.112C23.2341 194.467 22.9301 193.933 22.5141 193.512C22.0981 193.091 21.5567 192.821 20.8901 192.704C20.7087 192.667 20.4874 192.643 20.2261 192.632C19.9701 192.616 19.7381 192.608 19.5301 192.608H17.2501V201.872ZM30.4401 203.24C29.5974 203.24 28.8667 203.053 28.2481 202.68C27.6347 202.307 27.1574 201.781 26.8161 201.104C26.4747 200.427 26.3041 199.632 26.3041 198.72C26.3041 197.776 26.4721 196.96 26.8081 196.272C27.1441 195.584 27.6161 195.053 28.2241 194.68C28.8374 194.307 29.5601 194.12 30.3921 194.12C31.2454 194.12 31.9734 194.317 32.5761 194.712C33.1787 195.101 33.6347 195.661 33.9441 196.392C34.2534 197.123 34.3947 197.995 34.3681 199.008H33.1681V198.592C33.1467 197.472 32.9041 196.627 32.4401 196.056C31.9814 195.485 31.3094 195.2 30.4241 195.2C29.4961 195.2 28.7841 195.501 28.2881 196.104C27.7974 196.707 27.5521 197.565 27.5521 198.68C27.5521 199.768 27.7974 200.613 28.2881 201.216C28.7841 201.813 29.4854 202.112 30.3921 202.112C31.0107 202.112 31.5494 201.971 32.0081 201.688C32.4721 201.4 32.8374 200.987 33.1041 200.448L34.2001 200.872C33.8587 201.624 33.3547 202.208 32.6881 202.624C32.0267 203.035 31.2774 203.24 30.4401 203.24ZM27.1361 199.008V198.024H33.7361V199.008H27.1361ZM39.7274 203.24C38.8581 203.24 38.1221 203.045 37.5194 202.656C36.9168 202.267 36.4581 201.731 36.1434 201.048C35.8341 200.36 35.6741 199.571 35.6634 198.68C35.6741 197.773 35.8394 196.979 36.1594 196.296C36.4794 195.608 36.9408 195.075 37.5434 194.696C38.1461 194.312 38.8768 194.12 39.7354 194.12C40.6101 194.12 41.3701 194.333 42.0154 194.76C42.6661 195.187 43.1114 195.771 43.3514 196.512L42.1994 196.88C41.9968 196.363 41.6741 195.963 41.2314 195.68C40.7941 195.392 40.2928 195.248 39.7274 195.248C39.0928 195.248 38.5674 195.395 38.1514 195.688C37.7354 195.976 37.4261 196.379 37.2234 196.896C37.0208 197.413 36.9168 198.008 36.9114 198.68C36.9221 199.715 37.1621 200.547 37.6314 201.176C38.1008 201.8 38.7994 202.112 39.7274 202.112C40.3141 202.112 40.8128 201.979 41.2234 201.712C41.6394 201.44 41.9541 201.045 42.1674 200.528L43.3514 200.88C43.0314 201.648 42.5621 202.235 41.9434 202.64C41.3248 203.04 40.5861 203.24 39.7274 203.24ZM48.4244 203.24C47.5818 203.24 46.8511 203.053 46.2324 202.68C45.6191 202.307 45.1418 201.781 44.8004 201.104C44.4591 200.427 44.2884 199.632 44.2884 198.72C44.2884 197.776 44.4564 196.96 44.7924 196.272C45.1284 195.584 45.6004 195.053 46.2084 194.68C46.8218 194.307 47.5444 194.12 48.3764 194.12C49.2298 194.12 49.9578 194.317 50.5604 194.712C51.1631 195.101 51.6191 195.661 51.9284 196.392C52.2378 197.123 52.3791 197.995 52.3524 199.008H51.1524V198.592C51.1311 197.472 50.8884 196.627 50.4244 196.056C49.9658 195.485 49.2938 195.2 48.4084 195.2C47.4804 195.2 46.7684 195.501 46.2724 196.104C45.7818 196.707 45.5364 197.565 45.5364 198.68C45.5364 199.768 45.7818 200.613 46.2724 201.216C46.7684 201.813 47.4698 202.112 48.3764 202.112C48.9951 202.112 49.5338 201.971 49.9924 201.688C50.4564 201.4 50.8218 200.987 51.0884 200.448L52.1844 200.872C51.8431 201.624 51.3391 202.208 50.6724 202.624C50.0111 203.035 49.2618 203.24 48.4244 203.24ZM45.1204 199.008V198.024H51.7204V199.008H45.1204ZM60.1334 203V198.592C60.1334 198.112 60.0881 197.672 59.9974 197.272C59.9068 196.867 59.7601 196.515 59.5574 196.216C59.3601 195.912 59.1014 195.677 58.7814 195.512C58.4668 195.347 58.0828 195.264 57.6294 195.264C57.2134 195.264 56.8454 195.336 56.5254 195.48C56.2108 195.624 55.9441 195.832 55.7254 196.104C55.5121 196.371 55.3494 196.696 55.2374 197.08C55.1254 197.464 55.0694 197.901 55.0694 198.392L54.2374 198.208C54.2374 197.323 54.3921 196.579 54.7014 195.976C55.0108 195.373 55.4374 194.917 55.9814 194.608C56.5254 194.299 57.1494 194.144 57.8534 194.144C58.3708 194.144 58.8214 194.224 59.2054 194.384C59.5948 194.544 59.9228 194.76 60.1894 195.032C60.4614 195.304 60.6801 195.616 60.8454 195.968C61.0108 196.315 61.1308 196.685 61.2054 197.08C61.2801 197.469 61.3174 197.859 61.3174 198.248V203H60.1334ZM53.8854 203V194.36H54.9494V196.488H55.0694V203H53.8854ZM68.0974 203C67.6121 203.101 67.1321 203.141 66.6574 203.12C66.1881 203.099 65.7668 202.997 65.3934 202.816C65.0254 202.635 64.7454 202.352 64.5534 201.968C64.3988 201.648 64.3134 201.325 64.2974 201C64.2868 200.669 64.2814 200.293 64.2814 199.872V191.96H65.4494V199.824C65.4494 200.187 65.4521 200.491 65.4574 200.736C65.4681 200.976 65.5241 201.189 65.6254 201.376C65.8174 201.733 66.1214 201.947 66.5374 202.016C66.9588 202.085 67.4788 202.069 68.0974 201.968V203ZM62.4334 195.368V194.36H68.0974V195.368H62.4334ZM69.7997 203V194.36H70.8557V196.44L70.6477 196.168C70.7437 195.912 70.869 195.677 71.0237 195.464C71.1784 195.245 71.3464 195.067 71.5277 194.928C71.7517 194.731 72.013 194.581 72.3117 194.48C72.6104 194.373 72.9117 194.312 73.2157 194.296C73.5197 194.275 73.797 194.296 74.0477 194.36V195.464C73.733 195.384 73.389 195.365 73.0157 195.408C72.6424 195.451 72.2984 195.6 71.9837 195.856C71.6957 196.08 71.4797 196.349 71.3357 196.664C71.1917 196.973 71.0957 197.304 71.0477 197.656C70.9997 198.003 70.9757 198.347 70.9757 198.688V203H69.7997ZM77.7092 203.24C77.0585 203.24 76.5119 203.123 76.0692 202.888C75.6319 202.653 75.3039 202.341 75.0852 201.952C74.8665 201.563 74.7572 201.139 74.7572 200.68C74.7572 200.211 74.8505 199.811 75.0372 199.48C75.2292 199.144 75.4879 198.869 75.8132 198.656C76.1439 198.443 76.5252 198.28 76.9572 198.168C77.3945 198.061 77.8772 197.968 78.4052 197.888C78.9385 197.803 79.4585 197.731 79.9652 197.672C80.4772 197.608 80.9252 197.547 81.3092 197.488L80.8932 197.744C80.9092 196.891 80.7439 196.259 80.3972 195.848C80.0505 195.437 79.4479 195.232 78.5892 195.232C77.9972 195.232 77.4959 195.365 77.0852 195.632C76.6799 195.899 76.3945 196.32 76.2292 196.896L75.0852 196.56C75.2825 195.787 75.6799 195.187 76.2772 194.76C76.8745 194.333 77.6505 194.12 78.6052 194.12C79.3945 194.12 80.0639 194.269 80.6132 194.568C81.1679 194.861 81.5599 195.288 81.7892 195.848C81.8959 196.099 81.9652 196.379 81.9972 196.688C82.0292 196.997 82.0452 197.312 82.0452 197.632V203H80.9972V200.832L81.3012 200.96C81.0079 201.701 80.5519 202.267 79.9332 202.656C79.3145 203.045 78.5732 203.24 77.7092 203.24ZM77.8452 202.224C78.3945 202.224 78.8745 202.125 79.2852 201.928C79.6959 201.731 80.0265 201.461 80.2772 201.12C80.5279 200.773 80.6905 200.384 80.7652 199.952C80.8292 199.675 80.8639 199.371 80.8692 199.04C80.8745 198.704 80.8772 198.453 80.8772 198.288L81.3252 198.52C80.9252 198.573 80.4905 198.627 80.0212 198.68C79.5572 198.733 79.0985 198.795 78.6452 198.864C78.1972 198.933 77.7919 199.016 77.4292 199.112C77.1839 199.181 76.9465 199.28 76.7172 199.408C76.4879 199.531 76.2985 199.696 76.1492 199.904C76.0052 200.112 75.9332 200.371 75.9332 200.68C75.9332 200.931 75.9945 201.173 76.1172 201.408C76.2452 201.643 76.4479 201.837 76.7252 201.992C77.0079 202.147 77.3812 202.224 77.8452 202.224ZM84.2878 203V191.24H85.4638V203H84.2878ZM88.0222 192.72V191.4H89.1982V192.72H88.0222ZM88.0222 203V194.36H89.1982V203H88.0222ZM90.7966 203V202.752L96.3726 195.456H91.2126V194.36H98.3086V194.632L92.7406 201.904H98.0046V203H90.7966ZM102.053 203.24C101.402 203.24 100.856 203.123 100.413 202.888C99.9756 202.653 99.6476 202.341 99.4289 201.952C99.2103 201.563 99.1009 201.139 99.1009 200.68C99.1009 200.211 99.1943 199.811 99.3809 199.48C99.5729 199.144 99.8316 198.869 100.157 198.656C100.488 198.443 100.869 198.28 101.301 198.168C101.738 198.061 102.221 197.968 102.749 197.888C103.282 197.803 103.802 197.731 104.309 197.672C104.821 197.608 105.269 197.547 105.653 197.488L105.237 197.744C105.253 196.891 105.088 196.259 104.741 195.848C104.394 195.437 103.792 195.232 102.933 195.232C102.341 195.232 101.84 195.365 101.429 195.632C101.024 195.899 100.738 196.32 100.573 196.896L99.4289 196.56C99.6263 195.787 100.024 195.187 100.621 194.76C101.218 194.333 101.994 194.12 102.949 194.12C103.738 194.12 104.408 194.269 104.957 194.568C105.512 194.861 105.904 195.288 106.133 195.848C106.24 196.099 106.309 196.379 106.341 196.688C106.373 196.997 106.389 197.312 106.389 197.632V203H105.341V200.832L105.645 200.96C105.352 201.701 104.896 202.267 104.277 202.656C103.658 203.045 102.917 203.24 102.053 203.24ZM102.189 202.224C102.738 202.224 103.218 202.125 103.629 201.928C104.04 201.731 104.37 201.461 104.621 201.12C104.872 200.773 105.034 200.384 105.109 199.952C105.173 199.675 105.208 199.371 105.213 199.04C105.218 198.704 105.221 198.453 105.221 198.288L105.669 198.52C105.269 198.573 104.834 198.627 104.365 198.68C103.901 198.733 103.442 198.795 102.989 198.864C102.541 198.933 102.136 199.016 101.773 199.112C101.528 199.181 101.29 199.28 101.061 199.408C100.832 199.531 100.642 199.696 100.493 199.904C100.349 200.112 100.277 200.371 100.277 200.68C100.277 200.931 100.338 201.173 100.461 201.408C100.589 201.643 100.792 201.837 101.069 201.992C101.352 202.147 101.725 202.224 102.189 202.224ZM113.176 203C112.69 203.101 112.21 203.141 111.736 203.12C111.266 203.099 110.845 202.997 110.472 202.816C110.104 202.635 109.824 202.352 109.632 201.968C109.477 201.648 109.392 201.325 109.376 201C109.365 200.669 109.36 200.293 109.36 199.872V191.96H110.528V199.824C110.528 200.187 110.53 200.491 110.536 200.736C110.546 200.976 110.602 201.189 110.704 201.376C110.896 201.733 111.2 201.947 111.616 202.016C112.037 202.085 112.557 202.069 113.176 201.968V203ZM107.512 195.368V194.36H113.176V195.368H107.512ZM115.038 192.72V191.4H116.214V192.72H115.038ZM115.038 203V194.36H116.214V203H115.038ZM122.22 203.24C121.362 203.24 120.628 203.045 120.02 202.656C119.412 202.267 118.946 201.728 118.62 201.04C118.295 200.352 118.132 199.563 118.132 198.672C118.132 197.765 118.298 196.971 118.628 196.288C118.959 195.605 119.428 195.075 120.036 194.696C120.65 194.312 121.378 194.12 122.22 194.12C123.084 194.12 123.82 194.315 124.428 194.704C125.042 195.088 125.508 195.624 125.828 196.312C126.154 196.995 126.316 197.781 126.316 198.672C126.316 199.579 126.154 200.376 125.828 201.064C125.503 201.747 125.034 202.28 124.42 202.664C123.807 203.048 123.074 203.24 122.22 203.24ZM122.22 202.112C123.18 202.112 123.895 201.795 124.364 201.16C124.834 200.52 125.068 199.691 125.068 198.672C125.068 197.627 124.831 196.795 124.356 196.176C123.887 195.557 123.175 195.248 122.22 195.248C121.575 195.248 121.042 195.395 120.62 195.688C120.204 195.976 119.892 196.379 119.684 196.896C119.482 197.408 119.38 198 119.38 198.672C119.38 199.712 119.62 200.547 120.1 201.176C120.58 201.8 121.287 202.112 122.22 202.112ZM134.321 203V198.592C134.321 198.112 134.276 197.672 134.185 197.272C134.094 196.867 133.948 196.515 133.745 196.216C133.548 195.912 133.289 195.677 132.969 195.512C132.654 195.347 132.27 195.264 131.817 195.264C131.401 195.264 131.033 195.336 130.713 195.48C130.398 195.624 130.132 195.832 129.913 196.104C129.7 196.371 129.537 196.696 129.425 197.08C129.313 197.464 129.257 197.901 129.257 198.392L128.425 198.208C128.425 197.323 128.58 196.579 128.889 195.976C129.198 195.373 129.625 194.917 130.169 194.608C130.713 194.299 131.337 194.144 132.041 194.144C132.558 194.144 133.009 194.224 133.393 194.384C133.782 194.544 134.11 194.76 134.377 195.032C134.649 195.304 134.868 195.616 135.033 195.968C135.198 196.315 135.318 196.685 135.393 197.08C135.468 197.469 135.505 197.859 135.505 198.248V203H134.321ZM128.073 203V194.36H129.137V196.488H129.257V203H128.073ZM145.488 203C145.003 203.101 144.523 203.141 144.048 203.12C143.579 203.099 143.157 202.997 142.784 202.816C142.416 202.635 142.136 202.352 141.944 201.968C141.789 201.648 141.704 201.325 141.688 201C141.677 200.669 141.672 200.293 141.672 199.872V191.96H142.84V199.824C142.84 200.187 142.843 200.491 142.848 200.736C142.859 200.976 142.915 201.189 143.016 201.376C143.208 201.733 143.512 201.947 143.928 202.016C144.349 202.085 144.869 202.069 145.488 201.968V203ZM139.824 195.368V194.36H145.488V195.368H139.824ZM153.43 203V198.592C153.43 198.112 153.385 197.672 153.294 197.272C153.204 196.867 153.057 196.515 152.854 196.216C152.657 195.912 152.398 195.677 152.078 195.512C151.764 195.347 151.38 195.264 150.926 195.264C150.51 195.264 150.142 195.336 149.822 195.48C149.508 195.624 149.241 195.832 149.022 196.104C148.809 196.371 148.646 196.696 148.534 197.08C148.422 197.464 148.366 197.901 148.366 198.392L147.534 198.208C147.534 197.323 147.689 196.579 147.998 195.976C148.308 195.373 148.734 194.917 149.278 194.608C149.822 194.299 150.446 194.144 151.15 194.144C151.668 194.144 152.118 194.224 152.502 194.384C152.892 194.544 153.22 194.76 153.486 195.032C153.758 195.304 153.977 195.616 154.142 195.968C154.308 196.315 154.428 196.685 154.502 197.08C154.577 197.469 154.614 197.859 154.614 198.248V203H153.43ZM147.182 203V191.48H148.246V197.984H148.366V203H147.182ZM159.162 203.24C158.512 203.24 157.965 203.123 157.522 202.888C157.085 202.653 156.757 202.341 156.538 201.952C156.32 201.563 156.21 201.139 156.21 200.68C156.21 200.211 156.304 199.811 156.49 199.48C156.682 199.144 156.941 198.869 157.266 198.656C157.597 198.443 157.978 198.28 158.41 198.168C158.848 198.061 159.33 197.968 159.858 197.888C160.392 197.803 160.912 197.731 161.418 197.672C161.93 197.608 162.378 197.547 162.762 197.488L162.346 197.744C162.362 196.891 162.197 196.259 161.85 195.848C161.504 195.437 160.901 195.232 160.042 195.232C159.45 195.232 158.949 195.365 158.538 195.632C158.133 195.899 157.848 196.32 157.682 196.896L156.538 196.56C156.736 195.787 157.133 195.187 157.73 194.76C158.328 194.333 159.104 194.12 160.058 194.12C160.848 194.12 161.517 194.269 162.066 194.568C162.621 194.861 163.013 195.288 163.242 195.848C163.349 196.099 163.418 196.379 163.45 196.688C163.482 196.997 163.498 197.312 163.498 197.632V203H162.45V200.832L162.754 200.96C162.461 201.701 162.005 202.267 161.386 202.656C160.768 203.045 160.026 203.24 159.162 203.24ZM159.298 202.224C159.848 202.224 160.328 202.125 160.738 201.928C161.149 201.731 161.48 201.461 161.73 201.12C161.981 200.773 162.144 200.384 162.218 199.952C162.282 199.675 162.317 199.371 162.322 199.04C162.328 198.704 162.33 198.453 162.33 198.288L162.778 198.52C162.378 198.573 161.944 198.627 161.474 198.68C161.01 198.733 160.552 198.795 160.098 198.864C159.65 198.933 159.245 199.016 158.882 199.112C158.637 199.181 158.4 199.28 158.17 199.408C157.941 199.531 157.752 199.696 157.602 199.904C157.458 200.112 157.386 200.371 157.386 200.68C157.386 200.931 157.448 201.173 157.57 201.408C157.698 201.643 157.901 201.837 158.178 201.992C158.461 202.147 158.834 202.224 159.298 202.224ZM170.285 203C169.8 203.101 169.32 203.141 168.845 203.12C168.376 203.099 167.954 202.997 167.581 202.816C167.213 202.635 166.933 202.352 166.741 201.968C166.586 201.648 166.501 201.325 166.485 201C166.474 200.669 166.469 200.293 166.469 199.872V191.96H167.637V199.824C167.637 200.187 167.64 200.491 167.645 200.736C167.656 200.976 167.712 201.189 167.813 201.376C168.005 201.733 168.309 201.947 168.725 202.016C169.146 202.085 169.666 202.069 170.285 201.968V203ZM164.621 195.368V194.36H170.285V195.368H164.621ZM179.07 203.24C178.276 203.24 177.604 203.04 177.054 202.64C176.505 202.235 176.089 201.688 175.806 201C175.524 200.307 175.382 199.531 175.382 198.672C175.382 197.797 175.524 197.019 175.806 196.336C176.094 195.648 176.516 195.107 177.07 194.712C177.625 194.317 178.308 194.12 179.118 194.12C179.908 194.12 180.585 194.32 181.15 194.72C181.716 195.12 182.148 195.664 182.446 196.352C182.75 197.04 182.902 197.813 182.902 198.672C182.902 199.536 182.75 200.312 182.446 201C182.142 201.688 181.705 202.235 181.134 202.64C180.564 203.04 179.876 203.24 179.07 203.24ZM175.182 203V191.48H176.366V196.496H176.238V203H175.182ZM178.95 202.144C179.553 202.144 180.054 201.992 180.454 201.688C180.854 201.384 181.153 200.971 181.35 200.448C181.553 199.92 181.654 199.328 181.654 198.672C181.654 198.021 181.556 197.435 181.358 196.912C181.161 196.389 180.86 195.976 180.454 195.672C180.054 195.368 179.545 195.216 178.926 195.216C178.324 195.216 177.822 195.363 177.422 195.656C177.028 195.949 176.732 196.357 176.534 196.88C176.337 197.397 176.238 197.995 176.238 198.672C176.238 199.339 176.337 199.936 176.534 200.464C176.732 200.987 177.03 201.397 177.43 201.696C177.83 201.995 178.337 202.144 178.95 202.144ZM188.267 203.24C187.408 203.24 186.675 203.045 186.067 202.656C185.459 202.267 184.992 201.728 184.667 201.04C184.342 200.352 184.179 199.563 184.179 198.672C184.179 197.765 184.344 196.971 184.675 196.288C185.006 195.605 185.475 195.075 186.083 194.696C186.696 194.312 187.424 194.12 188.267 194.12C189.131 194.12 189.867 194.315 190.475 194.704C191.088 195.088 191.555 195.624 191.875 196.312C192.2 196.995 192.363 197.781 192.363 198.672C192.363 199.579 192.2 200.376 191.875 201.064C191.55 201.747 191.08 202.28 190.467 202.664C189.854 203.048 189.12 203.24 188.267 203.24ZM188.267 202.112C189.227 202.112 189.942 201.795 190.411 201.16C190.88 200.52 191.115 199.691 191.115 198.672C191.115 197.627 190.878 196.795 190.403 196.176C189.934 195.557 189.222 195.248 188.267 195.248C187.622 195.248 187.088 195.395 186.667 195.688C186.251 195.976 185.939 196.379 185.731 196.896C185.528 197.408 185.427 198 185.427 198.672C185.427 199.712 185.667 200.547 186.147 201.176C186.627 201.8 187.334 202.112 188.267 202.112ZM197.736 203.24C196.877 203.24 196.144 203.045 195.536 202.656C194.928 202.267 194.461 201.728 194.136 201.04C193.81 200.352 193.648 199.563 193.648 198.672C193.648 197.765 193.813 196.971 194.144 196.288C194.474 195.605 194.944 195.075 195.552 194.696C196.165 194.312 196.893 194.12 197.736 194.12C198.6 194.12 199.336 194.315 199.944 194.704C200.557 195.088 201.024 195.624 201.344 196.312C201.669 196.995 201.832 197.781 201.832 198.672C201.832 199.579 201.669 200.376 201.344 201.064C201.018 201.747 200.549 202.28 199.936 202.664C199.322 203.048 198.589 203.24 197.736 203.24ZM197.736 202.112C198.696 202.112 199.41 201.795 199.88 201.16C200.349 200.52 200.584 199.691 200.584 198.672C200.584 197.627 200.346 196.795 199.872 196.176C199.402 195.557 198.69 195.248 197.736 195.248C197.09 195.248 196.557 195.395 196.136 195.688C195.72 195.976 195.408 196.379 195.2 196.896C194.997 197.408 194.896 198 194.896 198.672C194.896 199.712 195.136 200.547 195.616 201.176C196.096 201.8 196.802 202.112 197.736 202.112ZM206.742 203.232C205.729 203.232 204.894 203.013 204.238 202.576C203.588 202.139 203.188 201.531 203.038 200.752L204.238 200.552C204.366 201.043 204.657 201.435 205.11 201.728C205.569 202.016 206.134 202.16 206.806 202.16C207.462 202.16 207.98 202.024 208.358 201.752C208.737 201.475 208.926 201.099 208.926 200.624C208.926 200.357 208.865 200.141 208.742 199.976C208.625 199.805 208.382 199.648 208.014 199.504C207.646 199.36 207.097 199.189 206.366 198.992C205.582 198.779 204.969 198.565 204.526 198.352C204.084 198.139 203.769 197.893 203.582 197.616C203.396 197.333 203.302 196.989 203.302 196.584C203.302 196.093 203.441 195.664 203.718 195.296C203.996 194.923 204.38 194.635 204.87 194.432C205.361 194.224 205.932 194.12 206.582 194.12C207.233 194.12 207.814 194.227 208.326 194.44C208.844 194.648 209.26 194.941 209.574 195.32C209.889 195.699 210.076 196.139 210.134 196.64L208.934 196.856C208.854 196.349 208.601 195.949 208.174 195.656C207.753 195.357 207.217 195.203 206.566 195.192C205.953 195.176 205.454 195.293 205.07 195.544C204.686 195.789 204.494 196.117 204.494 196.528C204.494 196.757 204.564 196.955 204.702 197.12C204.841 197.28 205.092 197.432 205.454 197.576C205.822 197.72 206.345 197.877 207.022 198.048C207.817 198.251 208.441 198.464 208.894 198.688C209.348 198.912 209.67 199.176 209.862 199.48C210.054 199.784 210.15 200.16 210.15 200.608C210.15 201.424 209.846 202.067 209.238 202.536C208.636 203 207.804 203.232 206.742 203.232ZM216.629 203C216.143 203.101 215.663 203.141 215.189 203.12C214.719 203.099 214.298 202.997 213.925 202.816C213.557 202.635 213.277 202.352 213.085 201.968C212.93 201.648 212.845 201.325 212.829 201C212.818 200.669 212.813 200.293 212.813 199.872V191.96H213.981V199.824C213.981 200.187 213.983 200.491 213.989 200.736C213.999 200.976 214.055 201.189 214.157 201.376C214.349 201.733 214.653 201.947 215.069 202.016C215.49 202.085 216.01 202.069 216.629 201.968V203ZM210.965 195.368V194.36H216.629V195.368H210.965ZM221.555 203.232C220.542 203.232 219.707 203.013 219.051 202.576C218.4 202.139 218 201.531 217.851 200.752L219.051 200.552C219.179 201.043 219.47 201.435 219.923 201.728C220.382 202.016 220.947 202.16 221.619 202.16C222.275 202.16 222.792 202.024 223.171 201.752C223.55 201.475 223.739 201.099 223.739 200.624C223.739 200.357 223.678 200.141 223.555 199.976C223.438 199.805 223.195 199.648 222.827 199.504C222.459 199.36 221.91 199.189 221.179 198.992C220.395 198.779 219.782 198.565 219.339 198.352C218.896 198.139 218.582 197.893 218.395 197.616C218.208 197.333 218.115 196.989 218.115 196.584C218.115 196.093 218.254 195.664 218.531 195.296C218.808 194.923 219.192 194.635 219.683 194.432C220.174 194.224 220.744 194.12 221.395 194.12C222.046 194.12 222.627 194.227 223.139 194.44C223.656 194.648 224.072 194.941 224.387 195.32C224.702 195.699 224.888 196.139 224.947 196.64L223.747 196.856C223.667 196.349 223.414 195.949 222.987 195.656C222.566 195.357 222.03 195.203 221.379 195.192C220.766 195.176 220.267 195.293 219.883 195.544C219.499 195.789 219.307 196.117 219.307 196.528C219.307 196.757 219.376 196.955 219.515 197.12C219.654 197.28 219.904 197.432 220.267 197.576C220.635 197.72 221.158 197.877 221.835 198.048C222.63 198.251 223.254 198.464 223.707 198.688C224.16 198.912 224.483 199.176 224.675 199.48C224.867 199.784 224.963 200.16 224.963 200.608C224.963 201.424 224.659 202.067 224.051 202.536C223.448 203 222.616 203.232 221.555 203.232ZM233.164 203.232C232.151 203.232 231.316 203.013 230.66 202.576C230.01 202.139 229.61 201.531 229.46 200.752L230.66 200.552C230.788 201.043 231.079 201.435 231.532 201.728C231.991 202.016 232.556 202.16 233.228 202.16C233.884 202.16 234.402 202.024 234.78 201.752C235.159 201.475 235.348 201.099 235.348 200.624C235.348 200.357 235.287 200.141 235.164 199.976C235.047 199.805 234.804 199.648 234.436 199.504C234.068 199.36 233.519 199.189 232.788 198.992C232.004 198.779 231.391 198.565 230.948 198.352C230.506 198.139 230.191 197.893 230.004 197.616C229.818 197.333 229.724 196.989 229.724 196.584C229.724 196.093 229.863 195.664 230.14 195.296C230.418 194.923 230.802 194.635 231.292 194.432C231.783 194.224 232.354 194.12 233.004 194.12C233.655 194.12 234.236 194.227 234.748 194.44C235.266 194.648 235.682 194.941 235.996 195.32C236.311 195.699 236.498 196.139 236.556 196.64L235.356 196.856C235.276 196.349 235.023 195.949 234.596 195.656C234.175 195.357 233.639 195.203 232.988 195.192C232.375 195.176 231.876 195.293 231.492 195.544C231.108 195.789 230.916 196.117 230.916 196.528C230.916 196.757 230.986 196.955 231.124 197.12C231.263 197.28 231.514 197.432 231.876 197.576C232.244 197.72 232.767 197.877 233.444 198.048C234.239 198.251 234.863 198.464 235.316 198.688C235.77 198.912 236.092 199.176 236.284 199.48C236.476 199.784 236.572 200.16 236.572 200.608C236.572 201.424 236.268 202.067 235.66 202.536C235.058 203 234.226 203.232 233.164 203.232ZM242.003 203.24C241.16 203.24 240.429 203.053 239.811 202.68C239.197 202.307 238.72 201.781 238.379 201.104C238.037 200.427 237.867 199.632 237.867 198.72C237.867 197.776 238.035 196.96 238.371 196.272C238.707 195.584 239.179 195.053 239.787 194.68C240.4 194.307 241.123 194.12 241.955 194.12C242.808 194.12 243.536 194.317 244.139 194.712C244.741 195.101 245.197 195.661 245.507 196.392C245.816 197.123 245.957 197.995 245.931 199.008H244.731V198.592C244.709 197.472 244.467 196.627 244.003 196.056C243.544 195.485 242.872 195.2 241.987 195.2C241.059 195.2 240.347 195.501 239.851 196.104C239.36 196.707 239.115 197.565 239.115 198.68C239.115 199.768 239.36 200.613 239.851 201.216C240.347 201.813 241.048 202.112 241.955 202.112C242.573 202.112 243.112 201.971 243.571 201.688C244.035 201.4 244.4 200.987 244.667 200.448L245.763 200.872C245.421 201.624 244.917 202.208 244.251 202.624C243.589 203.035 242.84 203.24 242.003 203.24ZM238.699 199.008V198.024H245.299V199.008H238.699ZM251.29 203.24C250.421 203.24 249.685 203.045 249.082 202.656C248.479 202.267 248.021 201.731 247.706 201.048C247.397 200.36 247.237 199.571 247.226 198.68C247.237 197.773 247.402 196.979 247.722 196.296C248.042 195.608 248.503 195.075 249.106 194.696C249.709 194.312 250.439 194.12 251.298 194.12C252.173 194.12 252.933 194.333 253.578 194.76C254.229 195.187 254.674 195.771 254.914 196.512L253.762 196.88C253.559 196.363 253.237 195.963 252.794 195.68C252.357 195.392 251.855 195.248 251.29 195.248C250.655 195.248 250.13 195.395 249.714 195.688C249.298 195.976 248.989 196.379 248.786 196.896C248.583 197.413 248.479 198.008 248.474 198.68C248.485 199.715 248.725 200.547 249.194 201.176C249.663 201.8 250.362 202.112 251.29 202.112C251.877 202.112 252.375 201.979 252.786 201.712C253.202 201.44 253.517 201.045 253.73 200.528L254.914 200.88C254.594 201.648 254.125 202.235 253.506 202.64C252.887 203.04 252.149 203.24 251.29 203.24ZM259.869 203.216C259.352 203.216 258.899 203.136 258.509 202.976C258.125 202.816 257.797 202.6 257.525 202.328C257.259 202.056 257.043 201.747 256.877 201.4C256.712 201.048 256.592 200.677 256.517 200.288C256.443 199.893 256.405 199.501 256.405 199.112V194.36H257.589V198.768C257.589 199.243 257.635 199.683 257.725 200.088C257.816 200.493 257.96 200.848 258.157 201.152C258.36 201.451 258.619 201.683 258.933 201.848C259.253 202.013 259.64 202.096 260.093 202.096C260.509 202.096 260.875 202.024 261.189 201.88C261.509 201.736 261.776 201.531 261.989 201.264C262.208 200.992 262.373 200.664 262.485 200.28C262.597 199.891 262.653 199.453 262.653 198.968L263.485 199.152C263.485 200.037 263.331 200.781 263.021 201.384C262.712 201.987 262.285 202.443 261.741 202.752C261.197 203.061 260.573 203.216 259.869 203.216ZM262.773 203V200.872H262.653V194.36H263.829V203H262.773ZM266.065 203V194.36H267.121V196.44L266.913 196.168C267.009 195.912 267.135 195.677 267.289 195.464C267.444 195.245 267.612 195.067 267.793 194.928C268.017 194.731 268.279 194.581 268.577 194.48C268.876 194.373 269.177 194.312 269.481 194.296C269.785 194.275 270.063 194.296 270.313 194.36V195.464C269.999 195.384 269.655 195.365 269.281 195.408C268.908 195.451 268.564 195.6 268.249 195.856C267.961 196.08 267.745 196.349 267.601 196.664C267.457 196.973 267.361 197.304 267.313 197.656C267.265 198.003 267.241 198.347 267.241 198.688V203H266.065ZM271.991 192.72V191.4H273.167V192.72H271.991ZM271.991 203V194.36H273.167V203H271.991ZM280.269 203C279.784 203.101 279.304 203.141 278.829 203.12C278.36 203.099 277.939 202.997 277.565 202.816C277.197 202.635 276.917 202.352 276.725 201.968C276.571 201.648 276.485 201.325 276.469 201C276.459 200.669 276.453 200.293 276.453 199.872V191.96H277.621V199.824C277.621 200.187 277.624 200.491 277.629 200.736C277.64 200.976 277.696 201.189 277.797 201.376C277.989 201.733 278.293 201.947 278.709 202.016C279.131 202.085 279.651 202.069 280.269 201.968V203ZM274.605 195.368V194.36H280.269V195.368H274.605ZM282.969 206.84L284.641 202.304L284.665 203.648L280.881 194.36H282.129L285.233 202.128H284.721L287.585 194.36H288.785L284.145 206.84H282.969ZM295.85 203.24C295.199 203.24 294.652 203.123 294.21 202.888C293.772 202.653 293.444 202.341 293.226 201.952C293.007 201.563 292.898 201.139 292.898 200.68C292.898 200.211 292.991 199.811 293.178 199.48C293.37 199.144 293.628 198.869 293.954 198.656C294.284 198.443 294.666 198.28 295.098 198.168C295.535 198.061 296.018 197.968 296.546 197.888C297.079 197.803 297.599 197.731 298.106 197.672C298.618 197.608 299.066 197.547 299.45 197.488L299.034 197.744C299.05 196.891 298.884 196.259 298.538 195.848C298.191 195.437 297.588 195.232 296.73 195.232C296.138 195.232 295.636 195.365 295.226 195.632C294.82 195.899 294.535 196.32 294.37 196.896L293.226 196.56C293.423 195.787 293.82 195.187 294.418 194.76C295.015 194.333 295.791 194.12 296.746 194.12C297.535 194.12 298.204 194.269 298.754 194.568C299.308 194.861 299.7 195.288 299.93 195.848C300.036 196.099 300.106 196.379 300.138 196.688C300.17 196.997 300.186 197.312 300.186 197.632V203H299.138V200.832L299.442 200.96C299.148 201.701 298.692 202.267 298.074 202.656C297.455 203.045 296.714 203.24 295.85 203.24ZM295.986 202.224C296.535 202.224 297.015 202.125 297.426 201.928C297.836 201.731 298.167 201.461 298.418 201.12C298.668 200.773 298.831 200.384 298.906 199.952C298.97 199.675 299.004 199.371 299.01 199.04C299.015 198.704 299.018 198.453 299.018 198.288L299.466 198.52C299.066 198.573 298.631 198.627 298.162 198.68C297.698 198.733 297.239 198.795 296.786 198.864C296.338 198.933 295.932 199.016 295.57 199.112C295.324 199.181 295.087 199.28 294.858 199.408C294.628 199.531 294.439 199.696 294.29 199.904C294.146 200.112 294.074 200.371 294.074 200.68C294.074 200.931 294.135 201.173 294.258 201.408C294.386 201.643 294.588 201.837 294.866 201.992C295.148 202.147 295.522 202.224 295.986 202.224ZM308.508 203V198.592C308.508 198.112 308.463 197.672 308.372 197.272C308.282 196.867 308.135 196.515 307.932 196.216C307.735 195.912 307.476 195.677 307.156 195.512C306.842 195.347 306.458 195.264 306.004 195.264C305.588 195.264 305.22 195.336 304.9 195.48C304.586 195.624 304.319 195.832 304.1 196.104C303.887 196.371 303.724 196.696 303.612 197.08C303.5 197.464 303.444 197.901 303.444 198.392L302.612 198.208C302.612 197.323 302.767 196.579 303.076 195.976C303.386 195.373 303.812 194.917 304.356 194.608C304.9 194.299 305.524 194.144 306.228 194.144C306.746 194.144 307.196 194.224 307.58 194.384C307.97 194.544 308.298 194.76 308.564 195.032C308.836 195.304 309.055 195.616 309.22 195.968C309.386 196.315 309.506 196.685 309.58 197.08C309.655 197.469 309.692 197.859 309.692 198.248V203H308.508ZM302.26 203V194.36H303.324V196.488H303.444V203H302.26ZM315.074 203.24C314.268 203.24 313.58 203.04 313.01 202.64C312.439 202.235 312.002 201.688 311.698 201C311.394 200.312 311.242 199.536 311.242 198.672C311.242 197.813 311.391 197.04 311.69 196.352C311.994 195.664 312.428 195.12 312.994 194.72C313.559 194.32 314.236 194.12 315.026 194.12C315.836 194.12 316.519 194.317 317.074 194.712C317.628 195.107 318.047 195.648 318.33 196.336C318.618 197.019 318.762 197.797 318.762 198.672C318.762 199.531 318.62 200.307 318.338 201C318.055 201.688 317.639 202.235 317.09 202.64C316.54 203.04 315.868 203.24 315.074 203.24ZM315.194 202.144C315.807 202.144 316.314 201.995 316.714 201.696C317.114 201.397 317.412 200.987 317.61 200.464C317.807 199.936 317.906 199.339 317.906 198.672C317.906 197.995 317.807 197.397 317.61 196.88C317.412 196.357 317.114 195.949 316.714 195.656C316.319 195.363 315.82 195.216 315.218 195.216C314.599 195.216 314.087 195.368 313.682 195.672C313.276 195.976 312.975 196.389 312.778 196.912C312.586 197.435 312.49 198.021 312.49 198.672C312.49 199.328 312.588 199.92 312.786 200.448C312.988 200.971 313.29 201.384 313.69 201.688C314.09 201.992 314.591 202.144 315.194 202.144ZM317.906 203V196.496H317.778V191.48H318.962V203H317.906ZM63.5084 225V220.592C63.5084 220.112 63.4631 219.672 63.3724 219.272C63.2818 218.867 63.1351 218.515 62.9324 218.216C62.7351 217.912 62.4764 217.677 62.1564 217.512C61.8418 217.347 61.4578 217.264 61.0044 217.264C60.5884 217.264 60.2204 217.336 59.9004 217.48C59.5858 217.624 59.3191 217.832 59.1004 218.104C58.8871 218.371 58.7244 218.696 58.6124 219.08C58.5004 219.464 58.4444 219.901 58.4444 220.392L57.6124 220.208C57.6124 219.323 57.7671 218.579 58.0764 217.976C58.3858 217.373 58.8124 216.917 59.3564 216.608C59.9004 216.299 60.5244 216.144 61.2284 216.144C61.7458 216.144 62.1964 216.224 62.5804 216.384C62.9698 216.544 63.2978 216.76 63.5644 217.032C63.8364 217.304 64.0551 217.616 64.2204 217.968C64.3858 218.315 64.5058 218.685 64.5804 219.08C64.6551 219.469 64.6924 219.859 64.6924 220.248V225H63.5084ZM57.2604 225V213.48H58.3244V219.984H58.4444V225H57.2604ZM69.2404 225.24C68.5898 225.24 68.0431 225.123 67.6004 224.888C67.1631 224.653 66.8351 224.341 66.6164 223.952C66.3978 223.563 66.2884 223.139 66.2884 222.68C66.2884 222.211 66.3818 221.811 66.5684 221.48C66.7604 221.144 67.0191 220.869 67.3444 220.656C67.6751 220.443 68.0564 220.28 68.4884 220.168C68.9258 220.061 69.4084 219.968 69.9364 219.888C70.4698 219.803 70.9898 219.731 71.4964 219.672C72.0084 219.608 72.4564 219.547 72.8404 219.488L72.4244 219.744C72.4404 218.891 72.2751 218.259 71.9284 217.848C71.5818 217.437 70.9791 217.232 70.1204 217.232C69.5284 217.232 69.0271 217.365 68.6164 217.632C68.2111 217.899 67.9258 218.32 67.7604 218.896L66.6164 218.56C66.8138 217.787 67.2111 217.187 67.8084 216.76C68.4058 216.333 69.1818 216.12 70.1364 216.12C70.9258 216.12 71.5951 216.269 72.1444 216.568C72.6991 216.861 73.0911 217.288 73.3204 217.848C73.4271 218.099 73.4964 218.379 73.5284 218.688C73.5604 218.997 73.5764 219.312 73.5764 219.632V225H72.5284V222.832L72.8324 222.96C72.5391 223.701 72.0831 224.267 71.4644 224.656C70.8458 225.045 70.1044 225.24 69.2404 225.24ZM69.3764 224.224C69.9258 224.224 70.4058 224.125 70.8164 223.928C71.2271 223.731 71.5578 223.461 71.8084 223.12C72.0591 222.773 72.2218 222.384 72.2964 221.952C72.3604 221.675 72.3951 221.371 72.4004 221.04C72.4058 220.704 72.4084 220.453 72.4084 220.288L72.8564 220.52C72.4564 220.573 72.0218 220.627 71.5524 220.68C71.0884 220.733 70.6298 220.795 70.1764 220.864C69.7284 220.933 69.3231 221.016 68.9604 221.112C68.7151 221.181 68.4778 221.28 68.2484 221.408C68.0191 221.531 67.8298 221.696 67.6804 221.904C67.5364 222.112 67.4644 222.371 67.4644 222.68C67.4644 222.931 67.5258 223.173 67.6484 223.408C67.7764 223.643 67.9791 223.837 68.2564 223.992C68.5391 224.147 68.9124 224.224 69.3764 224.224ZM78.8831 225.232C77.8697 225.232 77.0351 225.013 76.3791 224.576C75.7284 224.139 75.3284 223.531 75.1791 222.752L76.3791 222.552C76.5071 223.043 76.7977 223.435 77.2511 223.728C77.7097 224.016 78.2751 224.16 78.9471 224.16C79.6031 224.16 80.1204 224.024 80.4991 223.752C80.8777 223.475 81.0671 223.099 81.0671 222.624C81.0671 222.357 81.0057 222.141 80.8831 221.976C80.7657 221.805 80.5231 221.648 80.1551 221.504C79.7871 221.36 79.2377 221.189 78.5071 220.992C77.7231 220.779 77.1097 220.565 76.6671 220.352C76.2244 220.139 75.9097 219.893 75.7231 219.616C75.5364 219.333 75.4431 218.989 75.4431 218.584C75.4431 218.093 75.5817 217.664 75.8591 217.296C76.1364 216.923 76.5204 216.635 77.0111 216.432C77.5017 216.224 78.0724 216.12 78.7231 216.12C79.3737 216.12 79.9551 216.227 80.4671 216.44C80.9844 216.648 81.4004 216.941 81.7151 217.32C82.0297 217.699 82.2164 218.139 82.2751 218.64L81.0751 218.856C80.9951 218.349 80.7417 217.949 80.3151 217.656C79.8937 217.357 79.3577 217.203 78.7071 217.192C78.0937 217.176 77.5951 217.293 77.2111 217.544C76.8271 217.789 76.6351 218.117 76.6351 218.528C76.6351 218.757 76.7044 218.955 76.8431 219.12C76.9817 219.28 77.2324 219.432 77.5951 219.576C77.9631 219.72 78.4857 219.877 79.1631 220.048C79.9577 220.251 80.5817 220.464 81.0351 220.688C81.4884 220.912 81.8111 221.176 82.0031 221.48C82.1951 221.784 82.2911 222.16 82.2911 222.608C82.2911 223.424 81.9871 224.067 81.3791 224.536C80.7764 225 79.9444 225.232 78.8831 225.232ZM89.7404 225.24C89.0898 225.24 88.5431 225.123 88.1004 224.888C87.6631 224.653 87.3351 224.341 87.1164 223.952C86.8978 223.563 86.7884 223.139 86.7884 222.68C86.7884 222.211 86.8818 221.811 87.0684 221.48C87.2604 221.144 87.5191 220.869 87.8444 220.656C88.1751 220.443 88.5564 220.28 88.9884 220.168C89.4258 220.061 89.9084 219.968 90.4364 219.888C90.9698 219.803 91.4898 219.731 91.9964 219.672C92.5084 219.608 92.9564 219.547 93.3404 219.488L92.9244 219.744C92.9404 218.891 92.7751 218.259 92.4284 217.848C92.0818 217.437 91.4791 217.232 90.6204 217.232C90.0284 217.232 89.5271 217.365 89.1164 217.632C88.7111 217.899 88.4258 218.32 88.2604 218.896L87.1164 218.56C87.3138 217.787 87.7111 217.187 88.3084 216.76C88.9058 216.333 89.6818 216.12 90.6364 216.12C91.4258 216.12 92.0951 216.269 92.6444 216.568C93.1991 216.861 93.5911 217.288 93.8204 217.848C93.9271 218.099 93.9964 218.379 94.0284 218.688C94.0604 218.997 94.0764 219.312 94.0764 219.632V225H93.0284V222.832L93.3324 222.96C93.0391 223.701 92.5831 224.267 91.9644 224.656C91.3458 225.045 90.6044 225.24 89.7404 225.24ZM89.8764 224.224C90.4258 224.224 90.9058 224.125 91.3164 223.928C91.7271 223.731 92.0578 223.461 92.3084 223.12C92.5591 222.773 92.7218 222.384 92.7964 221.952C92.8604 221.675 92.8951 221.371 92.9004 221.04C92.9058 220.704 92.9084 220.453 92.9084 220.288L93.3564 220.52C92.9564 220.573 92.5218 220.627 92.0524 220.68C91.5884 220.733 91.1298 220.795 90.6764 220.864C90.2284 220.933 89.8231 221.016 89.4604 221.112C89.2151 221.181 88.9778 221.28 88.7484 221.408C88.5191 221.531 88.3298 221.696 88.1804 221.904C88.0364 222.112 87.9644 222.371 87.9644 222.68C87.9644 222.931 88.0258 223.173 88.1484 223.408C88.2764 223.643 88.4791 223.837 88.7564 223.992C89.0391 224.147 89.4124 224.224 89.8764 224.224ZM109.666 225L109.674 219.328C109.674 218.661 109.488 218.139 109.114 217.76C108.746 217.376 108.277 217.184 107.706 217.184C107.381 217.184 107.064 217.259 106.754 217.408C106.445 217.557 106.189 217.797 105.986 218.128C105.789 218.459 105.69 218.891 105.69 219.424L104.994 219.224C104.978 218.605 105.098 218.064 105.354 217.6C105.616 217.136 105.973 216.776 106.426 216.52C106.885 216.259 107.402 216.128 107.978 216.128C108.848 216.128 109.544 216.397 110.066 216.936C110.589 217.469 110.85 218.192 110.85 219.104L110.842 225H109.666ZM99.3542 225V216.36H100.41V218.488H100.538V225H99.3542ZM104.522 225L104.53 219.408C104.53 218.72 104.346 218.179 103.978 217.784C103.616 217.384 103.136 217.184 102.538 217.184C101.941 217.184 101.458 217.389 101.09 217.8C100.722 218.205 100.538 218.747 100.538 219.424L99.8342 219.04C99.8342 218.485 99.9649 217.989 100.226 217.552C100.488 217.109 100.845 216.763 101.298 216.512C101.752 216.256 102.266 216.128 102.842 216.128C103.392 216.128 103.88 216.245 104.306 216.48C104.738 216.715 105.077 217.056 105.322 217.504C105.568 217.952 105.69 218.496 105.69 219.136L105.682 225H104.522ZM113.085 214.72V213.4H114.261V214.72H113.085ZM113.085 225V216.36H114.261V225H113.085ZM122.899 225V220.592C122.899 220.112 122.854 219.672 122.763 219.272C122.672 218.867 122.526 218.515 122.323 218.216C122.126 217.912 121.867 217.677 121.547 217.512C121.232 217.347 120.848 217.264 120.395 217.264C119.979 217.264 119.611 217.336 119.291 217.48C118.976 217.624 118.71 217.832 118.491 218.104C118.278 218.371 118.115 218.696 118.003 219.08C117.891 219.464 117.835 219.901 117.835 220.392L117.003 220.208C117.003 219.323 117.158 218.579 117.467 217.976C117.776 217.373 118.203 216.917 118.747 216.608C119.291 216.299 119.915 216.144 120.619 216.144C121.136 216.144 121.587 216.224 121.971 216.384C122.36 216.544 122.688 216.76 122.955 217.032C123.227 217.304 123.446 217.616 123.611 217.968C123.776 218.315 123.896 218.685 123.971 219.08C124.046 219.469 124.083 219.859 124.083 220.248V225H122.899ZM116.651 225V216.36H117.715V218.488H117.835V225H116.651ZM126.319 214.72V213.4H127.495V214.72H126.319ZM126.319 225V216.36H127.495V225H126.319ZM140.197 225L140.205 219.328C140.205 218.661 140.019 218.139 139.645 217.76C139.277 217.376 138.808 217.184 138.237 217.184C137.912 217.184 137.595 217.259 137.285 217.408C136.976 217.557 136.72 217.797 136.517 218.128C136.32 218.459 136.221 218.891 136.221 219.424L135.525 219.224C135.509 218.605 135.629 218.064 135.885 217.6C136.147 217.136 136.504 216.776 136.957 216.52C137.416 216.259 137.933 216.128 138.509 216.128C139.379 216.128 140.075 216.397 140.597 216.936C141.12 217.469 141.381 218.192 141.381 219.104L141.373 225H140.197ZM129.885 225V216.36H130.941V218.488H131.069V225H129.885ZM135.053 225L135.061 219.408C135.061 218.72 134.877 218.179 134.509 217.784C134.147 217.384 133.667 217.184 133.069 217.184C132.472 217.184 131.989 217.389 131.621 217.8C131.253 218.205 131.069 218.747 131.069 219.424L130.365 219.04C130.365 218.485 130.496 217.989 130.757 217.552C131.019 217.109 131.376 216.763 131.829 216.512C132.283 216.256 132.797 216.128 133.373 216.128C133.923 216.128 134.411 216.245 134.837 216.48C135.269 216.715 135.608 217.056 135.853 217.504C136.099 217.952 136.221 218.496 136.221 219.136L136.213 225H135.053ZM145.928 225.24C145.277 225.24 144.731 225.123 144.288 224.888C143.851 224.653 143.523 224.341 143.304 223.952C143.085 223.563 142.976 223.139 142.976 222.68C142.976 222.211 143.069 221.811 143.256 221.48C143.448 221.144 143.707 220.869 144.032 220.656C144.363 220.443 144.744 220.28 145.176 220.168C145.613 220.061 146.096 219.968 146.624 219.888C147.157 219.803 147.677 219.731 148.184 219.672C148.696 219.608 149.144 219.547 149.528 219.488L149.112 219.744C149.128 218.891 148.963 218.259 148.616 217.848C148.269 217.437 147.667 217.232 146.808 217.232C146.216 217.232 145.715 217.365 145.304 217.632C144.899 217.899 144.613 218.32 144.448 218.896L143.304 218.56C143.501 217.787 143.899 217.187 144.496 216.76C145.093 216.333 145.869 216.12 146.824 216.12C147.613 216.12 148.283 216.269 148.832 216.568C149.387 216.861 149.779 217.288 150.008 217.848C150.115 218.099 150.184 218.379 150.216 218.688C150.248 218.997 150.264 219.312 150.264 219.632V225H149.216V222.832L149.52 222.96C149.227 223.701 148.771 224.267 148.152 224.656C147.533 225.045 146.792 225.24 145.928 225.24ZM146.064 224.224C146.613 224.224 147.093 224.125 147.504 223.928C147.915 223.731 148.245 223.461 148.496 223.12C148.747 222.773 148.909 222.384 148.984 221.952C149.048 221.675 149.083 221.371 149.088 221.04C149.093 220.704 149.096 220.453 149.096 220.288L149.544 220.52C149.144 220.573 148.709 220.627 148.24 220.68C147.776 220.733 147.317 220.795 146.864 220.864C146.416 220.933 146.011 221.016 145.648 221.112C145.403 221.181 145.165 221.28 144.936 221.408C144.707 221.531 144.517 221.696 144.368 221.904C144.224 222.112 144.152 222.371 144.152 222.68C144.152 222.931 144.213 223.173 144.336 223.408C144.464 223.643 144.667 223.837 144.944 223.992C145.227 224.147 145.6 224.224 146.064 224.224ZM152.507 225V213.24H153.683V225H152.507ZM162.868 225.24C161.999 225.24 161.263 225.045 160.66 224.656C160.057 224.267 159.599 223.731 159.284 223.048C158.975 222.36 158.815 221.571 158.804 220.68C158.815 219.773 158.98 218.979 159.3 218.296C159.62 217.608 160.081 217.075 160.684 216.696C161.287 216.312 162.017 216.12 162.876 216.12C163.751 216.12 164.511 216.333 165.156 216.76C165.807 217.187 166.252 217.771 166.492 218.512L165.34 218.88C165.137 218.363 164.815 217.963 164.372 217.68C163.935 217.392 163.433 217.248 162.868 217.248C162.233 217.248 161.708 217.395 161.292 217.688C160.876 217.976 160.567 218.379 160.364 218.896C160.161 219.413 160.057 220.008 160.052 220.68C160.063 221.715 160.303 222.547 160.772 223.176C161.241 223.8 161.94 224.112 162.868 224.112C163.455 224.112 163.953 223.979 164.364 223.712C164.78 223.44 165.095 223.045 165.308 222.528L166.492 222.88C166.172 223.648 165.703 224.235 165.084 224.64C164.465 225.04 163.727 225.24 162.868 225.24ZM170.569 225.24C169.918 225.24 169.371 225.123 168.929 224.888C168.491 224.653 168.163 224.341 167.945 223.952C167.726 223.563 167.617 223.139 167.617 222.68C167.617 222.211 167.71 221.811 167.897 221.48C168.089 221.144 168.347 220.869 168.673 220.656C169.003 220.443 169.385 220.28 169.817 220.168C170.254 220.061 170.737 219.968 171.265 219.888C171.798 219.803 172.318 219.731 172.825 219.672C173.337 219.608 173.785 219.547 174.169 219.488L173.753 219.744C173.769 218.891 173.603 218.259 173.257 217.848C172.91 217.437 172.307 217.232 171.449 217.232C170.857 217.232 170.355 217.365 169.945 217.632C169.539 217.899 169.254 218.32 169.089 218.896L167.945 218.56C168.142 217.787 168.539 217.187 169.137 216.76C169.734 216.333 170.51 216.12 171.465 216.12C172.254 216.12 172.923 216.269 173.473 216.568C174.027 216.861 174.419 217.288 174.649 217.848C174.755 218.099 174.825 218.379 174.857 218.688C174.889 218.997 174.905 219.312 174.905 219.632V225H173.857V222.832L174.161 222.96C173.867 223.701 173.411 224.267 172.793 224.656C172.174 225.045 171.433 225.24 170.569 225.24ZM170.705 224.224C171.254 224.224 171.734 224.125 172.145 223.928C172.555 223.731 172.886 223.461 173.137 223.12C173.387 222.773 173.55 222.384 173.625 221.952C173.689 221.675 173.723 221.371 173.729 221.04C173.734 220.704 173.737 220.453 173.737 220.288L174.185 220.52C173.785 220.573 173.35 220.627 172.881 220.68C172.417 220.733 171.958 220.795 171.505 220.864C171.057 220.933 170.651 221.016 170.289 221.112C170.043 221.181 169.806 221.28 169.577 221.408C169.347 221.531 169.158 221.696 169.009 221.904C168.865 222.112 168.793 222.371 168.793 222.68C168.793 222.931 168.854 223.173 168.977 223.408C169.105 223.643 169.307 223.837 169.585 223.992C169.867 224.147 170.241 224.224 170.705 224.224ZM176.987 225V216.36H178.043V218.44L177.835 218.168C177.931 217.912 178.057 217.677 178.211 217.464C178.366 217.245 178.534 217.067 178.715 216.928C178.939 216.731 179.201 216.581 179.499 216.48C179.798 216.373 180.099 216.312 180.403 216.296C180.707 216.275 180.985 216.296 181.235 216.36V217.464C180.921 217.384 180.577 217.365 180.203 217.408C179.83 217.451 179.486 217.6 179.171 217.856C178.883 218.08 178.667 218.349 178.523 218.664C178.379 218.973 178.283 219.304 178.235 219.656C178.187 220.003 178.163 220.347 178.163 220.688V225H176.987ZM186.633 225.24C185.838 225.24 185.166 225.04 184.617 224.64C184.067 224.235 183.651 223.688 183.369 223C183.086 222.307 182.945 221.531 182.945 220.672C182.945 219.797 183.086 219.019 183.369 218.336C183.657 217.648 184.078 217.107 184.633 216.712C185.187 216.317 185.87 216.12 186.681 216.12C187.47 216.12 188.147 216.32 188.713 216.72C189.278 217.12 189.71 217.664 190.009 218.352C190.313 219.04 190.465 219.813 190.465 220.672C190.465 221.536 190.313 222.312 190.009 223C189.705 223.688 189.267 224.235 188.697 224.64C188.126 225.04 187.438 225.24 186.633 225.24ZM182.745 225V213.48H183.929V218.496H183.801V225H182.745ZM186.513 224.144C187.115 224.144 187.617 223.992 188.017 223.688C188.417 223.384 188.715 222.971 188.913 222.448C189.115 221.92 189.217 221.328 189.217 220.672C189.217 220.021 189.118 219.435 188.921 218.912C188.723 218.389 188.422 217.976 188.017 217.672C187.617 217.368 187.107 217.216 186.489 217.216C185.886 217.216 185.385 217.363 184.985 217.656C184.59 217.949 184.294 218.357 184.097 218.88C183.899 219.397 183.801 219.995 183.801 220.672C183.801 221.339 183.899 221.936 184.097 222.464C184.294 222.987 184.593 223.397 184.993 223.696C185.393 223.995 185.899 224.144 186.513 224.144ZM195.83 225.24C194.971 225.24 194.238 225.045 193.63 224.656C193.022 224.267 192.555 223.728 192.23 223.04C191.904 222.352 191.742 221.563 191.742 220.672C191.742 219.765 191.907 218.971 192.238 218.288C192.568 217.605 193.038 217.075 193.646 216.696C194.259 216.312 194.987 216.12 195.83 216.12C196.694 216.12 197.43 216.315 198.038 216.704C198.651 217.088 199.118 217.624 199.438 218.312C199.763 218.995 199.926 219.781 199.926 220.672C199.926 221.579 199.763 222.376 199.438 223.064C199.112 223.747 198.643 224.28 198.03 224.664C197.416 225.048 196.683 225.24 195.83 225.24ZM195.83 224.112C196.79 224.112 197.504 223.795 197.974 223.16C198.443 222.52 198.678 221.691 198.678 220.672C198.678 219.627 198.44 218.795 197.966 218.176C197.496 217.557 196.784 217.248 195.83 217.248C195.184 217.248 194.651 217.395 194.23 217.688C193.814 217.976 193.502 218.379 193.294 218.896C193.091 219.408 192.99 220 192.99 220.672C192.99 221.712 193.23 222.547 193.71 223.176C194.19 223.8 194.896 224.112 195.83 224.112ZM207.93 225V220.592C207.93 220.112 207.885 219.672 207.794 219.272C207.704 218.867 207.557 218.515 207.354 218.216C207.157 217.912 206.898 217.677 206.578 217.512C206.264 217.347 205.88 217.264 205.426 217.264C205.01 217.264 204.642 217.336 204.322 217.48C204.008 217.624 203.741 217.832 203.522 218.104C203.309 218.371 203.146 218.696 203.034 219.08C202.922 219.464 202.866 219.901 202.866 220.392L202.034 220.208C202.034 219.323 202.189 218.579 202.498 217.976C202.808 217.373 203.234 216.917 203.778 216.608C204.322 216.299 204.946 216.144 205.65 216.144C206.168 216.144 206.618 216.224 207.002 216.384C207.392 216.544 207.72 216.76 207.986 217.032C208.258 217.304 208.477 217.616 208.642 217.968C208.808 218.315 208.928 218.685 209.002 219.08C209.077 219.469 209.114 219.859 209.114 220.248V225H207.93ZM201.682 225V216.36H202.746V218.488H202.866V225H201.682ZM215.249 225V215.72C215.249 215.496 215.26 215.275 215.281 215.056C215.308 214.837 215.359 214.629 215.433 214.432C215.508 214.229 215.625 214.043 215.785 213.872C215.961 213.68 216.153 213.541 216.361 213.456C216.569 213.365 216.785 213.307 217.009 213.28C217.239 213.253 217.463 213.24 217.681 213.24H218.785V214.232H217.761C217.313 214.232 216.977 214.341 216.753 214.56C216.535 214.779 216.425 215.123 216.425 215.592V225H215.249ZM213.753 217.368V216.36H218.785V217.368H213.753ZM223.361 225.24C222.502 225.24 221.769 225.045 221.161 224.656C220.553 224.267 220.086 223.728 219.761 223.04C219.435 222.352 219.273 221.563 219.273 220.672C219.273 219.765 219.438 218.971 219.769 218.288C220.099 217.605 220.569 217.075 221.177 216.696C221.79 216.312 222.518 216.12 223.361 216.12C224.225 216.12 224.961 216.315 225.569 216.704C226.182 217.088 226.649 217.624 226.969 218.312C227.294 218.995 227.457 219.781 227.457 220.672C227.457 221.579 227.294 222.376 226.969 223.064C226.643 223.747 226.174 224.28 225.561 224.664C224.947 225.048 224.214 225.24 223.361 225.24ZM223.361 224.112C224.321 224.112 225.035 223.795 225.505 223.16C225.974 222.52 226.209 221.691 226.209 220.672C226.209 219.627 225.971 218.795 225.497 218.176C225.027 217.557 224.315 217.248 223.361 217.248C222.715 217.248 222.182 217.395 221.761 217.688C221.345 217.976 221.033 218.379 220.825 218.896C220.622 219.408 220.521 220 220.521 220.672C220.521 221.712 220.761 222.547 221.241 223.176C221.721 223.8 222.427 224.112 223.361 224.112ZM232.83 225.24C231.971 225.24 231.238 225.045 230.63 224.656C230.022 224.267 229.555 223.728 229.23 223.04C228.904 222.352 228.742 221.563 228.742 220.672C228.742 219.765 228.907 218.971 229.238 218.288C229.568 217.605 230.038 217.075 230.646 216.696C231.259 216.312 231.987 216.12 232.83 216.12C233.694 216.12 234.43 216.315 235.038 216.704C235.651 217.088 236.118 217.624 236.438 218.312C236.763 218.995 236.926 219.781 236.926 220.672C236.926 221.579 236.763 222.376 236.438 223.064C236.112 223.747 235.643 224.28 235.03 224.664C234.416 225.048 233.683 225.24 232.83 225.24ZM232.83 224.112C233.79 224.112 234.504 223.795 234.974 223.16C235.443 222.52 235.678 221.691 235.678 220.672C235.678 219.627 235.44 218.795 234.966 218.176C234.496 217.557 233.784 217.248 232.83 217.248C232.184 217.248 231.651 217.395 231.23 217.688C230.814 217.976 230.502 218.379 230.294 218.896C230.091 219.408 229.99 220 229.99 220.672C229.99 221.712 230.23 222.547 230.71 223.176C231.19 223.8 231.896 224.112 232.83 224.112ZM243.394 225C242.909 225.101 242.429 225.141 241.954 225.12C241.485 225.099 241.064 224.997 240.69 224.816C240.322 224.635 240.042 224.352 239.85 223.968C239.696 223.648 239.61 223.325 239.594 223C239.584 222.669 239.578 222.293 239.578 221.872V213.96H240.746V221.824C240.746 222.187 240.749 222.491 240.754 222.736C240.765 222.976 240.821 223.189 240.922 223.376C241.114 223.733 241.418 223.947 241.834 224.016C242.256 224.085 242.776 224.069 243.394 223.968V225ZM237.73 217.368V216.36H243.394V217.368H237.73ZM248.977 225.24C248.182 225.24 247.51 225.04 246.961 224.64C246.411 224.235 245.995 223.688 245.713 223C245.43 222.307 245.289 221.531 245.289 220.672C245.289 219.797 245.43 219.019 245.713 218.336C246.001 217.648 246.422 217.107 246.977 216.712C247.531 216.317 248.214 216.12 249.025 216.12C249.814 216.12 250.491 216.32 251.057 216.72C251.622 217.12 252.054 217.664 252.353 218.352C252.657 219.04 252.809 219.813 252.809 220.672C252.809 221.536 252.657 222.312 252.353 223C252.049 223.688 251.611 224.235 251.041 224.64C250.47 225.04 249.782 225.24 248.977 225.24ZM245.089 228.84V216.36H246.145V222.864H246.273V228.84H245.089ZM248.857 224.144C249.459 224.144 249.961 223.992 250.361 223.688C250.761 223.384 251.059 222.971 251.257 222.448C251.459 221.92 251.561 221.328 251.561 220.672C251.561 220.021 251.462 219.435 251.265 218.912C251.067 218.389 250.766 217.976 250.361 217.672C249.961 217.368 249.451 217.216 248.833 217.216C248.23 217.216 247.729 217.363 247.329 217.656C246.934 217.949 246.638 218.357 246.441 218.88C246.243 219.397 246.145 219.995 246.145 220.672C246.145 221.339 246.243 221.936 246.441 222.464C246.638 222.987 246.937 223.397 247.337 223.696C247.737 223.995 248.243 224.144 248.857 224.144ZM254.565 225V216.36H255.621V218.44L255.413 218.168C255.509 217.912 255.635 217.677 255.789 217.464C255.944 217.245 256.112 217.067 256.293 216.928C256.517 216.731 256.779 216.581 257.077 216.48C257.376 216.373 257.677 216.312 257.981 216.296C258.285 216.275 258.563 216.296 258.813 216.36V217.464C258.499 217.384 258.155 217.365 257.781 217.408C257.408 217.451 257.064 217.6 256.749 217.856C256.461 218.08 256.245 218.349 256.101 218.664C255.957 218.973 255.861 219.304 255.813 219.656C255.765 220.003 255.741 220.347 255.741 220.688V225H254.565ZM260.491 214.72V213.4H261.667V214.72H260.491ZM260.491 225V216.36H261.667V225H260.491ZM270.305 225V220.592C270.305 220.112 270.26 219.672 270.169 219.272C270.079 218.867 269.932 218.515 269.729 218.216C269.532 217.912 269.273 217.677 268.953 217.512C268.639 217.347 268.255 217.264 267.801 217.264C267.385 217.264 267.017 217.336 266.697 217.48C266.383 217.624 266.116 217.832 265.897 218.104C265.684 218.371 265.521 218.696 265.409 219.08C265.297 219.464 265.241 219.901 265.241 220.392L264.409 220.208C264.409 219.323 264.564 218.579 264.873 217.976C265.183 217.373 265.609 216.917 266.153 216.608C266.697 216.299 267.321 216.144 268.025 216.144C268.543 216.144 268.993 216.224 269.377 216.384C269.767 216.544 270.095 216.76 270.361 217.032C270.633 217.304 270.852 217.616 271.017 217.968C271.183 218.315 271.303 218.685 271.377 219.08C271.452 219.469 271.489 219.859 271.489 220.248V225H270.305ZM264.057 225V216.36H265.121V218.488H265.241V225H264.057ZM278.269 225C277.784 225.101 277.304 225.141 276.829 225.12C276.36 225.099 275.939 224.997 275.565 224.816C275.197 224.635 274.917 224.352 274.725 223.968C274.571 223.648 274.485 223.325 274.469 223C274.459 222.669 274.453 222.293 274.453 221.872V213.96H275.621V221.824C275.621 222.187 275.624 222.491 275.629 222.736C275.64 222.976 275.696 223.189 275.797 223.376C275.989 223.733 276.293 223.947 276.709 224.016C277.131 224.085 277.651 224.069 278.269 223.968V225ZM272.605 217.368V216.36H278.269V217.368H272.605Z" fill="#3C3F34"/>
<g filter="url(#filter1_d_737_334)">
<circle cx="168.5" cy="71.5" r="51.5" fill="white"/>
</g>
<g filter="url(#filter2_d_737_334)">
<circle cx="168.5" cy="71.5001" r="43.775" fill="white"/>
</g>
<path d="M185.63 58.1784C185.061 57.487 184.524 56.8343 184.267 56.2155C183.991 55.5507 183.904 54.6764 183.805 53.7524C183.647 52.2218 183.467 50.4829 182.292 49.3119C181.118 48.1409 179.386 47.9569 177.852 47.7982C176.927 47.7026 176.054 47.6118 175.388 47.3369C174.77 47.0802 174.116 46.5425 173.425 45.9734C172.214 44.978 170.845 43.8506 169.11 43.8506C167.375 43.8506 166.004 44.978 164.794 45.9734C164.103 46.5425 163.45 47.0802 162.831 47.3369C162.167 47.6118 161.292 47.7002 160.368 47.7982C158.838 47.9569 157.099 48.1361 155.928 49.3107C154.757 50.4853 154.573 52.217 154.414 53.7524C154.319 54.6764 154.228 55.5507 153.953 56.2155C153.696 56.8343 153.158 57.487 152.589 58.1784C151.595 59.3893 150.468 60.7577 150.468 62.4942C150.468 64.2307 151.595 65.6002 152.589 66.8088C153.158 67.5002 153.696 68.1541 153.953 68.7717C154.228 69.4365 154.316 70.3108 154.414 71.2359C154.573 72.7666 154.752 74.5055 155.928 75.6764C157.104 76.8474 158.834 77.0303 160.368 77.1889C161.292 77.2846 162.167 77.3754 162.831 77.6515C163.45 77.907 164.103 78.4446 164.794 79.0138C166.005 80.0092 167.375 81.1366 169.11 81.1366C170.845 81.1366 172.216 80.0092 173.425 79.0138C174.116 78.4446 174.77 77.907 175.388 77.6515C176.054 77.3754 176.927 77.2882 177.852 77.1889C179.383 77.0315 181.121 76.8511 182.292 75.6764C183.463 74.5018 183.647 72.7702 183.805 71.2359C183.901 70.3108 183.991 69.4377 184.267 68.7717C184.524 68.1541 185.061 67.5002 185.63 66.8088C186.625 65.5978 187.753 64.2295 187.753 62.4942C187.753 60.7589 186.625 59.3881 185.63 58.1784ZM183.947 65.4234C183.301 66.2081 182.634 67.0195 182.251 67.9373C181.854 68.8964 181.743 69.9717 181.635 71.0107C181.502 72.2943 181.377 73.5064 180.748 74.1349C180.12 74.7634 178.908 74.8881 177.624 75.0213C176.585 75.1291 175.51 75.2405 174.551 75.6377C173.633 76.0179 172.822 76.6852 172.038 77.333C171.021 78.1698 170.062 78.9593 169.108 78.9593C168.154 78.9593 167.193 78.1698 166.177 77.333C165.393 76.6876 164.581 76.0204 163.665 75.6377C162.706 75.2405 161.63 75.1291 160.59 75.0213C159.306 74.8881 158.094 74.7634 157.466 74.1349C156.837 73.5064 156.713 72.2943 156.581 71.0107C156.473 69.9717 156.361 68.8964 155.963 67.9373C155.583 67.0195 154.916 66.2081 154.268 65.4234C153.437 64.4075 152.652 63.4484 152.652 62.4942C152.652 61.54 153.442 60.5797 154.277 59.5637C154.923 58.779 155.59 57.9677 155.973 57.0498C156.371 56.092 156.483 55.0166 156.59 53.9764C156.722 52.6929 156.848 51.4807 157.477 50.8522C158.105 50.2238 159.312 50.099 160.592 49.961C161.633 49.8593 162.703 49.7479 163.672 49.3555C164.589 48.9753 165.4 48.308 166.185 47.6602C167.201 46.8246 168.161 46.0339 169.115 46.0339C170.069 46.0339 171.028 46.8246 172.045 47.6602C172.829 48.3056 173.64 48.9729 174.558 49.3555C175.517 49.7539 176.593 49.8653 177.632 49.9719C178.915 50.1051 180.127 50.231 180.756 50.8583C181.384 51.4855 181.509 52.6989 181.642 53.9825C181.75 55.0227 181.861 56.098 182.259 57.0559C182.639 57.9737 183.306 58.7851 183.954 59.5698C184.791 60.5857 185.58 61.546 185.58 62.5002C185.58 63.4545 184.783 64.4075 183.947 65.4234Z" fill="url(#paint0_linear_737_334)"/>
<path d="M169.363 52.4761C167.33 52.4758 165.343 53.0785 163.652 54.2079C161.961 55.3373 160.643 56.9427 159.865 58.821C159.087 60.6994 158.883 62.7663 159.28 64.7604C159.676 66.7546 160.655 68.5863 162.093 70.0241C163.53 71.4619 165.362 72.441 167.356 72.8378C169.35 73.2345 171.417 73.031 173.296 72.253C175.174 71.475 176.78 70.1574 177.909 68.4669C179.039 66.7764 179.642 64.7889 179.642 62.7557C179.642 60.0296 178.559 57.4151 176.631 55.4873C174.704 53.5596 172.089 52.4764 169.363 52.4761ZM174.908 60.6705C171.005 62.6673 168.501 66.8778 168.476 66.9201C168.376 67.0896 168.239 67.2336 168.074 67.341C167.91 67.4484 167.723 67.5161 167.527 67.5389C167.478 67.5447 167.429 67.5476 167.38 67.5474C167.208 67.5474 167.038 67.5126 166.881 67.4452C166.723 67.3777 166.58 67.2791 166.462 67.1551L163.625 64.1919C163.509 64.071 163.419 63.9286 163.358 63.7728C163.298 63.6169 163.269 63.4507 163.273 63.2836C163.276 63.1165 163.313 62.9518 163.381 62.7989C163.448 62.646 163.545 62.5079 163.666 62.3924C163.787 62.277 163.929 62.1865 164.085 62.1261C164.241 62.0657 164.407 62.0365 164.574 62.0403C164.741 62.0442 164.906 62.0809 165.059 62.1483C165.212 62.2158 165.35 62.3128 165.465 62.4336L167.211 64.2573C168.398 62.6395 170.673 59.9827 173.75 58.406C173.899 58.3299 174.061 58.2839 174.228 58.2705C174.394 58.2571 174.562 58.2766 174.721 58.3279C174.88 58.3793 175.027 58.4614 175.154 58.5696C175.281 58.6779 175.386 58.8101 175.462 58.9588C175.538 59.1075 175.584 59.2697 175.598 59.4362C175.611 59.6027 175.592 59.7702 175.54 59.9291C175.489 60.0881 175.407 60.2354 175.299 60.3626C175.19 60.4898 175.058 60.5944 174.909 60.6705H174.908Z" fill="url(#paint1_linear_737_334)"/>
<path d="M179.502 83.4519C177.251 83.3441 173.029 83.5984 170.02 86.4998C169.707 86.8028 169.416 87.1264 169.148 87.4686C168.879 87.1264 168.588 86.8028 168.276 86.4998C165.267 83.5936 161.043 83.3441 158.793 83.4519C158.071 83.4836 157.387 83.7847 156.876 84.2957C156.365 84.8068 156.064 85.4908 156.032 86.2128C155.925 88.4616 156.179 92.6853 159.08 95.6945C161.172 97.8645 164.224 98.9943 168.162 99.0548C168.276 99.0548 170.43 99.0548 170.739 99.0379C174.385 98.8744 177.233 97.7531 179.215 95.6945C182.122 92.6853 182.371 88.4616 182.265 86.2128C182.233 85.4906 181.932 84.8064 181.42 84.2953C180.909 83.7843 180.225 83.4833 179.502 83.4519ZM165.544 91.9805L164.871 94.0149C164.975 94.0512 166.996 94.7633 168.026 96.8715C164.777 96.7928 162.295 95.8895 160.649 94.182C158.316 91.7602 158.118 88.2145 158.209 86.3109C158.217 86.1312 158.292 85.961 158.42 85.8339C158.547 85.7068 158.717 85.632 158.897 85.6243C160.795 85.5335 164.346 85.7309 166.768 88.0644C168.403 89.6386 169.299 91.9818 169.442 95.0309C168.488 93.6371 167.126 92.5718 165.544 91.9805ZM177.645 94.1784C176.227 95.6509 174.184 96.524 171.565 96.7868C171.611 96.5832 171.635 96.3754 171.637 96.1668C171.665 93.5645 171.246 91.3315 170.388 89.4872C170.71 88.9685 171.094 88.4911 171.532 88.0656C173.675 85.9997 176.7 85.6086 178.684 85.6086C178.941 85.6086 179.18 85.6086 179.398 85.6255C179.578 85.6332 179.748 85.708 179.876 85.8351C180.003 85.9622 180.078 86.1324 180.086 86.3121C180.176 88.2145 179.98 91.7614 177.645 94.182V94.1784Z" fill="url(#paint2_linear_737_334)"/>
</g>
<defs>
<filter id="filter0_d_737_334" x="12.0341" y="20" width="310.927" height="216.84" filterUnits="userSpaceOnUse" color-interpolation-filters="sRGB">
<feFlood flood-opacity="0" result="BackgroundImageFix"/>
<feColorMatrix in="SourceAlpha" type="matrix" values="0 0 0 0 0 0 0 0 0 0 0 0 0 0 0 0 0 0 127 0" result="hardAlpha"/>
<feOffset dy="4"/>
<feGaussianBlur stdDeviation="2"/>
<feComposite in2="hardAlpha" operator="out"/>
<feColorMatrix type="matrix" values="0 0 0 0 0 0 0 0 0 0 0 0 0 0 0 0 0 0 0.25 0"/>
<feBlend mode="normal" in2="BackgroundImageFix" result="effect1_dropShadow_737_334"/>
<feBlend mode="normal" in="SourceGraphic" in2="effect1_dropShadow_737_334" result="shape"/>
</filter>
<filter id="filter1_d_737_334" x="87" y="0" width="163" height="163" filterUnits="userSpaceOnUse" color-interpolation-filters="sRGB">
<feFlood flood-opacity="0" result="BackgroundImageFix"/>
<feColorMatrix in="SourceAlpha" type="matrix" values="0 0 0 0 0 0 0 0 0 0 0 0 0 0 0 0 0 0 127 0" result="hardAlpha"/>
<feOffset dy="10"/>
<feGaussianBlur stdDeviation="15"/>
<feComposite in2="hardAlpha" operator="out"/>
<feColorMatrix type="matrix" values="0 0 0 0 0.633333 0 0 0 0 0.633333 0 0 0 0 0.633333 0 0 0 0.25 0"/>
<feBlend mode="normal" in2="BackgroundImageFix" result="effect1_dropShadow_737_334"/>
<feBlend mode="normal" in="SourceGraphic" in2="effect1_dropShadow_737_334" result="shape"/>
</filter>
<filter id="filter2_d_737_334" x="94.7251" y="7.7251" width="147.55" height="147.55" filterUnits="userSpaceOnUse" color-interpolation-filters="sRGB">
<feFlood flood-opacity="0" result="BackgroundImageFix"/>
<feColorMatrix in="SourceAlpha" type="matrix" values="0 0 0 0 0 0 0 0 0 0 0 0 0 0 0 0 0 0 127 0" result="hardAlpha"/>
<feOffset dy="10"/>
<feGaussianBlur stdDeviation="15"/>
<feComposite in2="hardAlpha" operator="out"/>
<feColorMatrix type="matrix" values="0 0 0 0 0.633333 0 0 0 0 0.633333 0 0 0 0 0.633333 0 0 0 0.25 0"/>
<feBlend mode="normal" in2="BackgroundImageFix" result="effect1_dropShadow_737_334"/>
<feBlend mode="normal" in="SourceGraphic" in2="effect1_dropShadow_737_334" result="shape"/>
</filter>
<linearGradient id="paint0_linear_737_334" x1="150.468" y1="46.0256" x2="191.517" y2="52.379" gradientUnits="userSpaceOnUse">
<stop stop-color="#97BC5D"/>
<stop offset="1" stop-color="#C0D997"/>
</linearGradient>
<linearGradient id="paint1_linear_737_334" x1="159.082" y1="53.6754" x2="181.717" y2="57.1788" gradientUnits="userSpaceOnUse">
<stop stop-color="#97BC5D"/>
<stop offset="1" stop-color="#C0D997"/>
</linearGradient>
<linearGradient id="paint2_linear_737_334" x1="156.013" y1="84.3437" x2="183.75" y2="91.563" gradientUnits="userSpaceOnUse">
<stop stop-color="#97BC5D"/>
<stop offset="1" stop-color="#C0D997"/>
</linearGradient>
</defs>
</svg>
