<svg width="190" height="208" viewBox="0 0 190 208" fill="none" xmlns="http://www.w3.org/2000/svg">
<path d="M24.6448 170.3C23.6248 170.3 22.7048 170.127 21.8848 169.78C21.0714 169.433 20.3981 168.94 19.8648 168.3C19.3381 167.653 18.9948 166.89 18.8348 166.01L20.6748 165.72C20.9081 166.627 21.3914 167.337 22.1248 167.85C22.8648 168.357 23.7348 168.61 24.7348 168.61C25.3814 168.61 25.9648 168.51 26.4848 168.31C27.0114 168.103 27.4281 167.81 27.7348 167.43C28.0414 167.05 28.1948 166.6 28.1948 166.08C28.1948 165.76 28.1381 165.487 28.0248 165.26C27.9181 165.027 27.7681 164.83 27.5748 164.67C27.3881 164.503 27.1748 164.363 26.9348 164.25C26.6948 164.137 26.4448 164.043 26.1848 163.97L22.5148 162.88C22.1148 162.76 21.7281 162.61 21.3548 162.43C20.9814 162.243 20.6481 162.013 20.3548 161.74C20.0614 161.46 19.8281 161.127 19.6548 160.74C19.4814 160.347 19.3948 159.883 19.3948 159.35C19.3948 158.497 19.6148 157.77 20.0548 157.17C20.5014 156.563 21.1048 156.1 21.8648 155.78C22.6248 155.46 23.4814 155.303 24.4348 155.31C25.4014 155.317 26.2648 155.49 27.0248 155.83C27.7914 156.163 28.4248 156.643 28.9248 157.27C29.4314 157.897 29.7714 158.647 29.9448 159.52L28.0548 159.85C27.9548 159.263 27.7314 158.76 27.3848 158.34C27.0448 157.913 26.6181 157.587 26.1048 157.36C25.5914 157.127 25.0281 157.007 24.4148 157C23.8281 156.993 23.2981 157.087 22.8248 157.28C22.3514 157.473 21.9748 157.743 21.6948 158.09C21.4148 158.43 21.2748 158.823 21.2748 159.27C21.2748 159.71 21.4014 160.067 21.6548 160.34C21.9081 160.607 22.2181 160.82 22.5848 160.98C22.9581 161.133 23.3214 161.26 23.6748 161.36L26.4148 162.15C26.7281 162.237 27.0881 162.357 27.4948 162.51C27.9081 162.663 28.3081 162.88 28.6948 163.16C29.0814 163.433 29.4014 163.8 29.6548 164.26C29.9081 164.713 30.0348 165.287 30.0348 165.98C30.0348 166.673 29.8948 167.29 29.6148 167.83C29.3414 168.37 28.9581 168.823 28.4648 169.19C27.9714 169.55 27.3981 169.823 26.7448 170.01C26.0914 170.203 25.3914 170.3 24.6448 170.3ZM37.0924 170.3C36.0791 170.3 35.2258 170.05 34.5324 169.55C33.8391 169.043 33.3124 168.36 32.9524 167.5C32.5991 166.633 32.4224 165.663 32.4224 164.59C32.4224 163.503 32.5991 162.53 32.9524 161.67C33.3124 160.81 33.8391 160.133 34.5324 159.64C35.2324 159.147 36.0891 158.9 37.1024 158.9C38.1024 158.9 38.9624 159.15 39.6824 159.65C40.4091 160.143 40.9658 160.82 41.3524 161.68C41.7391 162.54 41.9324 163.51 41.9324 164.59C41.9324 165.67 41.7391 166.64 41.3524 167.5C40.9658 168.36 40.4091 169.043 39.6824 169.55C38.9624 170.05 38.0991 170.3 37.0924 170.3ZM32.1224 174.8V159.2H33.7124V167.15H33.9124V174.8H32.1224ZM36.8724 168.67C37.5858 168.67 38.1758 168.49 38.6424 168.13C39.1091 167.77 39.4591 167.283 39.6924 166.67C39.9258 166.05 40.0424 165.357 40.0424 164.59C40.0424 163.83 39.9258 163.143 39.6924 162.53C39.4658 161.917 39.1124 161.43 38.6324 161.07C38.1591 160.71 37.5558 160.53 36.8224 160.53C36.1224 160.53 35.5424 160.703 35.0824 161.05C34.6224 161.39 34.2791 161.867 34.0524 162.48C33.8258 163.087 33.7124 163.79 33.7124 164.59C33.7124 165.377 33.8224 166.08 34.0424 166.7C34.2691 167.313 34.6158 167.797 35.0824 168.15C35.5491 168.497 36.1458 168.67 36.8724 168.67ZM47.1946 170.3C46.3879 170.3 45.7113 170.153 45.1646 169.86C44.6246 169.56 44.2146 169.167 43.9346 168.68C43.6613 168.193 43.5246 167.66 43.5246 167.08C43.5246 166.513 43.6313 166.023 43.8446 165.61C44.0646 165.19 44.3713 164.843 44.7646 164.57C45.1579 164.29 45.6279 164.07 46.1746 163.91C46.6879 163.77 47.2613 163.65 47.8946 163.55C48.5346 163.443 49.1813 163.347 49.8346 163.26C50.4879 163.173 51.0979 163.09 51.6646 163.01L51.0246 163.38C51.0446 162.42 50.8513 161.71 50.4446 161.25C50.0446 160.79 49.3513 160.56 48.3646 160.56C47.7113 160.56 47.1379 160.71 46.6446 161.01C46.1579 161.303 45.8146 161.783 45.6146 162.45L43.9246 161.94C44.1846 160.993 44.6879 160.25 45.4346 159.71C46.1813 159.17 47.1646 158.9 48.3846 158.9C49.3646 158.9 50.2046 159.077 50.9046 159.43C51.6113 159.777 52.1179 160.303 52.4246 161.01C52.5779 161.343 52.6746 161.707 52.7146 162.1C52.7546 162.487 52.7746 162.893 52.7746 163.32V170H51.1946V167.41L51.5646 167.65C51.1579 168.523 50.5879 169.183 49.8546 169.63C49.1279 170.077 48.2413 170.3 47.1946 170.3ZM47.4646 168.81C48.1046 168.81 48.6579 168.697 49.1246 168.47C49.5979 168.237 49.9779 167.933 50.2646 167.56C50.5513 167.18 50.7379 166.767 50.8246 166.32C50.9246 165.987 50.9779 165.617 50.9846 165.21C50.9979 164.797 51.0046 164.48 51.0046 164.26L51.6246 164.53C51.0446 164.61 50.4746 164.687 49.9146 164.76C49.3546 164.833 48.8246 164.913 48.3246 165C47.8246 165.08 47.3746 165.177 46.9746 165.29C46.6813 165.383 46.4046 165.503 46.1446 165.65C45.8913 165.797 45.6846 165.987 45.5246 166.22C45.3713 166.447 45.2946 166.73 45.2946 167.07C45.2946 167.363 45.3679 167.643 45.5146 167.91C45.6679 168.177 45.9013 168.393 46.2146 168.56C46.5346 168.727 46.9513 168.81 47.4646 168.81ZM68.2846 170L68.2946 163.09C68.2946 162.283 68.0779 161.653 67.6446 161.2C67.2179 160.74 66.6613 160.51 65.9746 160.51C65.5746 160.51 65.1946 160.603 64.8346 160.79C64.4746 160.97 64.1813 161.257 63.9546 161.65C63.7279 162.037 63.6146 162.533 63.6146 163.14L62.6746 162.76C62.6613 161.993 62.8179 161.323 63.1446 160.75C63.4779 160.17 63.9313 159.72 64.5046 159.4C65.0779 159.08 65.7246 158.92 66.4446 158.92C67.5713 158.92 68.4579 159.263 69.1046 159.95C69.7513 160.63 70.0746 161.547 70.0746 162.7L70.0646 170H68.2846ZM55.3646 170V159.2H56.9546V162.09H57.1546V170H55.3646ZM61.8346 170L61.8446 163.16C61.8446 162.333 61.6313 161.687 61.2046 161.22C60.7779 160.747 60.2113 160.51 59.5046 160.51C58.8046 160.51 58.2379 160.75 57.8046 161.23C57.3713 161.71 57.1546 162.347 57.1546 163.14L56.2146 162.58C56.2146 161.88 56.3813 161.253 56.7146 160.7C57.0479 160.147 57.5013 159.713 58.0746 159.4C58.6479 159.08 59.2979 158.92 60.0246 158.92C60.7513 158.92 61.3846 159.073 61.9246 159.38C62.4646 159.687 62.8813 160.127 63.1746 160.7C63.4679 161.267 63.6146 161.943 63.6146 162.73L63.6046 170H61.8346ZM72.4793 164.43V162.96H78.4793V164.43H72.4793ZM82.1077 170V158.61C82.1077 158.33 82.1211 158.047 82.1477 157.76C82.1744 157.467 82.2344 157.183 82.3277 156.91C82.4211 156.63 82.5744 156.373 82.7877 156.14C83.0344 155.867 83.3044 155.673 83.5977 155.56C83.8911 155.44 84.1877 155.367 84.4877 155.34C84.7944 155.313 85.0844 155.3 85.3577 155.3H86.7277V156.78H85.4577C84.9311 156.78 84.5377 156.91 84.2777 157.17C84.0177 157.423 83.8877 157.81 83.8877 158.33V170H82.1077ZM80.2777 160.67V159.2H86.7277V160.67H80.2777ZM88.3238 170V159.2H89.9138V161.81L89.6538 161.47C89.7805 161.137 89.9438 160.83 90.1438 160.55C90.3505 160.27 90.5805 160.04 90.8338 159.86C91.1138 159.633 91.4305 159.46 91.7838 159.34C92.1372 159.22 92.4972 159.15 92.8638 159.13C93.2305 159.103 93.5738 159.127 93.8938 159.2V160.87C93.5205 160.77 93.1105 160.743 92.6638 160.79C92.2172 160.837 91.8038 161 91.4238 161.28C91.0772 161.527 90.8072 161.827 90.6138 162.18C90.4272 162.533 90.2972 162.917 90.2238 163.33C90.1505 163.737 90.1138 164.153 90.1138 164.58V170H88.3238ZM100.269 170.3C99.2095 170.3 98.2828 170.067 97.4895 169.6C96.7028 169.127 96.0895 168.47 95.6495 167.63C95.2095 166.783 94.9895 165.797 94.9895 164.67C94.9895 163.49 95.2061 162.47 95.6395 161.61C96.0728 160.743 96.6761 160.077 97.4495 159.61C98.2295 159.137 99.1428 158.9 100.189 158.9C101.276 158.9 102.199 159.15 102.959 159.65C103.726 160.15 104.299 160.863 104.679 161.79C105.066 162.717 105.233 163.82 105.179 165.1H103.379V164.46C103.359 163.133 103.089 162.143 102.569 161.49C102.049 160.83 101.276 160.5 100.249 160.5C99.1495 160.5 98.3128 160.853 97.7395 161.56C97.1661 162.267 96.8795 163.28 96.8795 164.6C96.8795 165.873 97.1661 166.86 97.7395 167.56C98.3128 168.26 99.1295 168.61 100.189 168.61C100.903 168.61 101.523 168.447 102.049 168.12C102.576 167.793 102.989 167.323 103.289 166.71L104.999 167.3C104.579 168.253 103.946 168.993 103.099 169.52C102.259 170.04 101.316 170.3 100.269 170.3ZM96.2795 165.1V163.67H104.259V165.1H96.2795ZM112.086 170.3C111.026 170.3 110.099 170.067 109.306 169.6C108.519 169.127 107.906 168.47 107.466 167.63C107.026 166.783 106.806 165.797 106.806 164.67C106.806 163.49 107.023 162.47 107.456 161.61C107.889 160.743 108.493 160.077 109.266 159.61C110.046 159.137 110.959 158.9 112.006 158.9C113.093 158.9 114.016 159.15 114.776 159.65C115.543 160.15 116.116 160.863 116.496 161.79C116.883 162.717 117.049 163.82 116.996 165.1H115.196V164.46C115.176 163.133 114.906 162.143 114.386 161.49C113.866 160.83 113.093 160.5 112.066 160.5C110.966 160.5 110.129 160.853 109.556 161.56C108.983 162.267 108.696 163.28 108.696 164.6C108.696 165.873 108.983 166.86 109.556 167.56C110.129 168.26 110.946 168.61 112.006 168.61C112.719 168.61 113.339 168.447 113.866 168.12C114.393 167.793 114.806 167.323 115.106 166.71L116.816 167.3C116.396 168.253 115.763 168.993 114.916 169.52C114.076 170.04 113.133 170.3 112.086 170.3ZM108.096 165.1V163.67H116.076V165.1H108.096ZM127.906 170.3C126.846 170.3 125.92 170.067 125.126 169.6C124.34 169.127 123.726 168.47 123.286 167.63C122.846 166.783 122.626 165.797 122.626 164.67C122.626 163.49 122.843 162.47 123.276 161.61C123.71 160.743 124.313 160.077 125.086 159.61C125.866 159.137 126.78 158.9 127.826 158.9C128.913 158.9 129.836 159.15 130.596 159.65C131.363 160.15 131.936 160.863 132.316 161.79C132.703 162.717 132.87 163.82 132.816 165.1H131.016V164.46C130.996 163.133 130.726 162.143 130.206 161.49C129.686 160.83 128.913 160.5 127.886 160.5C126.786 160.5 125.95 160.853 125.376 161.56C124.803 162.267 124.516 163.28 124.516 164.6C124.516 165.873 124.803 166.86 125.376 167.56C125.95 168.26 126.766 168.61 127.826 168.61C128.54 168.61 129.16 168.447 129.686 168.12C130.213 167.793 130.626 167.323 130.926 166.71L132.636 167.3C132.216 168.253 131.583 168.993 130.736 169.52C129.896 170.04 128.953 170.3 127.906 170.3ZM123.916 165.1V163.67H131.896V165.1H123.916ZM147.66 170L147.67 163.09C147.67 162.283 147.453 161.653 147.02 161.2C146.593 160.74 146.036 160.51 145.35 160.51C144.95 160.51 144.57 160.603 144.21 160.79C143.85 160.97 143.556 161.257 143.33 161.65C143.103 162.037 142.99 162.533 142.99 163.14L142.05 162.76C142.036 161.993 142.193 161.323 142.52 160.75C142.853 160.17 143.306 159.72 143.88 159.4C144.453 159.08 145.1 158.92 145.82 158.92C146.946 158.92 147.833 159.263 148.48 159.95C149.126 160.63 149.45 161.547 149.45 162.7L149.44 170H147.66ZM134.74 170V159.2H136.33V162.09H136.53V170H134.74ZM141.21 170L141.22 163.16C141.22 162.333 141.006 161.687 140.58 161.22C140.153 160.747 139.586 160.51 138.88 160.51C138.18 160.51 137.613 160.75 137.18 161.23C136.746 161.71 136.53 162.347 136.53 163.14L135.59 162.58C135.59 161.88 135.756 161.253 136.09 160.7C136.423 160.147 136.876 159.713 137.45 159.4C138.023 159.08 138.673 158.92 139.4 158.92C140.126 158.92 140.76 159.073 141.3 159.38C141.84 159.687 142.256 160.127 142.55 160.7C142.843 161.267 142.99 161.943 142.99 162.73L142.98 170H141.21ZM155.124 170.3C154.318 170.3 153.641 170.153 153.094 169.86C152.554 169.56 152.144 169.167 151.864 168.68C151.591 168.193 151.454 167.66 151.454 167.08C151.454 166.513 151.561 166.023 151.774 165.61C151.994 165.19 152.301 164.843 152.694 164.57C153.088 164.29 153.558 164.07 154.104 163.91C154.618 163.77 155.191 163.65 155.824 163.55C156.464 163.443 157.111 163.347 157.764 163.26C158.418 163.173 159.028 163.09 159.594 163.01L158.954 163.38C158.974 162.42 158.781 161.71 158.374 161.25C157.974 160.79 157.281 160.56 156.294 160.56C155.641 160.56 155.068 160.71 154.574 161.01C154.088 161.303 153.744 161.783 153.544 162.45L151.854 161.94C152.114 160.993 152.618 160.25 153.364 159.71C154.111 159.17 155.094 158.9 156.314 158.9C157.294 158.9 158.134 159.077 158.834 159.43C159.541 159.777 160.048 160.303 160.354 161.01C160.508 161.343 160.604 161.707 160.644 162.1C160.684 162.487 160.704 162.893 160.704 163.32V170H159.124V167.41L159.494 167.65C159.088 168.523 158.518 169.183 157.784 169.63C157.058 170.077 156.171 170.3 155.124 170.3ZM155.394 168.81C156.034 168.81 156.588 168.697 157.054 168.47C157.528 168.237 157.908 167.933 158.194 167.56C158.481 167.18 158.668 166.767 158.754 166.32C158.854 165.987 158.908 165.617 158.914 165.21C158.928 164.797 158.934 164.48 158.934 164.26L159.554 164.53C158.974 164.61 158.404 164.687 157.844 164.76C157.284 164.833 156.754 164.913 156.254 165C155.754 165.08 155.304 165.177 154.904 165.29C154.611 165.383 154.334 165.503 154.074 165.65C153.821 165.797 153.614 165.987 153.454 166.22C153.301 166.447 153.224 166.73 153.224 167.07C153.224 167.363 153.298 167.643 153.444 167.91C153.598 168.177 153.831 168.393 154.144 168.56C154.464 168.727 154.881 168.81 155.394 168.81ZM163.504 157.29V155.45H165.284V157.29H163.504ZM163.504 170V159.2H165.284V170H163.504ZM168.485 170V155.3H170.265V170H168.485Z" fill="#3C3F34"/>
<path d="M1.22156 203V191.48H8.42156V192.608H2.39756V196.592H7.46156V197.72H2.39756V201.872H8.42156V203H1.22156ZM20.6506 203L20.6586 197.328C20.6586 196.661 20.4719 196.139 20.0986 195.76C19.7306 195.376 19.2612 195.184 18.6906 195.184C18.3652 195.184 18.0479 195.259 17.7386 195.408C17.4292 195.557 17.1732 195.797 16.9706 196.128C16.7732 196.459 16.6746 196.891 16.6746 197.424L15.9786 197.224C15.9626 196.605 16.0826 196.064 16.3386 195.6C16.5999 195.136 16.9572 194.776 17.4106 194.52C17.8692 194.259 18.3866 194.128 18.9626 194.128C19.8319 194.128 20.5279 194.397 21.0506 194.936C21.5732 195.469 21.8346 196.192 21.8346 197.104L21.8266 203H20.6506ZM10.3386 203V194.36H11.3946V196.488H11.5226V203H10.3386ZM15.5066 203L15.5146 197.408C15.5146 196.72 15.3306 196.179 14.9626 195.784C14.5999 195.384 14.1199 195.184 13.5226 195.184C12.9252 195.184 12.4426 195.389 12.0746 195.8C11.7066 196.205 11.5226 196.747 11.5226 197.424L10.8186 197.04C10.8186 196.485 10.9492 195.989 11.2106 195.552C11.4719 195.109 11.8292 194.763 12.2826 194.512C12.7359 194.256 13.2506 194.128 13.8266 194.128C14.3759 194.128 14.8639 194.245 15.2906 194.48C15.7226 194.715 16.0612 195.056 16.3066 195.504C16.5519 195.952 16.6746 196.496 16.6746 197.136L16.6666 203H15.5066ZM26.3811 203.24C25.7304 203.24 25.1837 203.123 24.7411 202.888C24.3037 202.653 23.9757 202.341 23.7571 201.952C23.5384 201.563 23.4291 201.139 23.4291 200.68C23.4291 200.211 23.5224 199.811 23.7091 199.48C23.9011 199.144 24.1597 198.869 24.4851 198.656C24.8157 198.443 25.1971 198.28 25.6291 198.168C26.0664 198.061 26.5491 197.968 27.0771 197.888C27.6104 197.803 28.1304 197.731 28.6371 197.672C29.1491 197.608 29.5971 197.547 29.9811 197.488L29.5651 197.744C29.5811 196.891 29.4157 196.259 29.0691 195.848C28.7224 195.437 28.1197 195.232 27.2611 195.232C26.6691 195.232 26.1677 195.365 25.7571 195.632C25.3517 195.899 25.0664 196.32 24.9011 196.896L23.7571 196.56C23.9544 195.787 24.3517 195.187 24.9491 194.76C25.5464 194.333 26.3224 194.12 27.2771 194.12C28.0664 194.12 28.7357 194.269 29.2851 194.568C29.8397 194.861 30.2317 195.288 30.4611 195.848C30.5677 196.099 30.6371 196.379 30.6691 196.688C30.7011 196.997 30.7171 197.312 30.7171 197.632V203H29.6691V200.832L29.9731 200.96C29.6797 201.701 29.2237 202.267 28.6051 202.656C27.9864 203.045 27.2451 203.24 26.3811 203.24ZM26.5171 202.224C27.0664 202.224 27.5464 202.125 27.9571 201.928C28.3677 201.731 28.6984 201.461 28.9491 201.12C29.1997 200.773 29.3624 200.384 29.4371 199.952C29.5011 199.675 29.5357 199.371 29.5411 199.04C29.5464 198.704 29.5491 198.453 29.5491 198.288L29.9971 198.52C29.5971 198.573 29.1624 198.627 28.6931 198.68C28.2291 198.733 27.7704 198.795 27.3171 198.864C26.8691 198.933 26.4637 199.016 26.1011 199.112C25.8557 199.181 25.6184 199.28 25.3891 199.408C25.1597 199.531 24.9704 199.696 24.8211 199.904C24.6771 200.112 24.6051 200.371 24.6051 200.68C24.6051 200.931 24.6664 201.173 24.7891 201.408C24.9171 201.643 25.1197 201.837 25.3971 201.992C25.6797 202.147 26.0531 202.224 26.5171 202.224ZM32.9597 192.72V191.4H34.1357V192.72H32.9597ZM32.9597 203V194.36H34.1357V203H32.9597ZM36.6941 203V191.24H37.8701V203H36.6941ZM45.3116 203L42.6716 194.352L43.8476 194.36L45.8956 201.072L47.9516 194.36H49.0236L51.0796 201.072L53.1436 194.36H54.3116L51.6716 203H50.6476L48.4876 196.12L46.3356 203H45.3116ZM55.9128 192.72V191.4H57.0888V192.72H55.9128ZM55.9128 203V194.36H57.0888V203H55.9128ZM64.1912 203C63.7059 203.101 63.2259 203.141 62.7512 203.12C62.2819 203.099 61.8605 202.997 61.4872 202.816C61.1192 202.635 60.8392 202.352 60.6472 201.968C60.4925 201.648 60.4072 201.325 60.3912 201C60.3805 200.669 60.3752 200.293 60.3752 199.872V191.96H61.5432V199.824C61.5432 200.187 61.5459 200.491 61.5512 200.736C61.5619 200.976 61.6179 201.189 61.7192 201.376C61.9112 201.733 62.2152 201.947 62.6312 202.016C63.0525 202.085 63.5725 202.069 64.1912 201.968V203ZM58.5272 195.368V194.36H64.1912V195.368H58.5272ZM72.1334 203V198.592C72.1334 198.112 72.0881 197.672 71.9974 197.272C71.9068 196.867 71.7601 196.515 71.5574 196.216C71.3601 195.912 71.1014 195.677 70.7814 195.512C70.4668 195.347 70.0828 195.264 69.6294 195.264C69.2134 195.264 68.8454 195.336 68.5254 195.48C68.2108 195.624 67.9441 195.832 67.7254 196.104C67.5121 196.371 67.3494 196.696 67.2374 197.08C67.1254 197.464 67.0694 197.901 67.0694 198.392L66.2374 198.208C66.2374 197.323 66.3921 196.579 66.7014 195.976C67.0108 195.373 67.4374 194.917 67.9814 194.608C68.5254 194.299 69.1494 194.144 69.8534 194.144C70.3708 194.144 70.8214 194.224 71.2054 194.384C71.5948 194.544 71.9228 194.76 72.1894 195.032C72.4614 195.304 72.6801 195.616 72.8454 195.968C73.0108 196.315 73.1308 196.685 73.2054 197.08C73.2801 197.469 73.3174 197.859 73.3174 198.248V203H72.1334ZM65.8854 203V191.48H66.9494V197.984H67.0694V203H65.8854ZM79.0014 203.24C78.1428 203.24 77.4094 203.045 76.8014 202.656C76.1934 202.267 75.7268 201.728 75.4014 201.04C75.0761 200.352 74.9134 199.563 74.9134 198.672C74.9134 197.765 75.0788 196.971 75.4094 196.288C75.7401 195.605 76.2094 195.075 76.8174 194.696C77.4308 194.312 78.1588 194.12 79.0014 194.12C79.8654 194.12 80.6014 194.315 81.2094 194.704C81.8228 195.088 82.2894 195.624 82.6094 196.312C82.9348 196.995 83.0974 197.781 83.0974 198.672C83.0974 199.579 82.9348 200.376 82.6094 201.064C82.2841 201.747 81.8148 202.28 81.2014 202.664C80.5881 203.048 79.8548 203.24 79.0014 203.24ZM79.0014 202.112C79.9614 202.112 80.6761 201.795 81.1454 201.16C81.6148 200.52 81.8494 199.691 81.8494 198.672C81.8494 197.627 81.6121 196.795 81.1374 196.176C80.6681 195.557 79.9561 195.248 79.0014 195.248C78.3561 195.248 77.8228 195.395 77.4014 195.688C76.9854 195.976 76.6734 196.379 76.4654 196.896C76.2628 197.408 76.1614 198 76.1614 198.672C76.1614 199.712 76.4014 200.547 76.8814 201.176C77.3614 201.8 78.0681 202.112 79.0014 202.112ZM88.1662 203.216C87.6489 203.216 87.1955 203.136 86.8062 202.976C86.4222 202.816 86.0942 202.6 85.8222 202.328C85.5555 202.056 85.3395 201.747 85.1742 201.4C85.0089 201.048 84.8889 200.677 84.8142 200.288C84.7395 199.893 84.7022 199.501 84.7022 199.112V194.36H85.8862V198.768C85.8862 199.243 85.9315 199.683 86.0222 200.088C86.1129 200.493 86.2569 200.848 86.4542 201.152C86.6569 201.451 86.9155 201.683 87.2302 201.848C87.5502 202.013 87.9369 202.096 88.3902 202.096C88.8062 202.096 89.1715 202.024 89.4862 201.88C89.8062 201.736 90.0729 201.531 90.2862 201.264C90.5049 200.992 90.6702 200.664 90.7822 200.28C90.8942 199.891 90.9502 199.453 90.9502 198.968L91.7822 199.152C91.7822 200.037 91.6275 200.781 91.3182 201.384C91.0089 201.987 90.5822 202.443 90.0382 202.752C89.4942 203.061 88.8702 203.216 88.1662 203.216ZM91.0702 203V200.872H90.9502V194.36H92.1262V203H91.0702ZM99.0662 203C98.5809 203.101 98.1009 203.141 97.6262 203.12C97.1569 203.099 96.7355 202.997 96.3622 202.816C95.9942 202.635 95.7142 202.352 95.5222 201.968C95.3675 201.648 95.2822 201.325 95.2662 201C95.2555 200.669 95.2502 200.293 95.2502 199.872V191.96H96.4182V199.824C96.4182 200.187 96.4209 200.491 96.4262 200.736C96.4369 200.976 96.4929 201.189 96.5942 201.376C96.7862 201.733 97.0902 201.947 97.5062 202.016C97.9275 202.085 98.4475 202.069 99.0662 201.968V203ZM93.4022 195.368V194.36H99.0662V195.368H93.4022ZM110.212 203V198.592C110.212 198.112 110.166 197.672 110.076 197.272C109.985 196.867 109.838 196.515 109.636 196.216C109.438 195.912 109.18 195.677 108.86 195.512C108.545 195.347 108.161 195.264 107.708 195.264C107.292 195.264 106.924 195.336 106.604 195.48C106.289 195.624 106.022 195.832 105.804 196.104C105.59 196.371 105.428 196.696 105.316 197.08C105.204 197.464 105.148 197.901 105.148 198.392L104.316 198.208C104.316 197.323 104.47 196.579 104.78 195.976C105.089 195.373 105.516 194.917 106.06 194.608C106.604 194.299 107.228 194.144 107.932 194.144C108.449 194.144 108.9 194.224 109.284 194.384C109.673 194.544 110.001 194.76 110.268 195.032C110.54 195.304 110.758 195.616 110.924 195.968C111.089 196.315 111.209 196.685 111.284 197.08C111.358 197.469 111.396 197.859 111.396 198.248V203H110.212ZM103.964 203V194.36H105.028V196.488H105.148V203H103.964ZM117.081 203.24C116.238 203.24 115.507 203.053 114.889 202.68C114.275 202.307 113.798 201.781 113.457 201.104C113.115 200.427 112.945 199.632 112.945 198.72C112.945 197.776 113.113 196.96 113.449 196.272C113.785 195.584 114.257 195.053 114.865 194.68C115.478 194.307 116.201 194.12 117.033 194.12C117.886 194.12 118.614 194.317 119.217 194.712C119.819 195.101 120.275 195.661 120.585 196.392C120.894 197.123 121.035 197.995 121.009 199.008H119.809V198.592C119.787 197.472 119.545 196.627 119.081 196.056C118.622 195.485 117.95 195.2 117.065 195.2C116.137 195.2 115.425 195.501 114.929 196.104C114.438 196.707 114.193 197.565 114.193 198.68C114.193 199.768 114.438 200.613 114.929 201.216C115.425 201.813 116.126 202.112 117.033 202.112C117.651 202.112 118.19 201.971 118.649 201.688C119.113 201.4 119.478 200.987 119.745 200.448L120.841 200.872C120.499 201.624 119.995 202.208 119.329 202.624C118.667 203.035 117.918 203.24 117.081 203.24ZM113.777 199.008V198.024H120.377V199.008H113.777ZM124.312 203L121.672 194.352L122.848 194.36L124.896 201.072L126.952 194.36H128.024L130.08 201.072L132.144 194.36H133.312L130.672 203H129.648L127.488 196.12L125.336 203H124.312ZM137.664 203.232C136.651 203.232 135.816 203.013 135.16 202.576C134.51 202.139 134.11 201.531 133.96 200.752L135.16 200.552C135.288 201.043 135.579 201.435 136.032 201.728C136.491 202.016 137.056 202.16 137.728 202.16C138.384 202.16 138.902 202.024 139.28 201.752C139.659 201.475 139.848 201.099 139.848 200.624C139.848 200.357 139.787 200.141 139.664 199.976C139.547 199.805 139.304 199.648 138.936 199.504C138.568 199.36 138.019 199.189 137.288 198.992C136.504 198.779 135.891 198.565 135.448 198.352C135.006 198.139 134.691 197.893 134.504 197.616C134.318 197.333 134.224 196.989 134.224 196.584C134.224 196.093 134.363 195.664 134.64 195.296C134.918 194.923 135.302 194.635 135.792 194.432C136.283 194.224 136.854 194.12 137.504 194.12C138.155 194.12 138.736 194.227 139.248 194.44C139.766 194.648 140.182 194.941 140.496 195.32C140.811 195.699 140.998 196.139 141.056 196.64L139.856 196.856C139.776 196.349 139.523 195.949 139.096 195.656C138.675 195.357 138.139 195.203 137.488 195.192C136.875 195.176 136.376 195.293 135.992 195.544C135.608 195.789 135.416 196.117 135.416 196.528C135.416 196.757 135.486 196.955 135.624 197.12C135.763 197.28 136.014 197.432 136.376 197.576C136.744 197.72 137.267 197.877 137.944 198.048C138.739 198.251 139.363 198.464 139.816 198.688C140.27 198.912 140.592 199.176 140.784 199.48C140.976 199.784 141.072 200.16 141.072 200.608C141.072 201.424 140.768 202.067 140.16 202.536C139.558 203 138.726 203.232 137.664 203.232ZM143.007 203V191.24H144.183V203H143.007ZM150.237 203.24C149.394 203.24 148.664 203.053 148.045 202.68C147.432 202.307 146.954 201.781 146.613 201.104C146.272 200.427 146.101 199.632 146.101 198.72C146.101 197.776 146.269 196.96 146.605 196.272C146.941 195.584 147.413 195.053 148.021 194.68C148.634 194.307 149.357 194.12 150.189 194.12C151.042 194.12 151.77 194.317 152.373 194.712C152.976 195.101 153.432 195.661 153.741 196.392C154.05 197.123 154.192 197.995 154.165 199.008H152.965V198.592C152.944 197.472 152.701 196.627 152.237 196.056C151.778 195.485 151.106 195.2 150.221 195.2C149.293 195.2 148.581 195.501 148.085 196.104C147.594 196.707 147.349 197.565 147.349 198.68C147.349 199.768 147.594 200.613 148.085 201.216C148.581 201.813 149.282 202.112 150.189 202.112C150.808 202.112 151.346 201.971 151.805 201.688C152.269 201.4 152.634 200.987 152.901 200.448L153.997 200.872C153.656 201.624 153.152 202.208 152.485 202.624C151.824 203.035 151.074 203.24 150.237 203.24ZM146.933 199.008V198.024H153.533V199.008H146.933ZM160.644 203C160.159 203.101 159.679 203.141 159.204 203.12C158.735 203.099 158.314 202.997 157.94 202.816C157.572 202.635 157.292 202.352 157.1 201.968C156.946 201.648 156.86 201.325 156.844 201C156.834 200.669 156.828 200.293 156.828 199.872V191.96H157.996V199.824C157.996 200.187 157.999 200.491 158.004 200.736C158.015 200.976 158.071 201.189 158.172 201.376C158.364 201.733 158.668 201.947 159.084 202.016C159.506 202.085 160.026 202.069 160.644 201.968V203ZM154.98 195.368V194.36H160.644V195.368H154.98ZM166.092 203C165.607 203.101 165.127 203.141 164.652 203.12C164.183 203.099 163.762 202.997 163.388 202.816C163.02 202.635 162.74 202.352 162.548 201.968C162.394 201.648 162.308 201.325 162.292 201C162.282 200.669 162.276 200.293 162.276 199.872V191.96H163.444V199.824C163.444 200.187 163.447 200.491 163.452 200.736C163.463 200.976 163.519 201.189 163.62 201.376C163.812 201.733 164.116 201.947 164.532 202.016C164.954 202.085 165.474 202.069 166.092 201.968V203ZM160.428 195.368V194.36H166.092V195.368H160.428ZM171.456 203.24C170.613 203.24 169.882 203.053 169.264 202.68C168.65 202.307 168.173 201.781 167.832 201.104C167.49 200.427 167.32 199.632 167.32 198.72C167.32 197.776 167.488 196.96 167.824 196.272C168.16 195.584 168.632 195.053 169.24 194.68C169.853 194.307 170.576 194.12 171.408 194.12C172.261 194.12 172.989 194.317 173.592 194.712C174.194 195.101 174.65 195.661 174.96 196.392C175.269 197.123 175.41 197.995 175.384 199.008H174.184V198.592C174.162 197.472 173.92 196.627 173.456 196.056C172.997 195.485 172.325 195.2 171.44 195.2C170.512 195.2 169.8 195.501 169.304 196.104C168.813 196.707 168.568 197.565 168.568 198.68C168.568 199.768 168.813 200.613 169.304 201.216C169.8 201.813 170.501 202.112 171.408 202.112C172.026 202.112 172.565 201.971 173.024 201.688C173.488 201.4 173.853 200.987 174.12 200.448L175.216 200.872C174.874 201.624 174.37 202.208 173.704 202.624C173.042 203.035 172.293 203.24 171.456 203.24ZM168.152 199.008V198.024H174.752V199.008H168.152ZM177.159 203V194.36H178.215V196.44L178.007 196.168C178.103 195.912 178.228 195.677 178.383 195.464C178.538 195.245 178.706 195.067 178.887 194.928C179.111 194.731 179.372 194.581 179.671 194.48C179.97 194.373 180.271 194.312 180.575 194.296C180.879 194.275 181.156 194.296 181.407 194.36V195.464C181.092 195.384 180.748 195.365 180.375 195.408C180.002 195.451 179.658 195.6 179.343 195.856C179.055 196.08 178.839 196.349 178.695 196.664C178.551 196.973 178.455 197.304 178.407 197.656C178.359 198.003 178.335 198.347 178.335 198.688V203H177.159ZM185.836 203.232C184.823 203.232 183.988 203.013 183.332 202.576C182.682 202.139 182.282 201.531 182.132 200.752L183.332 200.552C183.46 201.043 183.751 201.435 184.204 201.728C184.663 202.016 185.228 202.16 185.9 202.16C186.556 202.16 187.074 202.024 187.452 201.752C187.831 201.475 188.02 201.099 188.02 200.624C188.02 200.357 187.959 200.141 187.836 199.976C187.719 199.805 187.476 199.648 187.108 199.504C186.74 199.36 186.191 199.189 185.46 198.992C184.676 198.779 184.063 198.565 183.62 198.352C183.178 198.139 182.863 197.893 182.676 197.616C182.49 197.333 182.396 196.989 182.396 196.584C182.396 196.093 182.535 195.664 182.812 195.296C183.09 194.923 183.474 194.635 183.964 194.432C184.455 194.224 185.026 194.12 185.676 194.12C186.327 194.12 186.908 194.227 187.42 194.44C187.938 194.648 188.354 194.941 188.668 195.32C188.983 195.699 189.17 196.139 189.228 196.64L188.028 196.856C187.948 196.349 187.695 195.949 187.268 195.656C186.847 195.357 186.311 195.203 185.66 195.192C185.047 195.176 184.548 195.293 184.164 195.544C183.78 195.789 183.588 196.117 183.588 196.528C183.588 196.757 183.658 196.955 183.796 197.12C183.935 197.28 184.186 197.432 184.548 197.576C184.916 197.72 185.439 197.877 186.116 198.048C186.911 198.251 187.535 198.464 187.988 198.688C188.442 198.912 188.764 199.176 188.956 199.48C189.148 199.784 189.244 200.16 189.244 200.608C189.244 201.424 188.94 202.067 188.332 202.536C187.73 203 186.898 203.232 185.836 203.232Z" fill="#3C3F34"/>
<g filter="url(#filter0_d_737_384)">
<circle cx="96.5" cy="71.5" r="51.5" fill="white"/>
</g>
<g filter="url(#filter1_d_737_384)">
<circle cx="96.5001" cy="71.5001" r="43.775" fill="white"/>
</g>
<path d="M113 54H81C77.6865 54 75 56.6865 75 60V84C75 87.3135 77.6865 90 81 90H113C116.313 90 119 87.3135 119 84V60C119 56.6865 116.313 54 113 54ZM113 86H81C79.8955 86 79 85.1045 79 84V62.161L95.7505 75.5615C96.1155 75.854 96.5575 76 97 76C97.4425 76 97.8845 75.854 98.2495 75.5615L115 62.161V84C115 85.1045 114.104 86 113 86Z" fill="url(#paint0_linear_737_384)"/>
<defs>
<filter id="filter0_d_737_384" x="15" y="0" width="163" height="163" filterUnits="userSpaceOnUse" color-interpolation-filters="sRGB">
<feFlood flood-opacity="0" result="BackgroundImageFix"/>
<feColorMatrix in="SourceAlpha" type="matrix" values="0 0 0 0 0 0 0 0 0 0 0 0 0 0 0 0 0 0 127 0" result="hardAlpha"/>
<feOffset dy="10"/>
<feGaussianBlur stdDeviation="15"/>
<feComposite in2="hardAlpha" operator="out"/>
<feColorMatrix type="matrix" values="0 0 0 0 0.633333 0 0 0 0 0.633333 0 0 0 0 0.633333 0 0 0 0.25 0"/>
<feBlend mode="normal" in2="BackgroundImageFix" result="effect1_dropShadow_737_384"/>
<feBlend mode="normal" in="SourceGraphic" in2="effect1_dropShadow_737_384" result="shape"/>
</filter>
<filter id="filter1_d_737_384" x="22.7251" y="7.7251" width="147.55" height="147.55" filterUnits="userSpaceOnUse" color-interpolation-filters="sRGB">
<feFlood flood-opacity="0" result="BackgroundImageFix"/>
<feColorMatrix in="SourceAlpha" type="matrix" values="0 0 0 0 0 0 0 0 0 0 0 0 0 0 0 0 0 0 127 0" result="hardAlpha"/>
<feOffset dy="10"/>
<feGaussianBlur stdDeviation="15"/>
<feComposite in2="hardAlpha" operator="out"/>
<feColorMatrix type="matrix" values="0 0 0 0 0.633333 0 0 0 0 0.633333 0 0 0 0 0.633333 0 0 0 0.25 0"/>
<feBlend mode="normal" in2="BackgroundImageFix" result="effect1_dropShadow_737_384"/>
<feBlend mode="normal" in="SourceGraphic" in2="effect1_dropShadow_737_384" result="shape"/>
</filter>
<linearGradient id="paint0_linear_737_384" x1="75" y1="56.1" x2="122.889" y2="65.1594" gradientUnits="userSpaceOnUse">
<stop stop-color="#97BC5D"/>
<stop offset="1" stop-color="#C0D997"/>
</linearGradient>
</defs>
</svg>
