<svg width="214" height="230" viewBox="0 0 214 230" fill="none" xmlns="http://www.w3.org/2000/svg">
<path d="M11.0629 170V155.6H12.8429V168.31H19.5229V170H11.0629ZM25.8145 170.3C24.7411 170.3 23.8145 170.057 23.0345 169.57C22.2611 169.083 21.6645 168.41 21.2445 167.55C20.8245 166.69 20.6145 165.703 20.6145 164.59C20.6145 163.457 20.8278 162.463 21.2545 161.61C21.6811 160.757 22.2845 160.093 23.0645 159.62C23.8445 159.14 24.7611 158.9 25.8145 158.9C26.8945 158.9 27.8245 159.143 28.6045 159.63C29.3845 160.11 29.9811 160.78 30.3945 161.64C30.8145 162.493 31.0245 163.477 31.0245 164.59C31.0245 165.717 30.8145 166.71 30.3945 167.57C29.9745 168.423 29.3745 169.093 28.5945 169.58C27.8145 170.06 26.8878 170.3 25.8145 170.3ZM25.8145 168.61C26.9345 168.61 27.7678 168.237 28.3145 167.49C28.8611 166.743 29.1345 165.777 29.1345 164.59C29.1345 163.37 28.8578 162.4 28.3045 161.68C27.7511 160.953 26.9211 160.59 25.8145 160.59C25.0611 160.59 24.4411 160.76 23.9545 161.1C23.4678 161.44 23.1045 161.91 22.8645 162.51C22.6245 163.11 22.5045 163.803 22.5045 164.59C22.5045 165.803 22.7845 166.777 23.3445 167.51C23.9045 168.243 24.7278 168.61 25.8145 168.61ZM35.1355 170L31.8355 159.19L33.6055 159.2L36.0155 167.1L38.4455 159.2H40.0155L42.4355 167.1L44.8555 159.2H46.6155L43.3155 170H41.8355L39.2255 161.79L36.6155 170H35.1355ZM48.2215 164.43V162.96H54.2215V164.43H48.2215ZM61.4999 170.3C60.4399 170.3 59.5133 170.067 58.7199 169.6C57.9333 169.127 57.3199 168.47 56.8799 167.63C56.4399 166.783 56.2199 165.797 56.2199 164.67C56.2199 163.49 56.4366 162.47 56.8699 161.61C57.3033 160.743 57.9066 160.077 58.6799 159.61C59.4599 159.137 60.3733 158.9 61.4199 158.9C62.5066 158.9 63.4299 159.15 64.1899 159.65C64.9566 160.15 65.5299 160.863 65.9099 161.79C66.2966 162.717 66.4633 163.82 66.4099 165.1H64.6099V164.46C64.5899 163.133 64.3199 162.143 63.7999 161.49C63.2799 160.83 62.5066 160.5 61.4799 160.5C60.3799 160.5 59.5433 160.853 58.9699 161.56C58.3966 162.267 58.1099 163.28 58.1099 164.6C58.1099 165.873 58.3966 166.86 58.9699 167.56C59.5433 168.26 60.3599 168.61 61.4199 168.61C62.1333 168.61 62.7533 168.447 63.2799 168.12C63.8066 167.793 64.2199 167.323 64.5199 166.71L66.2299 167.3C65.8099 168.253 65.1766 168.993 64.3299 169.52C63.4899 170.04 62.5466 170.3 61.4999 170.3ZM57.5099 165.1V163.67H65.4899V165.1H57.5099ZM76.0334 170V164.59C76.0334 164.077 75.9867 163.583 75.8934 163.11C75.8067 162.637 75.65 162.213 75.4234 161.84C75.2034 161.46 74.9034 161.16 74.5234 160.94C74.15 160.72 73.6767 160.61 73.1034 160.61C72.6567 160.61 72.25 160.687 71.8834 160.84C71.5234 160.987 71.2134 161.213 70.9534 161.52C70.6934 161.827 70.49 162.213 70.3434 162.68C70.2034 163.14 70.1334 163.683 70.1334 164.31L68.9634 163.95C68.9634 162.903 69.15 162.007 69.5234 161.26C69.9034 160.507 70.4334 159.93 71.1134 159.53C71.8 159.123 72.6067 158.92 73.5334 158.92C74.2334 158.92 74.83 159.03 75.3234 159.25C75.8167 159.47 76.2267 159.763 76.5534 160.13C76.88 160.49 77.1367 160.897 77.3234 161.35C77.51 161.797 77.64 162.253 77.7134 162.72C77.7934 163.18 77.8334 163.617 77.8334 164.03V170H76.0334ZM68.3334 170V159.2H69.9334V162.09H70.1334V170H68.3334ZM85.0155 170.3C83.9555 170.3 83.0289 170.067 82.2355 169.6C81.4489 169.127 80.8355 168.47 80.3955 167.63C79.9555 166.783 79.7355 165.797 79.7355 164.67C79.7355 163.49 79.9522 162.47 80.3855 161.61C80.8189 160.743 81.4222 160.077 82.1955 159.61C82.9755 159.137 83.8889 158.9 84.9355 158.9C86.0222 158.9 86.9455 159.15 87.7055 159.65C88.4722 160.15 89.0455 160.863 89.4255 161.79C89.8122 162.717 89.9789 163.82 89.9255 165.1H88.1255V164.46C88.1055 163.133 87.8355 162.143 87.3155 161.49C86.7955 160.83 86.0222 160.5 84.9955 160.5C83.8955 160.5 83.0589 160.853 82.4855 161.56C81.9122 162.267 81.6255 163.28 81.6255 164.6C81.6255 165.873 81.9122 166.86 82.4855 167.56C83.0589 168.26 83.8755 168.61 84.9355 168.61C85.6489 168.61 86.2689 168.447 86.7955 168.12C87.3222 167.793 87.7355 167.323 88.0355 166.71L89.7455 167.3C89.3255 168.253 88.6922 168.993 87.8455 169.52C87.0055 170.04 86.0622 170.3 85.0155 170.3ZM81.0255 165.1V163.67H89.0055V165.1H81.0255ZM92.152 170V159.2H93.742V161.81L93.482 161.47C93.6086 161.137 93.772 160.83 93.972 160.55C94.1786 160.27 94.4086 160.04 94.662 159.86C94.942 159.633 95.2586 159.46 95.612 159.34C95.9653 159.22 96.3253 159.15 96.692 159.13C97.0586 159.103 97.402 159.127 97.722 159.2V160.87C97.3486 160.77 96.9386 160.743 96.492 160.79C96.0453 160.837 95.632 161 95.252 161.28C94.9053 161.527 94.6353 161.827 94.442 162.18C94.2553 162.533 94.1253 162.917 94.052 163.33C93.9786 163.737 93.942 164.153 93.942 164.58V170H92.152ZM103.592 175.1C103.026 175.1 102.472 175.013 101.932 174.84C101.392 174.667 100.896 174.403 100.442 174.05C99.9956 173.703 99.6223 173.263 99.3223 172.73L100.952 171.87C101.219 172.397 101.596 172.78 102.082 173.02C102.576 173.26 103.082 173.38 103.602 173.38C104.289 173.38 104.859 173.253 105.312 173C105.766 172.753 106.099 172.383 106.312 171.89C106.532 171.397 106.639 170.783 106.632 170.05V167.1H106.842V159.2H108.422V170.07C108.422 170.363 108.412 170.647 108.392 170.92C108.379 171.193 108.346 171.463 108.292 171.73C108.152 172.497 107.876 173.127 107.462 173.62C107.049 174.12 106.516 174.49 105.862 174.73C105.209 174.977 104.452 175.1 103.592 175.1ZM103.462 170.3C102.456 170.3 101.592 170.05 100.872 169.55C100.152 169.043 99.5956 168.36 99.2023 167.5C98.8156 166.64 98.6223 165.67 98.6223 164.59C98.6223 163.51 98.8156 162.54 99.2023 161.68C99.5956 160.82 100.152 160.143 100.872 159.65C101.592 159.15 102.452 158.9 103.452 158.9C104.472 158.9 105.329 159.147 106.022 159.64C106.716 160.133 107.239 160.81 107.592 161.67C107.952 162.53 108.132 163.503 108.132 164.59C108.132 165.663 107.952 166.633 107.592 167.5C107.239 168.36 106.716 169.043 106.022 169.55C105.329 170.05 104.476 170.3 103.462 170.3ZM103.682 168.67C104.409 168.67 105.006 168.497 105.472 168.15C105.939 167.797 106.282 167.313 106.502 166.7C106.729 166.08 106.842 165.377 106.842 164.59C106.842 163.79 106.729 163.087 106.502 162.48C106.282 161.867 105.942 161.39 105.482 161.05C105.022 160.703 104.439 160.53 103.732 160.53C102.999 160.53 102.392 160.71 101.912 161.07C101.439 161.43 101.086 161.917 100.852 162.53C100.626 163.143 100.512 163.83 100.512 164.59C100.512 165.357 100.629 166.05 100.862 166.67C101.096 167.283 101.446 167.77 101.912 168.13C102.386 168.49 102.976 168.67 103.682 168.67ZM112.714 174.8L114.804 169.12L114.834 170.8L110.114 159.2H111.984L115.684 168.53H115.044L118.514 159.2H120.324L114.444 174.8H112.714ZM130.94 170.3C129.927 170.3 129.073 170.05 128.38 169.55C127.687 169.043 127.16 168.36 126.8 167.5C126.447 166.633 126.27 165.663 126.27 164.59C126.27 163.503 126.447 162.53 126.8 161.67C127.16 160.81 127.687 160.133 128.38 159.64C129.08 159.147 129.937 158.9 130.95 158.9C131.95 158.9 132.81 159.15 133.53 159.65C134.257 160.143 134.813 160.82 135.2 161.68C135.587 162.54 135.78 163.51 135.78 164.59C135.78 165.67 135.587 166.64 135.2 167.5C134.813 168.36 134.257 169.043 133.53 169.55C132.81 170.05 131.947 170.3 130.94 170.3ZM125.97 170V155.6H127.76V162.05H127.56V170H125.97ZM130.72 168.67C131.433 168.67 132.023 168.49 132.49 168.13C132.957 167.77 133.307 167.283 133.54 166.67C133.773 166.05 133.89 165.357 133.89 164.59C133.89 163.83 133.773 163.143 133.54 162.53C133.313 161.917 132.96 161.43 132.48 161.07C132.007 160.71 131.403 160.53 130.67 160.53C129.97 160.53 129.39 160.703 128.93 161.05C128.47 161.39 128.127 161.867 127.9 162.48C127.673 163.087 127.56 163.79 127.56 164.59C127.56 165.377 127.67 166.08 127.89 166.7C128.117 167.313 128.463 167.797 128.93 168.15C129.397 168.497 129.993 168.67 130.72 168.67ZM137.972 170V159.2H139.562V161.81L139.302 161.47C139.429 161.137 139.592 160.83 139.792 160.55C139.999 160.27 140.229 160.04 140.482 159.86C140.762 159.633 141.079 159.46 141.432 159.34C141.786 159.22 142.146 159.15 142.512 159.13C142.879 159.103 143.222 159.127 143.542 159.2V160.87C143.169 160.77 142.759 160.743 142.312 160.79C141.866 160.837 141.452 161 141.072 161.28C140.726 161.527 140.456 161.827 140.262 162.18C140.076 162.533 139.946 162.917 139.872 163.33C139.799 163.737 139.762 164.153 139.762 164.58V170H137.972ZM149.838 170.3C148.765 170.3 147.838 170.057 147.058 169.57C146.285 169.083 145.688 168.41 145.268 167.55C144.848 166.69 144.638 165.703 144.638 164.59C144.638 163.457 144.851 162.463 145.278 161.61C145.705 160.757 146.308 160.093 147.088 159.62C147.868 159.14 148.785 158.9 149.838 158.9C150.918 158.9 151.848 159.143 152.628 159.63C153.408 160.11 154.005 160.78 154.418 161.64C154.838 162.493 155.048 163.477 155.048 164.59C155.048 165.717 154.838 166.71 154.418 167.57C153.998 168.423 153.398 169.093 152.618 169.58C151.838 170.06 150.911 170.3 149.838 170.3ZM149.838 168.61C150.958 168.61 151.791 168.237 152.338 167.49C152.885 166.743 153.158 165.777 153.158 164.59C153.158 163.37 152.881 162.4 152.328 161.68C151.775 160.953 150.945 160.59 149.838 160.59C149.085 160.59 148.465 160.76 147.978 161.1C147.491 161.44 147.128 161.91 146.888 162.51C146.648 163.11 146.528 163.803 146.528 164.59C146.528 165.803 146.808 166.777 147.368 167.51C147.928 168.243 148.751 168.61 149.838 168.61ZM159.159 170L155.859 159.19L157.629 159.2L160.039 167.1L162.469 159.2H164.039L166.459 167.1L168.879 159.2H170.639L167.339 170H165.859L163.249 161.79L160.639 170H159.159ZM176.134 170.29C174.848 170.29 173.791 170.01 172.964 169.45C172.144 168.883 171.641 168.093 171.454 167.08L173.274 166.79C173.421 167.377 173.758 167.843 174.284 168.19C174.811 168.53 175.464 168.7 176.244 168.7C176.984 168.7 177.564 168.547 177.984 168.24C178.404 167.933 178.614 167.517 178.614 166.99C178.614 166.683 178.544 166.437 178.404 166.25C178.264 166.057 177.974 165.877 177.534 165.71C177.101 165.543 176.444 165.343 175.564 165.11C174.611 164.857 173.861 164.593 173.314 164.32C172.768 164.047 172.378 163.73 172.144 163.37C171.911 163.01 171.794 162.573 171.794 162.06C171.794 161.427 171.968 160.873 172.314 160.4C172.661 159.92 173.144 159.55 173.764 159.29C174.391 159.03 175.118 158.9 175.944 158.9C176.764 158.9 177.498 159.03 178.144 159.29C178.791 159.55 179.311 159.92 179.704 160.4C180.104 160.873 180.341 161.427 180.414 162.06L178.594 162.39C178.508 161.81 178.228 161.353 177.754 161.02C177.288 160.687 176.684 160.51 175.944 160.49C175.244 160.463 174.674 160.587 174.234 160.86C173.801 161.133 173.584 161.503 173.584 161.97C173.584 162.23 173.664 162.453 173.824 162.64C173.991 162.827 174.294 163.003 174.734 163.17C175.181 163.337 175.828 163.527 176.674 163.74C177.628 163.98 178.378 164.243 178.924 164.53C179.478 164.81 179.871 165.143 180.104 165.53C180.338 165.91 180.454 166.38 180.454 166.94C180.454 167.98 180.071 168.8 179.304 169.4C178.538 169.993 177.481 170.29 176.134 170.29ZM187.34 170.3C186.28 170.3 185.353 170.067 184.56 169.6C183.773 169.127 183.16 168.47 182.72 167.63C182.28 166.783 182.06 165.797 182.06 164.67C182.06 163.49 182.276 162.47 182.71 161.61C183.143 160.743 183.746 160.077 184.52 159.61C185.3 159.137 186.213 158.9 187.26 158.9C188.346 158.9 189.27 159.15 190.03 159.65C190.796 160.15 191.37 160.863 191.75 161.79C192.136 162.717 192.303 163.82 192.25 165.1H190.45V164.46C190.43 163.133 190.16 162.143 189.64 161.49C189.12 160.83 188.346 160.5 187.32 160.5C186.22 160.5 185.383 160.853 184.81 161.56C184.236 162.267 183.95 163.28 183.95 164.6C183.95 165.873 184.236 166.86 184.81 167.56C185.383 168.26 186.2 168.61 187.26 168.61C187.973 168.61 188.593 168.447 189.12 168.12C189.646 167.793 190.06 167.323 190.36 166.71L192.07 167.3C191.65 168.253 191.016 168.993 190.17 169.52C189.33 170.04 188.386 170.3 187.34 170.3ZM183.35 165.1V163.67H191.33V165.1H183.35ZM194.476 170V159.2H196.066V161.81L195.806 161.47C195.933 161.137 196.096 160.83 196.296 160.55C196.503 160.27 196.733 160.04 196.986 159.86C197.266 159.633 197.583 159.46 197.936 159.34C198.29 159.22 198.65 159.15 199.016 159.13C199.383 159.103 199.726 159.127 200.046 159.2V160.87C199.673 160.77 199.263 160.743 198.816 160.79C198.37 160.837 197.956 161 197.576 161.28C197.23 161.527 196.96 161.827 196.766 162.18C196.58 162.533 196.45 162.917 196.376 163.33C196.303 163.737 196.266 164.153 196.266 164.58V170H194.476Z" fill="#3C3F34"/>
<path d="M22.7575 203L26.7255 191.48H28.2855L32.2535 203H31.0295L27.2615 192.136H27.7255L23.9815 203H22.7575ZM24.5255 200.208V199.104H30.4775V200.208H24.5255ZM37.0501 203.24C36.2448 203.24 35.5568 203.04 34.9861 202.64C34.4155 202.235 33.9781 201.688 33.6741 201C33.3701 200.312 33.2181 199.536 33.2181 198.672C33.2181 197.813 33.3675 197.04 33.6661 196.352C33.9701 195.664 34.4048 195.12 34.9701 194.72C35.5355 194.32 36.2128 194.12 37.0021 194.12C37.8128 194.12 38.4955 194.317 39.0501 194.712C39.6048 195.107 40.0235 195.648 40.3061 196.336C40.5941 197.019 40.7381 197.797 40.7381 198.672C40.7381 199.531 40.5968 200.307 40.3141 201C40.0315 201.688 39.6155 202.235 39.0661 202.64C38.5168 203.04 37.8448 203.24 37.0501 203.24ZM37.1701 202.144C37.7835 202.144 38.2901 201.995 38.6901 201.696C39.0901 201.397 39.3888 200.987 39.5861 200.464C39.7835 199.936 39.8821 199.339 39.8821 198.672C39.8821 197.995 39.7835 197.397 39.5861 196.88C39.3888 196.357 39.0901 195.949 38.6901 195.656C38.2955 195.363 37.7968 195.216 37.1941 195.216C36.5755 195.216 36.0635 195.368 35.6581 195.672C35.2528 195.976 34.9515 196.389 34.7541 196.912C34.5621 197.435 34.4661 198.021 34.4661 198.672C34.4661 199.328 34.5648 199.92 34.7621 200.448C34.9648 200.971 35.2661 201.384 35.6661 201.688C36.0661 201.992 36.5675 202.144 37.1701 202.144ZM39.8821 203V196.496H39.7541V191.48H40.9381V203H39.8821ZM46.4065 203.232C45.3932 203.232 44.5585 203.013 43.9025 202.576C43.2518 202.139 42.8518 201.531 42.7025 200.752L43.9025 200.552C44.0305 201.043 44.3212 201.435 44.7745 201.728C45.2332 202.016 45.7985 202.16 46.4705 202.16C47.1265 202.16 47.6438 202.024 48.0225 201.752C48.4012 201.475 48.5905 201.099 48.5905 200.624C48.5905 200.357 48.5292 200.141 48.4065 199.976C48.2892 199.805 48.0465 199.648 47.6785 199.504C47.3105 199.36 46.7612 199.189 46.0305 198.992C45.2465 198.779 44.6332 198.565 44.1905 198.352C43.7478 198.139 43.4332 197.893 43.2465 197.616C43.0598 197.333 42.9665 196.989 42.9665 196.584C42.9665 196.093 43.1052 195.664 43.3825 195.296C43.6598 194.923 44.0438 194.635 44.5345 194.432C45.0252 194.224 45.5958 194.12 46.2465 194.12C46.8972 194.12 47.4785 194.227 47.9905 194.44C48.5078 194.648 48.9238 194.941 49.2385 195.32C49.5532 195.699 49.7398 196.139 49.7985 196.64L48.5985 196.856C48.5185 196.349 48.2652 195.949 47.8385 195.656C47.4172 195.357 46.8812 195.203 46.2305 195.192C45.6172 195.176 45.1185 195.293 44.7345 195.544C44.3505 195.789 44.1585 196.117 44.1585 196.528C44.1585 196.757 44.2278 196.955 44.3665 197.12C44.5052 197.28 44.7558 197.432 45.1185 197.576C45.4865 197.72 46.0092 197.877 46.6865 198.048C47.4812 198.251 48.1052 198.464 48.5585 198.688C49.0118 198.912 49.3345 199.176 49.5265 199.48C49.7185 199.784 49.8145 200.16 49.8145 200.608C49.8145 201.424 49.5105 202.067 48.9025 202.536C48.2998 203 47.4678 203.232 46.4065 203.232ZM51.4288 198.464V197.456H56.2288V198.464H51.4288ZM59.1635 203V193.72C59.1635 193.496 59.1742 193.275 59.1955 193.056C59.2222 192.837 59.2728 192.629 59.3475 192.432C59.4222 192.229 59.5395 192.043 59.6995 191.872C59.8755 191.68 60.0675 191.541 60.2755 191.456C60.4835 191.365 60.6995 191.307 60.9235 191.28C61.1528 191.253 61.3768 191.24 61.5955 191.24H62.6995V192.232H61.6755C61.2275 192.232 60.8915 192.341 60.6675 192.56C60.4488 192.779 60.3395 193.123 60.3395 193.592V203H59.1635ZM57.6675 195.368V194.36H62.6995V195.368H57.6675ZM63.9794 203V194.36H65.0354V196.44L64.8274 196.168C64.9234 195.912 65.0487 195.677 65.2034 195.464C65.358 195.245 65.526 195.067 65.7074 194.928C65.9314 194.731 66.1927 194.581 66.4914 194.48C66.79 194.373 67.0914 194.312 67.3954 194.296C67.6994 194.275 67.9767 194.296 68.2274 194.36V195.464C67.9127 195.384 67.5687 195.365 67.1954 195.408C66.822 195.451 66.478 195.6 66.1634 195.856C65.8754 196.08 65.6594 196.349 65.5154 196.664C65.3714 196.973 65.2754 197.304 65.2274 197.656C65.1794 198.003 65.1554 198.347 65.1554 198.688V203H63.9794ZM73.2448 203.24C72.4021 203.24 71.6714 203.053 71.0528 202.68C70.4394 202.307 69.9621 201.781 69.6208 201.104C69.2794 200.427 69.1088 199.632 69.1088 198.72C69.1088 197.776 69.2768 196.96 69.6128 196.272C69.9488 195.584 70.4208 195.053 71.0288 194.68C71.6421 194.307 72.3648 194.12 73.1968 194.12C74.0501 194.12 74.7781 194.317 75.3808 194.712C75.9834 195.101 76.4394 195.661 76.7488 196.392C77.0581 197.123 77.1994 197.995 77.1728 199.008H75.9728V198.592C75.9514 197.472 75.7088 196.627 75.2448 196.056C74.7861 195.485 74.1141 195.2 73.2288 195.2C72.3008 195.2 71.5888 195.501 71.0928 196.104C70.6021 196.707 70.3568 197.565 70.3568 198.68C70.3568 199.768 70.6021 200.613 71.0928 201.216C71.5888 201.813 72.2901 202.112 73.1968 202.112C73.8154 202.112 74.3541 201.971 74.8128 201.688C75.2768 201.4 75.6421 200.987 75.9088 200.448L77.0048 200.872C76.6634 201.624 76.1594 202.208 75.4928 202.624C74.8314 203.035 74.0821 203.24 73.2448 203.24ZM69.9408 199.008V198.024H76.5408V199.008H69.9408ZM82.6041 203.24C81.7615 203.24 81.0308 203.053 80.4121 202.68C79.7988 202.307 79.3215 201.781 78.9801 201.104C78.6388 200.427 78.4681 199.632 78.4681 198.72C78.4681 197.776 78.6361 196.96 78.9721 196.272C79.3081 195.584 79.7801 195.053 80.3881 194.68C81.0015 194.307 81.7241 194.12 82.5561 194.12C83.4095 194.12 84.1375 194.317 84.7401 194.712C85.3428 195.101 85.7988 195.661 86.1081 196.392C86.4175 197.123 86.5588 197.995 86.5321 199.008H85.3321V198.592C85.3108 197.472 85.0681 196.627 84.6041 196.056C84.1455 195.485 83.4735 195.2 82.5881 195.2C81.6601 195.2 80.9481 195.501 80.4521 196.104C79.9615 196.707 79.7161 197.565 79.7161 198.68C79.7161 199.768 79.9615 200.613 80.4521 201.216C80.9481 201.813 81.6495 202.112 82.5561 202.112C83.1748 202.112 83.7135 201.971 84.1721 201.688C84.6361 201.4 85.0015 200.987 85.2681 200.448L86.3641 200.872C86.0228 201.624 85.5188 202.208 84.8521 202.624C84.1908 203.035 83.4415 203.24 82.6041 203.24ZM79.3001 199.008V198.024H85.9001V199.008H79.3001ZM91.6706 192.72V191.4H92.8466V192.72H91.6706ZM91.6706 203V194.36H92.8466V203H91.6706ZM101.485 203V198.592C101.485 198.112 101.44 197.672 101.349 197.272C101.258 196.867 101.112 196.515 100.909 196.216C100.712 195.912 100.453 195.677 100.133 195.512C99.8183 195.347 99.4343 195.264 98.981 195.264C98.565 195.264 98.197 195.336 97.877 195.48C97.5623 195.624 97.2957 195.832 97.077 196.104C96.8637 196.371 96.701 196.696 96.589 197.08C96.477 197.464 96.421 197.901 96.421 198.392L95.589 198.208C95.589 197.323 95.7437 196.579 96.053 195.976C96.3623 195.373 96.789 194.917 97.333 194.608C97.877 194.299 98.501 194.144 99.205 194.144C99.7223 194.144 100.173 194.224 100.557 194.384C100.946 194.544 101.274 194.76 101.541 195.032C101.813 195.304 102.032 195.616 102.197 195.968C102.362 196.315 102.482 196.685 102.557 197.08C102.632 197.469 102.669 197.859 102.669 198.248V203H101.485ZM95.237 203V194.36H96.301V196.488H96.421V203H95.237ZM109.449 203C108.964 203.101 108.484 203.141 108.009 203.12C107.54 203.099 107.118 202.997 106.745 202.816C106.377 202.635 106.097 202.352 105.905 201.968C105.75 201.648 105.665 201.325 105.649 201C105.638 200.669 105.633 200.293 105.633 199.872V191.96H106.801V199.824C106.801 200.187 106.804 200.491 106.809 200.736C106.82 200.976 106.876 201.189 106.977 201.376C107.169 201.733 107.473 201.947 107.889 202.016C108.31 202.085 108.83 202.069 109.449 201.968V203ZM103.785 195.368V194.36H109.449V195.368H103.785ZM114.495 203.24C113.652 203.24 112.921 203.053 112.303 202.68C111.689 202.307 111.212 201.781 110.871 201.104C110.529 200.427 110.359 199.632 110.359 198.72C110.359 197.776 110.527 196.96 110.863 196.272C111.199 195.584 111.671 195.053 112.279 194.68C112.892 194.307 113.615 194.12 114.447 194.12C115.3 194.12 116.028 194.317 116.631 194.712C117.233 195.101 117.689 195.661 117.999 196.392C118.308 197.123 118.449 197.995 118.423 199.008H117.223V198.592C117.201 197.472 116.959 196.627 116.495 196.056C116.036 195.485 115.364 195.2 114.479 195.2C113.551 195.2 112.839 195.501 112.343 196.104C111.852 196.707 111.607 197.565 111.607 198.68C111.607 199.768 111.852 200.613 112.343 201.216C112.839 201.813 113.54 202.112 114.447 202.112C115.065 202.112 115.604 201.971 116.063 201.688C116.527 201.4 116.892 200.987 117.159 200.448L118.255 200.872C117.913 201.624 117.409 202.208 116.743 202.624C116.081 203.035 115.332 203.24 114.495 203.24ZM111.191 199.008V198.024H117.791V199.008H111.191ZM120.198 203V194.36H121.254V196.44L121.046 196.168C121.142 195.912 121.267 195.677 121.422 195.464C121.577 195.245 121.745 195.067 121.926 194.928C122.15 194.731 122.411 194.581 122.71 194.48C123.009 194.373 123.31 194.312 123.614 194.296C123.918 194.275 124.195 194.296 124.446 194.36V195.464C124.131 195.384 123.787 195.365 123.414 195.408C123.041 195.451 122.697 195.6 122.382 195.856C122.094 196.08 121.878 196.349 121.734 196.664C121.59 196.973 121.494 197.304 121.446 197.656C121.398 198.003 121.374 198.347 121.374 198.688V203H120.198ZM126.82 203V193.72C126.82 193.496 126.83 193.275 126.852 193.056C126.878 192.837 126.929 192.629 127.004 192.432C127.078 192.229 127.196 192.043 127.356 191.872C127.532 191.68 127.724 191.541 127.932 191.456C128.14 191.365 128.356 191.307 128.58 191.28C128.809 191.253 129.033 191.24 129.252 191.24H130.356V192.232H129.332C128.884 192.232 128.548 192.341 128.324 192.56C128.105 192.779 127.996 193.123 127.996 193.592V203H126.82ZM125.324 195.368V194.36H130.356V195.368H125.324ZM133.873 203.24C133.223 203.24 132.676 203.123 132.233 202.888C131.796 202.653 131.468 202.341 131.249 201.952C131.031 201.563 130.921 201.139 130.921 200.68C130.921 200.211 131.015 199.811 131.201 199.48C131.393 199.144 131.652 198.869 131.977 198.656C132.308 198.443 132.689 198.28 133.121 198.168C133.559 198.061 134.041 197.968 134.569 197.888C135.103 197.803 135.623 197.731 136.129 197.672C136.641 197.608 137.089 197.547 137.473 197.488L137.057 197.744C137.073 196.891 136.908 196.259 136.561 195.848C136.215 195.437 135.612 195.232 134.753 195.232C134.161 195.232 133.66 195.365 133.249 195.632C132.844 195.899 132.559 196.32 132.393 196.896L131.249 196.56C131.447 195.787 131.844 195.187 132.441 194.76C133.039 194.333 133.815 194.12 134.769 194.12C135.559 194.12 136.228 194.269 136.777 194.568C137.332 194.861 137.724 195.288 137.953 195.848C138.06 196.099 138.129 196.379 138.161 196.688C138.193 196.997 138.209 197.312 138.209 197.632V203H137.161V200.832L137.465 200.96C137.172 201.701 136.716 202.267 136.097 202.656C135.479 203.045 134.737 203.24 133.873 203.24ZM134.009 202.224C134.559 202.224 135.039 202.125 135.449 201.928C135.86 201.731 136.191 201.461 136.441 201.12C136.692 200.773 136.855 200.384 136.929 199.952C136.993 199.675 137.028 199.371 137.033 199.04C137.039 198.704 137.041 198.453 137.041 198.288L137.489 198.52C137.089 198.573 136.655 198.627 136.185 198.68C135.721 198.733 135.263 198.795 134.809 198.864C134.361 198.933 133.956 199.016 133.593 199.112C133.348 199.181 133.111 199.28 132.881 199.408C132.652 199.531 132.463 199.696 132.313 199.904C132.169 200.112 132.097 200.371 132.097 200.68C132.097 200.931 132.159 201.173 132.281 201.408C132.409 201.643 132.612 201.837 132.889 201.992C133.172 202.147 133.545 202.224 134.009 202.224ZM143.876 203.24C143.007 203.24 142.271 203.045 141.668 202.656C141.065 202.267 140.607 201.731 140.292 201.048C139.983 200.36 139.823 199.571 139.812 198.68C139.823 197.773 139.988 196.979 140.308 196.296C140.628 195.608 141.089 195.075 141.692 194.696C142.295 194.312 143.025 194.12 143.884 194.12C144.759 194.12 145.519 194.333 146.164 194.76C146.815 195.187 147.26 195.771 147.5 196.512L146.348 196.88C146.145 196.363 145.823 195.963 145.38 195.68C144.943 195.392 144.441 195.248 143.876 195.248C143.241 195.248 142.716 195.395 142.3 195.688C141.884 195.976 141.575 196.379 141.372 196.896C141.169 197.413 141.065 198.008 141.06 198.68C141.071 199.715 141.311 200.547 141.78 201.176C142.249 201.8 142.948 202.112 143.876 202.112C144.463 202.112 144.961 201.979 145.372 201.712C145.788 201.44 146.103 201.045 146.316 200.528L147.5 200.88C147.18 201.648 146.711 202.235 146.092 202.64C145.473 203.04 144.735 203.24 143.876 203.24ZM152.573 203.24C151.73 203.24 151 203.053 150.381 202.68C149.768 202.307 149.29 201.781 148.949 201.104C148.608 200.427 148.437 199.632 148.437 198.72C148.437 197.776 148.605 196.96 148.941 196.272C149.277 195.584 149.749 195.053 150.357 194.68C150.97 194.307 151.693 194.12 152.525 194.12C153.378 194.12 154.106 194.317 154.709 194.712C155.312 195.101 155.768 195.661 156.077 196.392C156.386 197.123 156.528 197.995 156.501 199.008H155.301V198.592C155.28 197.472 155.037 196.627 154.573 196.056C154.114 195.485 153.442 195.2 152.557 195.2C151.629 195.2 150.917 195.501 150.421 196.104C149.93 196.707 149.685 197.565 149.685 198.68C149.685 199.768 149.93 200.613 150.421 201.216C150.917 201.813 151.618 202.112 152.525 202.112C153.144 202.112 153.682 201.971 154.141 201.688C154.605 201.4 154.97 200.987 155.237 200.448L156.333 200.872C155.992 201.624 155.488 202.208 154.821 202.624C154.16 203.035 153.41 203.24 152.573 203.24ZM149.269 199.008V198.024H155.869V199.008H149.269ZM166.183 203C165.698 203.101 165.218 203.141 164.743 203.12C164.274 203.099 163.853 202.997 163.479 202.816C163.111 202.635 162.831 202.352 162.639 201.968C162.485 201.648 162.399 201.325 162.383 201C162.373 200.669 162.367 200.293 162.367 199.872V191.96H163.535V199.824C163.535 200.187 163.538 200.491 163.543 200.736C163.554 200.976 163.61 201.189 163.711 201.376C163.903 201.733 164.207 201.947 164.623 202.016C165.045 202.085 165.565 202.069 166.183 201.968V203ZM160.519 195.368V194.36H166.183V195.368H160.519ZM174.126 203V198.592C174.126 198.112 174.08 197.672 173.99 197.272C173.899 196.867 173.752 196.515 173.55 196.216C173.352 195.912 173.094 195.677 172.774 195.512C172.459 195.347 172.075 195.264 171.622 195.264C171.206 195.264 170.838 195.336 170.518 195.48C170.203 195.624 169.936 195.832 169.718 196.104C169.504 196.371 169.342 196.696 169.23 197.08C169.118 197.464 169.062 197.901 169.062 198.392L168.23 198.208C168.23 197.323 168.384 196.579 168.694 195.976C169.003 195.373 169.43 194.917 169.974 194.608C170.518 194.299 171.142 194.144 171.846 194.144C172.363 194.144 172.814 194.224 173.198 194.384C173.587 194.544 173.915 194.76 174.182 195.032C174.454 195.304 174.672 195.616 174.838 195.968C175.003 196.315 175.123 196.685 175.198 197.08C175.272 197.469 175.31 197.859 175.31 198.248V203H174.126ZM167.878 203V191.48H168.942V197.984H169.062V203H167.878ZM179.858 203.24C179.207 203.24 178.66 203.123 178.218 202.888C177.78 202.653 177.452 202.341 177.234 201.952C177.015 201.563 176.906 201.139 176.906 200.68C176.906 200.211 176.999 199.811 177.186 199.48C177.378 199.144 177.636 198.869 177.962 198.656C178.292 198.443 178.674 198.28 179.106 198.168C179.543 198.061 180.026 197.968 180.554 197.888C181.087 197.803 181.607 197.731 182.114 197.672C182.626 197.608 183.074 197.547 183.458 197.488L183.042 197.744C183.058 196.891 182.892 196.259 182.546 195.848C182.199 195.437 181.596 195.232 180.738 195.232C180.146 195.232 179.644 195.365 179.234 195.632C178.828 195.899 178.543 196.32 178.378 196.896L177.234 196.56C177.431 195.787 177.828 195.187 178.426 194.76C179.023 194.333 179.799 194.12 180.754 194.12C181.543 194.12 182.212 194.269 182.762 194.568C183.316 194.861 183.708 195.288 183.938 195.848C184.044 196.099 184.114 196.379 184.146 196.688C184.178 196.997 184.194 197.312 184.194 197.632V203H183.146V200.832L183.45 200.96C183.156 201.701 182.7 202.267 182.082 202.656C181.463 203.045 180.722 203.24 179.858 203.24ZM179.994 202.224C180.543 202.224 181.023 202.125 181.434 201.928C181.844 201.731 182.175 201.461 182.426 201.12C182.676 200.773 182.839 200.384 182.914 199.952C182.978 199.675 183.012 199.371 183.018 199.04C183.023 198.704 183.026 198.453 183.026 198.288L183.474 198.52C183.074 198.573 182.639 198.627 182.17 198.68C181.706 198.733 181.247 198.795 180.794 198.864C180.346 198.933 179.94 199.016 179.578 199.112C179.332 199.181 179.095 199.28 178.866 199.408C178.636 199.531 178.447 199.696 178.298 199.904C178.154 200.112 178.082 200.371 178.082 200.68C178.082 200.931 178.143 201.173 178.266 201.408C178.394 201.643 178.596 201.837 178.874 201.992C179.156 202.147 179.53 202.224 179.994 202.224ZM190.98 203C190.495 203.101 190.015 203.141 189.54 203.12C189.071 203.099 188.65 202.997 188.276 202.816C187.908 202.635 187.628 202.352 187.436 201.968C187.282 201.648 187.196 201.325 187.18 201C187.17 200.669 187.164 200.293 187.164 199.872V191.96H188.332V199.824C188.332 200.187 188.335 200.491 188.34 200.736C188.351 200.976 188.407 201.189 188.508 201.376C188.7 201.733 189.004 201.947 189.42 202.016C189.842 202.085 190.362 202.069 190.98 201.968V203ZM185.316 195.368V194.36H190.98V195.368H185.316ZM51.3674 225.232C50.3541 225.232 49.5194 225.013 48.8634 224.576C48.2128 224.139 47.8128 223.531 47.6634 222.752L48.8634 222.552C48.9914 223.043 49.2821 223.435 49.7354 223.728C50.1941 224.016 50.7594 224.16 51.4314 224.16C52.0874 224.16 52.6048 224.024 52.9834 223.752C53.3621 223.475 53.5514 223.099 53.5514 222.624C53.5514 222.357 53.4901 222.141 53.3674 221.976C53.2501 221.805 53.0074 221.648 52.6394 221.504C52.2714 221.36 51.7221 221.189 50.9914 220.992C50.2074 220.779 49.5941 220.565 49.1514 220.352C48.7088 220.139 48.3941 219.893 48.2074 219.616C48.0208 219.333 47.9274 218.989 47.9274 218.584C47.9274 218.093 48.0661 217.664 48.3434 217.296C48.6208 216.923 49.0048 216.635 49.4954 216.432C49.9861 216.224 50.5568 216.12 51.2074 216.12C51.8581 216.12 52.4394 216.227 52.9514 216.44C53.4688 216.648 53.8848 216.941 54.1994 217.32C54.5141 217.699 54.7008 218.139 54.7594 218.64L53.5594 218.856C53.4794 218.349 53.2261 217.949 52.7994 217.656C52.3781 217.357 51.8421 217.203 51.1914 217.192C50.5781 217.176 50.0794 217.293 49.6954 217.544C49.3114 217.789 49.1194 218.117 49.1194 218.528C49.1194 218.757 49.1888 218.955 49.3274 219.12C49.4661 219.28 49.7168 219.432 50.0794 219.576C50.4474 219.72 50.9701 219.877 51.6474 220.048C52.4421 220.251 53.0661 220.464 53.5194 220.688C53.9728 220.912 54.2954 221.176 54.4874 221.48C54.6794 221.784 54.7754 222.16 54.7754 222.608C54.7754 223.424 54.4714 224.067 53.8634 224.536C53.2608 225 52.4288 225.232 51.3674 225.232ZM59.0217 225.24C58.371 225.24 57.8244 225.123 57.3817 224.888C56.9444 224.653 56.6164 224.341 56.3977 223.952C56.179 223.563 56.0697 223.139 56.0697 222.68C56.0697 222.211 56.163 221.811 56.3497 221.48C56.5417 221.144 56.8004 220.869 57.1257 220.656C57.4564 220.443 57.8377 220.28 58.2697 220.168C58.707 220.061 59.1897 219.968 59.7177 219.888C60.251 219.803 60.771 219.731 61.2777 219.672C61.7897 219.608 62.2377 219.547 62.6217 219.488L62.2057 219.744C62.2217 218.891 62.0564 218.259 61.7097 217.848C61.363 217.437 60.7604 217.232 59.9017 217.232C59.3097 217.232 58.8084 217.365 58.3977 217.632C57.9924 217.899 57.707 218.32 57.5417 218.896L56.3977 218.56C56.595 217.787 56.9924 217.187 57.5897 216.76C58.187 216.333 58.963 216.12 59.9177 216.12C60.707 216.12 61.3764 216.269 61.9257 216.568C62.4804 216.861 62.8724 217.288 63.1017 217.848C63.2084 218.099 63.2777 218.379 63.3097 218.688C63.3417 218.997 63.3577 219.312 63.3577 219.632V225H62.3097V222.832L62.6137 222.96C62.3204 223.701 61.8644 224.267 61.2457 224.656C60.627 225.045 59.8857 225.24 59.0217 225.24ZM59.1577 224.224C59.707 224.224 60.187 224.125 60.5977 223.928C61.0084 223.731 61.339 223.461 61.5897 223.12C61.8404 222.773 62.003 222.384 62.0777 221.952C62.1417 221.675 62.1764 221.371 62.1817 221.04C62.187 220.704 62.1897 220.453 62.1897 220.288L62.6377 220.52C62.2377 220.573 61.803 220.627 61.3337 220.68C60.8697 220.733 60.411 220.795 59.9577 220.864C59.5097 220.933 59.1044 221.016 58.7417 221.112C58.4964 221.181 58.259 221.28 58.0297 221.408C57.8004 221.531 57.611 221.696 57.4617 221.904C57.3177 222.112 57.2457 222.371 57.2457 222.68C57.2457 222.931 57.307 223.173 57.4297 223.408C57.5577 223.643 57.7604 223.837 58.0377 223.992C58.3204 224.147 58.6937 224.224 59.1577 224.224ZM67.4638 225L64.3278 216.36H65.5198L68.0718 223.464L70.6078 216.36H71.8158L68.6798 225H67.4638ZM76.5963 225.24C75.7536 225.24 75.023 225.053 74.4043 224.68C73.791 224.307 73.3136 223.781 72.9723 223.104C72.631 222.427 72.4603 221.632 72.4603 220.72C72.4603 219.776 72.6283 218.96 72.9643 218.272C73.3003 217.584 73.7723 217.053 74.3803 216.68C74.9936 216.307 75.7163 216.12 76.5483 216.12C77.4016 216.12 78.1296 216.317 78.7323 216.712C79.335 217.101 79.791 217.661 80.1003 218.392C80.4096 219.123 80.551 219.995 80.5243 221.008H79.3243V220.592C79.303 219.472 79.0603 218.627 78.5963 218.056C78.1376 217.485 77.4656 217.2 76.5803 217.2C75.6523 217.2 74.9403 217.501 74.4443 218.104C73.9536 218.707 73.7083 219.565 73.7083 220.68C73.7083 221.768 73.9536 222.613 74.4443 223.216C74.9403 223.813 75.6416 224.112 76.5483 224.112C77.167 224.112 77.7056 223.971 78.1643 223.688C78.6283 223.4 78.9936 222.987 79.2603 222.448L80.3563 222.872C80.015 223.624 79.511 224.208 78.8443 224.624C78.183 225.035 77.4336 225.24 76.5963 225.24ZM73.2923 221.008V220.024H79.8923V221.008H73.2923ZM85.5237 225.232C84.5104 225.232 83.6757 225.013 83.0197 224.576C82.369 224.139 81.969 223.531 81.8197 222.752L83.0197 222.552C83.1477 223.043 83.4384 223.435 83.8917 223.728C84.3504 224.016 84.9157 224.16 85.5877 224.16C86.2437 224.16 86.761 224.024 87.1397 223.752C87.5184 223.475 87.7077 223.099 87.7077 222.624C87.7077 222.357 87.6464 222.141 87.5237 221.976C87.4064 221.805 87.1637 221.648 86.7957 221.504C86.4277 221.36 85.8784 221.189 85.1477 220.992C84.3637 220.779 83.7504 220.565 83.3077 220.352C82.865 220.139 82.5504 219.893 82.3637 219.616C82.177 219.333 82.0837 218.989 82.0837 218.584C82.0837 218.093 82.2224 217.664 82.4997 217.296C82.777 216.923 83.161 216.635 83.6517 216.432C84.1424 216.224 84.713 216.12 85.3637 216.12C86.0144 216.12 86.5957 216.227 87.1077 216.44C87.625 216.648 88.041 216.941 88.3557 217.32C88.6704 217.699 88.857 218.139 88.9157 218.64L87.7157 218.856C87.6357 218.349 87.3824 217.949 86.9557 217.656C86.5344 217.357 85.9984 217.203 85.3477 217.192C84.7344 217.176 84.2357 217.293 83.8517 217.544C83.4677 217.789 83.2757 218.117 83.2757 218.528C83.2757 218.757 83.345 218.955 83.4837 219.12C83.6224 219.28 83.873 219.432 84.2357 219.576C84.6037 219.72 85.1264 219.877 85.8037 220.048C86.5984 220.251 87.2224 220.464 87.6757 220.688C88.129 220.912 88.4517 221.176 88.6437 221.48C88.8357 221.784 88.9317 222.16 88.9317 222.608C88.9317 223.424 88.6277 224.067 88.0197 224.536C87.417 225 86.585 225.232 85.5237 225.232ZM97.5651 225.24C96.7224 225.24 95.9917 225.053 95.3731 224.68C94.7597 224.307 94.2824 223.781 93.9411 223.104C93.5997 222.427 93.4291 221.632 93.4291 220.72C93.4291 219.776 93.5971 218.96 93.9331 218.272C94.2691 217.584 94.7411 217.053 95.3491 216.68C95.9624 216.307 96.6851 216.12 97.5171 216.12C98.3704 216.12 99.0984 216.317 99.7011 216.712C100.304 217.101 100.76 217.661 101.069 218.392C101.378 219.123 101.52 219.995 101.493 221.008H100.293V220.592C100.272 219.472 100.029 218.627 99.5651 218.056C99.1064 217.485 98.4344 217.2 97.5491 217.2C96.6211 217.2 95.9091 217.501 95.4131 218.104C94.9224 218.707 94.6771 219.565 94.6771 220.68C94.6771 221.768 94.9224 222.613 95.4131 223.216C95.9091 223.813 96.6104 224.112 97.5171 224.112C98.1357 224.112 98.6744 223.971 99.1331 223.688C99.5971 223.4 99.9624 222.987 100.229 222.448L101.325 222.872C100.984 223.624 100.48 224.208 99.8131 224.624C99.1517 225.035 98.4024 225.24 97.5651 225.24ZM94.2611 221.008V220.024H100.861V221.008H94.2611ZM103.428 225V213.24H104.604V225H103.428ZM110.659 225.24C109.816 225.24 109.085 225.053 108.467 224.68C107.853 224.307 107.376 223.781 107.035 223.104C106.693 222.427 106.523 221.632 106.523 220.72C106.523 219.776 106.691 218.96 107.027 218.272C107.363 217.584 107.835 217.053 108.443 216.68C109.056 216.307 109.779 216.12 110.611 216.12C111.464 216.12 112.192 216.317 112.795 216.712C113.397 217.101 113.853 217.661 114.163 218.392C114.472 219.123 114.613 219.995 114.587 221.008H113.387V220.592C113.365 219.472 113.123 218.627 112.659 218.056C112.2 217.485 111.528 217.2 110.643 217.2C109.715 217.2 109.003 217.501 108.507 218.104C108.016 218.707 107.771 219.565 107.771 220.68C107.771 221.768 108.016 222.613 108.507 223.216C109.003 223.813 109.704 224.112 110.611 224.112C111.229 224.112 111.768 223.971 112.227 223.688C112.691 223.4 113.056 222.987 113.323 222.448L114.419 222.872C114.077 223.624 113.573 224.208 112.907 224.624C112.245 225.035 111.496 225.24 110.659 225.24ZM107.355 221.008V220.024H113.955V221.008H107.355ZM119.946 225.24C119.077 225.24 118.341 225.045 117.738 224.656C117.136 224.267 116.677 223.731 116.362 223.048C116.053 222.36 115.893 221.571 115.882 220.68C115.893 219.773 116.058 218.979 116.378 218.296C116.698 217.608 117.16 217.075 117.762 216.696C118.365 216.312 119.096 216.12 119.954 216.12C120.829 216.12 121.589 216.333 122.234 216.76C122.885 217.187 123.33 217.771 123.57 218.512L122.418 218.88C122.216 218.363 121.893 217.963 121.45 217.68C121.013 217.392 120.512 217.248 119.946 217.248C119.312 217.248 118.786 217.395 118.37 217.688C117.954 217.976 117.645 218.379 117.442 218.896C117.24 219.413 117.136 220.008 117.13 220.68C117.141 221.715 117.381 222.547 117.85 223.176C118.32 223.8 119.018 224.112 119.946 224.112C120.533 224.112 121.032 223.979 121.442 223.712C121.858 223.44 122.173 223.045 122.386 222.528L123.57 222.88C123.25 223.648 122.781 224.235 122.162 224.64C121.544 225.04 120.805 225.24 119.946 225.24ZM129.926 225C129.44 225.101 128.96 225.141 128.486 225.12C128.016 225.099 127.595 224.997 127.222 224.816C126.854 224.635 126.574 224.352 126.382 223.968C126.227 223.648 126.142 223.325 126.126 223C126.115 222.669 126.11 222.293 126.11 221.872V213.96H127.278V221.824C127.278 222.187 127.28 222.491 127.286 222.736C127.296 222.976 127.352 223.189 127.454 223.376C127.646 223.733 127.95 223.947 128.366 224.016C128.787 224.085 129.307 224.069 129.926 223.968V225ZM124.262 217.368V216.36H129.926V217.368H124.262ZM131.628 225V216.36H132.684V218.44L132.476 218.168C132.572 217.912 132.697 217.677 132.852 217.464C133.006 217.245 133.174 217.067 133.356 216.928C133.58 216.731 133.841 216.581 134.14 216.48C134.438 216.373 134.74 216.312 135.044 216.296C135.348 216.275 135.625 216.296 135.876 216.36V217.464C135.561 217.384 135.217 217.365 134.844 217.408C134.47 217.451 134.126 217.6 133.812 217.856C133.524 218.08 133.308 218.349 133.164 218.664C133.02 218.973 132.924 219.304 132.876 219.656C132.828 220.003 132.804 220.347 132.804 220.688V225H131.628ZM137.553 214.72V213.4H138.729V214.72H137.553ZM137.553 225V216.36H138.729V225H137.553ZM144.712 225.24C143.842 225.24 143.106 225.045 142.504 224.656C141.901 224.267 141.442 223.731 141.128 223.048C140.818 222.36 140.658 221.571 140.648 220.68C140.658 219.773 140.824 218.979 141.144 218.296C141.464 217.608 141.925 217.075 142.528 216.696C143.13 216.312 143.861 216.12 144.72 216.12C145.594 216.12 146.354 216.333 147 216.76C147.65 217.187 148.096 217.771 148.336 218.512L147.184 218.88C146.981 218.363 146.658 217.963 146.216 217.68C145.778 217.392 145.277 217.248 144.712 217.248C144.077 217.248 143.552 217.395 143.136 217.688C142.72 217.976 142.41 218.379 142.208 218.896C142.005 219.413 141.901 220.008 141.896 220.68C141.906 221.715 142.146 222.547 142.616 223.176C143.085 223.8 143.784 224.112 144.712 224.112C145.298 224.112 145.797 223.979 146.208 223.712C146.624 223.44 146.938 223.045 147.152 222.528L148.336 222.88C148.016 223.648 147.546 224.235 146.928 224.64C146.309 225.04 145.57 225.24 144.712 225.24ZM149.913 214.72V213.4H151.089V214.72H149.913ZM149.913 225V216.36H151.089V225H149.913ZM158.191 225C157.706 225.101 157.226 225.141 156.751 225.12C156.282 225.099 155.861 224.997 155.487 224.816C155.119 224.635 154.839 224.352 154.647 223.968C154.493 223.648 154.407 223.325 154.391 223C154.381 222.669 154.375 222.293 154.375 221.872V213.96H155.543V221.824C155.543 222.187 155.546 222.491 155.551 222.736C155.562 222.976 155.618 223.189 155.719 223.376C155.911 223.733 156.215 223.947 156.631 224.016C157.053 224.085 157.573 224.069 158.191 223.968V225ZM152.527 217.368V216.36H158.191V217.368H152.527ZM160.891 228.84L162.563 224.304L162.587 225.648L158.803 216.36H160.051L163.155 224.128H162.643L165.507 216.36H166.707L162.067 228.84H160.891Z" fill="#3C3F34"/>
<g filter="url(#filter0_d_737_311)">
<circle cx="106.5" cy="71.5" r="51.5" fill="white"/>
</g>
<g filter="url(#filter1_d_737_311)">
<circle cx="106.5" cy="71.5001" r="43.775" fill="white"/>
</g>
<path d="M112.957 59.6205C113.03 59.4287 113.055 59.2219 113.031 59.018C113.006 58.8141 112.933 58.6192 112.816 58.4501C112.7 58.281 112.544 58.1427 112.362 58.0473C112.18 57.9519 111.978 57.9021 111.772 57.9022H103.538C103.248 57.9025 102.966 58.0022 102.74 58.1849C102.515 58.3676 102.359 58.6222 102.298 58.9061L98.7414 75.6509C98.7022 75.8352 98.7045 76.026 98.7483 76.2092C98.7921 76.3925 98.8762 76.5637 98.9945 76.7104C99.1129 76.857 99.2624 76.9754 99.4323 77.0569C99.6022 77.1384 99.7882 77.181 99.9766 77.1816H105.353C105.54 77.1816 105.724 77.2229 105.893 77.3025C106.062 77.3821 106.212 77.4981 106.331 77.6422C106.45 77.7862 106.535 77.9548 106.581 78.1358C106.628 78.3168 106.633 78.5057 106.598 78.6892L105.266 85.5915C105.024 86.8521 106.73 87.4854 107.368 86.3726L115.84 71.6112C115.95 71.4185 116.008 71.2 116.008 70.9778C116.008 70.7555 115.949 70.5373 115.837 70.345C115.726 70.1527 115.566 69.993 115.373 69.882C115.181 69.771 114.963 69.7125 114.74 69.7125H110.96C110.754 69.7126 110.552 69.6627 110.37 69.5673C110.188 69.4719 110.032 69.3337 109.916 69.1646C109.799 68.9956 109.725 68.8007 109.701 68.5969C109.676 68.393 109.701 68.1861 109.774 67.9942L112.957 59.6205Z" fill="url(#paint0_linear_737_311)"/>
<path d="M124.94 89.9436C128.371 86.4379 130.72 82.0178 131.704 77.2122C132.689 72.4067 132.268 67.4191 130.492 62.8465C125.394 49.7441 110.586 43.2317 97.4821 48.331L98.2728 50.3629C110.261 45.6996 123.798 51.6538 128.461 63.6372C130.086 67.8203 130.47 72.383 129.568 76.7788C128.666 81.1746 126.516 85.2173 123.376 88.4227L121.826 86.9127C121.662 86.7535 121.456 86.6463 121.232 86.6047C121.007 86.5631 120.776 86.5889 120.567 86.6789C120.357 86.7689 120.179 86.919 120.055 87.1102C119.931 87.3014 119.867 87.5251 119.87 87.753L119.928 91.8569C119.932 92.1617 120.058 92.4523 120.276 92.665C120.494 92.8777 120.788 92.9951 121.093 92.9916L125.197 92.9431C125.425 92.9403 125.646 92.87 125.834 92.7411C126.022 92.6121 126.167 92.4304 126.252 92.2188C126.337 92.0073 126.356 91.7754 126.309 91.5526C126.262 91.3297 126.149 91.1259 125.986 90.9669L124.94 89.9436Z" fill="url(#paint1_linear_737_311)"/>
<path d="M98.0209 93.1913C94.5666 91.675 91.5321 89.3428 89.1781 86.3949C86.824 83.4471 85.2208 79.9719 84.5062 76.2677C83.7915 72.5636 83.9869 68.7414 85.0754 65.1294C86.1639 61.5174 88.113 58.2237 90.7553 55.5312L92.1285 56.8632C92.2917 57.0224 92.4984 57.1295 92.7225 57.1711C92.9465 57.2127 93.1779 57.1869 93.3874 57.0969C93.5968 57.0069 93.7748 56.8568 93.8988 56.6656C94.0228 56.4744 94.0874 56.2507 94.0842 56.0228L94.0261 51.9189C94.0242 51.7679 93.9925 51.6188 93.9329 51.48C93.8733 51.3412 93.787 51.2155 93.6788 51.1101C93.5706 51.0048 93.4427 50.9217 93.3024 50.8658C93.1621 50.8099 93.0121 50.7822 92.8611 50.7843L88.7573 50.8327C88.5276 50.8334 88.3034 50.9026 88.1134 51.0316C87.9235 51.1606 87.7764 51.3435 87.6911 51.5567C87.6059 51.77 87.5863 52.0038 87.6349 52.2283C87.6836 52.4527 87.7982 52.6574 87.9641 52.8162L89.1908 54.0114C85.1044 58.1736 82.5689 63.6112 82.0072 69.4169C81.4455 75.2226 82.8916 81.0454 86.1043 85.9137C89.317 90.7821 94.1019 94.4015 99.6608 96.1682C105.22 97.9349 111.216 97.742 116.65 95.6217L115.86 93.5909C113.008 94.7071 109.963 95.2464 106.901 95.1778C103.839 95.1093 100.82 94.4341 98.0209 93.1913Z" fill="url(#paint2_linear_737_311)"/>
<defs>
<filter id="filter0_d_737_311" x="25" y="0" width="163" height="163" filterUnits="userSpaceOnUse" color-interpolation-filters="sRGB">
<feFlood flood-opacity="0" result="BackgroundImageFix"/>
<feColorMatrix in="SourceAlpha" type="matrix" values="0 0 0 0 0 0 0 0 0 0 0 0 0 0 0 0 0 0 127 0" result="hardAlpha"/>
<feOffset dy="10"/>
<feGaussianBlur stdDeviation="15"/>
<feComposite in2="hardAlpha" operator="out"/>
<feColorMatrix type="matrix" values="0 0 0 0 0.633333 0 0 0 0 0.633333 0 0 0 0 0.633333 0 0 0 0.25 0"/>
<feBlend mode="normal" in2="BackgroundImageFix" result="effect1_dropShadow_737_311"/>
<feBlend mode="normal" in="SourceGraphic" in2="effect1_dropShadow_737_311" result="shape"/>
</filter>
<filter id="filter1_d_737_311" x="32.7251" y="7.7251" width="147.55" height="147.55" filterUnits="userSpaceOnUse" color-interpolation-filters="sRGB">
<feFlood flood-opacity="0" result="BackgroundImageFix"/>
<feColorMatrix in="SourceAlpha" type="matrix" values="0 0 0 0 0 0 0 0 0 0 0 0 0 0 0 0 0 0 127 0" result="hardAlpha"/>
<feOffset dy="10"/>
<feGaussianBlur stdDeviation="15"/>
<feComposite in2="hardAlpha" operator="out"/>
<feColorMatrix type="matrix" values="0 0 0 0 0.633333 0 0 0 0 0.633333 0 0 0 0 0.633333 0 0 0 0.25 0"/>
<feBlend mode="normal" in2="BackgroundImageFix" result="effect1_dropShadow_737_311"/>
<feBlend mode="normal" in="SourceGraphic" in2="effect1_dropShadow_737_311" result="shape"/>
</filter>
<linearGradient id="paint0_linear_737_311" x1="98.7136" y1="59.5965" x2="118.046" y2="61.3782" gradientUnits="userSpaceOnUse">
<stop stop-color="#97BC5D"/>
<stop offset="1" stop-color="#C0D997"/>
</linearGradient>
<linearGradient id="paint1_linear_737_311" x1="97.4821" y1="49.3006" x2="136.129" y2="53.7797" gradientUnits="userSpaceOnUse">
<stop stop-color="#97BC5D"/>
<stop offset="1" stop-color="#C0D997"/>
</linearGradient>
<linearGradient id="paint2_linear_737_311" x1="81.8887" y1="53.5014" x2="120.561" y2="57.9682" gradientUnits="userSpaceOnUse">
<stop stop-color="#97BC5D"/>
<stop offset="1" stop-color="#C0D997"/>
</linearGradient>
</defs>
</svg>
