<svg width="334" height="230" viewBox="0 0 334 230" fill="none" xmlns="http://www.w3.org/2000/svg">
<path d="M111.445 170.3C110.458 170.3 109.558 170.127 108.745 169.78C107.932 169.433 107.232 168.937 106.645 168.29C106.058 167.637 105.605 166.85 105.285 165.93C104.972 165.003 104.815 163.96 104.815 162.8C104.815 161.267 105.088 159.94 105.635 158.82C106.182 157.7 106.952 156.837 107.945 156.23C108.938 155.617 110.105 155.31 111.445 155.31C113.058 155.31 114.358 155.687 115.345 156.44C116.332 157.187 117.012 158.21 117.385 159.51L115.585 159.88C115.285 159.007 114.792 158.31 114.105 157.79C113.418 157.27 112.562 157.01 111.535 157.01C110.462 157.003 109.568 157.243 108.855 157.73C108.148 158.21 107.615 158.887 107.255 159.76C106.895 160.633 106.712 161.647 106.705 162.8C106.698 163.947 106.875 164.953 107.235 165.82C107.595 166.687 108.132 167.367 108.845 167.86C109.565 168.347 110.462 168.593 111.535 168.6C112.462 168.607 113.242 168.43 113.875 168.07C114.508 167.71 114.998 167.19 115.345 166.51C115.692 165.83 115.902 165.013 115.975 164.06H112.915V162.59H117.855C117.875 162.723 117.885 162.883 117.885 163.07C117.892 163.25 117.895 163.373 117.895 163.44C117.895 164.753 117.648 165.93 117.155 166.97C116.668 168.003 115.945 168.817 114.985 169.41C114.032 170.003 112.852 170.3 111.445 170.3ZM119.892 170V159.2H121.482V161.81L121.222 161.47C121.349 161.137 121.512 160.83 121.712 160.55C121.919 160.27 122.149 160.04 122.402 159.86C122.682 159.633 122.999 159.46 123.352 159.34C123.706 159.22 124.066 159.15 124.432 159.13C124.799 159.103 125.142 159.127 125.462 159.2V160.87C125.089 160.77 124.679 160.743 124.232 160.79C123.786 160.837 123.372 161 122.992 161.28C122.646 161.527 122.376 161.827 122.182 162.18C121.996 162.533 121.866 162.917 121.792 163.33C121.719 163.737 121.682 164.153 121.682 164.58V170H119.892ZM131.838 170.3C130.778 170.3 129.851 170.067 129.058 169.6C128.271 169.127 127.658 168.47 127.218 167.63C126.778 166.783 126.558 165.797 126.558 164.67C126.558 163.49 126.774 162.47 127.208 161.61C127.641 160.743 128.244 160.077 129.018 159.61C129.798 159.137 130.711 158.9 131.758 158.9C132.844 158.9 133.768 159.15 134.528 159.65C135.294 160.15 135.868 160.863 136.248 161.79C136.634 162.717 136.801 163.82 136.748 165.1H134.948V164.46C134.928 163.133 134.658 162.143 134.138 161.49C133.618 160.83 132.844 160.5 131.818 160.5C130.718 160.5 129.881 160.853 129.308 161.56C128.734 162.267 128.448 163.28 128.448 164.6C128.448 165.873 128.734 166.86 129.308 167.56C129.881 168.26 130.698 168.61 131.758 168.61C132.471 168.61 133.091 168.447 133.618 168.12C134.144 167.793 134.558 167.323 134.858 166.71L136.568 167.3C136.148 168.253 135.514 168.993 134.668 169.52C133.828 170.04 132.884 170.3 131.838 170.3ZM127.848 165.1V163.67H135.828V165.1H127.848ZM143.654 170.3C142.594 170.3 141.668 170.067 140.874 169.6C140.088 169.127 139.474 168.47 139.034 167.63C138.594 166.783 138.374 165.797 138.374 164.67C138.374 163.49 138.591 162.47 139.024 161.61C139.458 160.743 140.061 160.077 140.834 159.61C141.614 159.137 142.528 158.9 143.574 158.9C144.661 158.9 145.584 159.15 146.344 159.65C147.111 160.15 147.684 160.863 148.064 161.79C148.451 162.717 148.618 163.82 148.564 165.1H146.764V164.46C146.744 163.133 146.474 162.143 145.954 161.49C145.434 160.83 144.661 160.5 143.634 160.5C142.534 160.5 141.698 160.853 141.124 161.56C140.551 162.267 140.264 163.28 140.264 164.6C140.264 165.873 140.551 166.86 141.124 167.56C141.698 168.26 142.514 168.61 143.574 168.61C144.288 168.61 144.908 168.447 145.434 168.12C145.961 167.793 146.374 167.323 146.674 166.71L148.384 167.3C147.964 168.253 147.331 168.993 146.484 169.52C145.644 170.04 144.701 170.3 143.654 170.3ZM139.664 165.1V163.67H147.644V165.1H139.664ZM158.188 170V164.59C158.188 164.077 158.141 163.583 158.048 163.11C157.961 162.637 157.804 162.213 157.578 161.84C157.358 161.46 157.058 161.16 156.678 160.94C156.304 160.72 155.831 160.61 155.258 160.61C154.811 160.61 154.404 160.687 154.038 160.84C153.678 160.987 153.368 161.213 153.108 161.52C152.848 161.827 152.644 162.213 152.498 162.68C152.358 163.14 152.288 163.683 152.288 164.31L151.118 163.95C151.118 162.903 151.304 162.007 151.678 161.26C152.058 160.507 152.588 159.93 153.268 159.53C153.954 159.123 154.761 158.92 155.688 158.92C156.388 158.92 156.984 159.03 157.478 159.25C157.971 159.47 158.381 159.763 158.708 160.13C159.034 160.49 159.291 160.897 159.478 161.35C159.664 161.797 159.794 162.253 159.868 162.72C159.948 163.18 159.988 163.617 159.988 164.03V170H158.188ZM150.488 170V159.2H152.088V162.09H152.288V170H150.488ZM179.501 170L179.511 163.09C179.511 162.283 179.295 161.653 178.861 161.2C178.435 160.74 177.878 160.51 177.191 160.51C176.791 160.51 176.411 160.603 176.051 160.79C175.691 160.97 175.398 161.257 175.171 161.65C174.945 162.037 174.831 162.533 174.831 163.14L173.891 162.76C173.878 161.993 174.035 161.323 174.361 160.75C174.695 160.17 175.148 159.72 175.721 159.4C176.295 159.08 176.941 158.92 177.661 158.92C178.788 158.92 179.675 159.263 180.321 159.95C180.968 160.63 181.291 161.547 181.291 162.7L181.281 170H179.501ZM166.581 170V159.2H168.171V162.09H168.371V170H166.581ZM173.051 170L173.061 163.16C173.061 162.333 172.848 161.687 172.421 161.22C171.995 160.747 171.428 160.51 170.721 160.51C170.021 160.51 169.455 160.75 169.021 161.23C168.588 161.71 168.371 162.347 168.371 163.14L167.431 162.58C167.431 161.88 167.598 161.253 167.931 160.7C168.265 160.147 168.718 159.713 169.291 159.4C169.865 159.08 170.515 158.92 171.241 158.92C171.968 158.92 172.601 159.073 173.141 159.38C173.681 159.687 174.098 160.127 174.391 160.7C174.685 161.267 174.831 161.943 174.831 162.73L174.821 170H173.051ZM188.398 170.3C187.325 170.3 186.398 170.057 185.618 169.57C184.845 169.083 184.248 168.41 183.828 167.55C183.408 166.69 183.198 165.703 183.198 164.59C183.198 163.457 183.412 162.463 183.838 161.61C184.265 160.757 184.868 160.093 185.648 159.62C186.428 159.14 187.345 158.9 188.398 158.9C189.478 158.9 190.408 159.143 191.188 159.63C191.968 160.11 192.565 160.78 192.978 161.64C193.398 162.493 193.608 163.477 193.608 164.59C193.608 165.717 193.398 166.71 192.978 167.57C192.558 168.423 191.958 169.093 191.178 169.58C190.398 170.06 189.472 170.3 188.398 170.3ZM188.398 168.61C189.518 168.61 190.352 168.237 190.898 167.49C191.445 166.743 191.718 165.777 191.718 164.59C191.718 163.37 191.442 162.4 190.888 161.68C190.335 160.953 189.505 160.59 188.398 160.59C187.645 160.59 187.025 160.76 186.538 161.1C186.052 161.44 185.688 161.91 185.448 162.51C185.208 163.11 185.088 163.803 185.088 164.59C185.088 165.803 185.368 166.777 185.928 167.51C186.488 168.243 187.312 168.61 188.398 168.61ZM203.5 170V164.59C203.5 164.077 203.453 163.583 203.36 163.11C203.273 162.637 203.117 162.213 202.89 161.84C202.67 161.46 202.37 161.16 201.99 160.94C201.617 160.72 201.143 160.61 200.57 160.61C200.123 160.61 199.717 160.687 199.35 160.84C198.99 160.987 198.68 161.213 198.42 161.52C198.16 161.827 197.957 162.213 197.81 162.68C197.67 163.14 197.6 163.683 197.6 164.31L196.43 163.95C196.43 162.903 196.617 162.007 196.99 161.26C197.37 160.507 197.9 159.93 198.58 159.53C199.267 159.123 200.073 158.92 201 158.92C201.7 158.92 202.297 159.03 202.79 159.25C203.283 159.47 203.693 159.763 204.02 160.13C204.347 160.49 204.603 160.897 204.79 161.35C204.977 161.797 205.107 162.253 205.18 162.72C205.26 163.18 205.3 163.617 205.3 164.03V170H203.5ZM195.8 170V159.2H197.4V162.09H197.6V170H195.8ZM212.482 170.3C211.422 170.3 210.496 170.067 209.702 169.6C208.916 169.127 208.302 168.47 207.862 167.63C207.422 166.783 207.202 165.797 207.202 164.67C207.202 163.49 207.419 162.47 207.852 161.61C208.286 160.743 208.889 160.077 209.662 159.61C210.442 159.137 211.356 158.9 212.402 158.9C213.489 158.9 214.412 159.15 215.172 159.65C215.939 160.15 216.512 160.863 216.892 161.79C217.279 162.717 217.446 163.82 217.392 165.1H215.592V164.46C215.572 163.133 215.302 162.143 214.782 161.49C214.262 160.83 213.489 160.5 212.462 160.5C211.362 160.5 210.526 160.853 209.952 161.56C209.379 162.267 209.092 163.28 209.092 164.6C209.092 165.873 209.379 166.86 209.952 167.56C210.526 168.26 211.342 168.61 212.402 168.61C213.116 168.61 213.736 168.447 214.262 168.12C214.789 167.793 215.202 167.323 215.502 166.71L217.212 167.3C216.792 168.253 216.159 168.993 215.312 169.52C214.472 170.04 213.529 170.3 212.482 170.3ZM208.492 165.1V163.67H216.472V165.1H208.492ZM220.923 174.8L223.013 169.12L223.043 170.8L218.323 159.2H220.193L223.893 168.53H223.253L226.723 159.2H228.533L222.653 174.8H220.923Z" fill="#3C3F34"/>
<path d="M4.13563 203V191.48H10.7516V192.656H5.31163V196.656H9.79163V197.824H5.31163V203H4.13563ZM12.3581 192.72V191.4H13.5341V192.72H12.3581ZM12.3581 203V194.36H13.5341V203H12.3581ZM20.6365 203C20.1512 203.101 19.6712 203.141 19.1965 203.12C18.7272 203.099 18.3058 202.997 17.9325 202.816C17.5645 202.635 17.2845 202.352 17.0925 201.968C16.9378 201.648 16.8525 201.325 16.8365 201C16.8258 200.669 16.8205 200.293 16.8205 199.872V191.96H17.9885V199.824C17.9885 200.187 17.9912 200.491 17.9965 200.736C18.0072 200.976 18.0632 201.189 18.1645 201.376C18.3565 201.733 18.6605 201.947 19.0765 202.016C19.4978 202.085 20.0178 202.069 20.6365 201.968V203ZM14.9725 195.368V194.36H20.6365V195.368H14.9725ZM26.3979 203V193.72C26.3979 193.496 26.4085 193.275 26.4299 193.056C26.4565 192.837 26.5072 192.629 26.5819 192.432C26.6565 192.229 26.7739 192.043 26.9339 191.872C27.1099 191.68 27.3019 191.541 27.5099 191.456C27.7179 191.365 27.9339 191.307 28.1579 191.28C28.3872 191.253 28.6112 191.24 28.8299 191.24H29.9339V192.232H28.9099C28.4619 192.232 28.1259 192.341 27.9019 192.56C27.6832 192.779 27.5739 193.123 27.5739 193.592V203H26.3979ZM24.9019 195.368V194.36H29.9339V195.368H24.9019ZM34.5093 203.24C33.6506 203.24 32.9173 203.045 32.3093 202.656C31.7013 202.267 31.2346 201.728 30.9093 201.04C30.5839 200.352 30.4213 199.563 30.4213 198.672C30.4213 197.765 30.5866 196.971 30.9173 196.288C31.2479 195.605 31.7173 195.075 32.3253 194.696C32.9386 194.312 33.6666 194.12 34.5093 194.12C35.3733 194.12 36.1093 194.315 36.7173 194.704C37.3306 195.088 37.7973 195.624 38.1173 196.312C38.4426 196.995 38.6053 197.781 38.6053 198.672C38.6053 199.579 38.4426 200.376 38.1173 201.064C37.7919 201.747 37.3226 202.28 36.7093 202.664C36.0959 203.048 35.3626 203.24 34.5093 203.24ZM34.5093 202.112C35.4693 202.112 36.1839 201.795 36.6533 201.16C37.1226 200.52 37.3573 199.691 37.3573 198.672C37.3573 197.627 37.1199 196.795 36.6453 196.176C36.1759 195.557 35.4639 195.248 34.5093 195.248C33.8639 195.248 33.3306 195.395 32.9093 195.688C32.4933 195.976 32.1813 196.379 31.9733 196.896C31.7706 197.408 31.6693 198 31.6693 198.672C31.6693 199.712 31.9093 200.547 32.3893 201.176C32.8693 201.8 33.5759 202.112 34.5093 202.112ZM40.37 203V194.36H41.426V196.44L41.218 196.168C41.314 195.912 41.4393 195.677 41.594 195.464C41.7487 195.245 41.9167 195.067 42.098 194.928C42.322 194.731 42.5833 194.581 42.882 194.48C43.1807 194.373 43.482 194.312 43.786 194.296C44.09 194.275 44.3673 194.296 44.618 194.36V195.464C44.3033 195.384 43.9593 195.365 43.586 195.408C43.2127 195.451 42.8687 195.6 42.554 195.856C42.266 196.08 42.05 196.349 41.906 196.664C41.762 196.973 41.666 197.304 41.618 197.656C41.57 198.003 41.546 198.347 41.546 198.688V203H40.37ZM53.2188 203.24C52.4241 203.24 51.7521 203.04 51.2028 202.64C50.6534 202.235 50.2374 201.688 49.9548 201C49.6721 200.307 49.5308 199.531 49.5308 198.672C49.5308 197.797 49.6721 197.019 49.9548 196.336C50.2428 195.648 50.6641 195.107 51.2188 194.712C51.7734 194.317 52.4561 194.12 53.2668 194.12C54.0561 194.12 54.7334 194.32 55.2988 194.72C55.8641 195.12 56.2961 195.664 56.5948 196.352C56.8988 197.04 57.0508 197.813 57.0508 198.672C57.0508 199.536 56.8988 200.312 56.5948 201C56.2908 201.688 55.8534 202.235 55.2828 202.64C54.7121 203.04 54.0241 203.24 53.2188 203.24ZM49.3308 206.84V194.36H50.3868V200.864H50.5148V206.84H49.3308ZM53.0988 202.144C53.7014 202.144 54.2028 201.992 54.6028 201.688C55.0028 201.384 55.3014 200.971 55.4988 200.448C55.7014 199.92 55.8028 199.328 55.8028 198.672C55.8028 198.021 55.7041 197.435 55.5068 196.912C55.3094 196.389 55.0081 195.976 54.6028 195.672C54.2028 195.368 53.6934 195.216 53.0748 195.216C52.4721 195.216 51.9708 195.363 51.5708 195.656C51.1761 195.949 50.8801 196.357 50.6828 196.88C50.4854 197.397 50.3868 197.995 50.3868 198.672C50.3868 199.339 50.4854 199.936 50.6828 200.464C50.8801 200.987 51.1788 201.397 51.5788 201.696C51.9788 201.995 52.4854 202.144 53.0988 202.144ZM58.8075 203V194.36H59.8635V196.44L59.6555 196.168C59.7515 195.912 59.8768 195.677 60.0315 195.464C60.1862 195.245 60.3542 195.067 60.5355 194.928C60.7595 194.731 61.0208 194.581 61.3195 194.48C61.6182 194.373 61.9195 194.312 62.2235 194.296C62.5275 194.275 62.8048 194.296 63.0555 194.36V195.464C62.7408 195.384 62.3968 195.365 62.0235 195.408C61.6502 195.451 61.3062 195.6 60.9915 195.856C60.7035 196.08 60.4875 196.349 60.3435 196.664C60.1995 196.973 60.1035 197.304 60.0555 197.656C60.0075 198.003 59.9835 198.347 59.9835 198.688V203H58.8075ZM68.0249 203.24C67.1662 203.24 66.4329 203.045 65.8249 202.656C65.2169 202.267 64.7502 201.728 64.4249 201.04C64.0995 200.352 63.9369 199.563 63.9369 198.672C63.9369 197.765 64.1022 196.971 64.4329 196.288C64.7635 195.605 65.2329 195.075 65.8409 194.696C66.4542 194.312 67.1822 194.12 68.0249 194.12C68.8889 194.12 69.6249 194.315 70.2329 194.704C70.8462 195.088 71.3129 195.624 71.6329 196.312C71.9582 196.995 72.1209 197.781 72.1209 198.672C72.1209 199.579 71.9582 200.376 71.6329 201.064C71.3075 201.747 70.8382 202.28 70.2249 202.664C69.6115 203.048 68.8782 203.24 68.0249 203.24ZM68.0249 202.112C68.9849 202.112 69.6995 201.795 70.1689 201.16C70.6382 200.52 70.8729 199.691 70.8729 198.672C70.8729 197.627 70.6355 196.795 70.1609 196.176C69.6915 195.557 68.9795 195.248 68.0249 195.248C67.3795 195.248 66.8462 195.395 66.4249 195.688C66.0089 195.976 65.6969 196.379 65.4889 196.896C65.2862 197.408 65.1849 198 65.1849 198.672C65.1849 199.712 65.4249 200.547 65.9049 201.176C66.3849 201.8 67.0915 202.112 68.0249 202.112ZM84.1896 203L84.1976 197.328C84.1976 196.661 84.011 196.139 83.6376 195.76C83.2696 195.376 82.8003 195.184 82.2296 195.184C81.9043 195.184 81.587 195.259 81.2776 195.408C80.9683 195.557 80.7123 195.797 80.5096 196.128C80.3123 196.459 80.2136 196.891 80.2136 197.424L79.5176 197.224C79.5016 196.605 79.6216 196.064 79.8776 195.6C80.139 195.136 80.4963 194.776 80.9496 194.52C81.4083 194.259 81.9256 194.128 82.5016 194.128C83.371 194.128 84.067 194.397 84.5896 194.936C85.1123 195.469 85.3736 196.192 85.3736 197.104L85.3656 203H84.1896ZM73.8776 203V194.36H74.9336V196.488H75.0616V203H73.8776ZM79.0456 203L79.0536 197.408C79.0536 196.72 78.8696 196.179 78.5016 195.784C78.139 195.384 77.659 195.184 77.0616 195.184C76.4643 195.184 75.9816 195.389 75.6136 195.8C75.2456 196.205 75.0616 196.747 75.0616 197.424L74.3576 197.04C74.3576 196.485 74.4883 195.989 74.7496 195.552C75.011 195.109 75.3683 194.763 75.8216 194.512C76.275 194.256 76.7896 194.128 77.3656 194.128C77.915 194.128 78.403 194.245 78.8296 194.48C79.2616 194.715 79.6003 195.056 79.8456 195.504C80.091 195.952 80.2136 196.496 80.2136 197.136L80.2056 203H79.0456ZM91.3281 203.24C90.5335 203.24 89.8615 203.04 89.3121 202.64C88.7628 202.235 88.3468 201.688 88.0641 201C87.7815 200.307 87.6401 199.531 87.6401 198.672C87.6401 197.797 87.7815 197.019 88.0641 196.336C88.3521 195.648 88.7735 195.107 89.3281 194.712C89.8828 194.317 90.5655 194.12 91.3761 194.12C92.1655 194.12 92.8428 194.32 93.4081 194.72C93.9735 195.12 94.4055 195.664 94.7041 196.352C95.0081 197.04 95.1601 197.813 95.1601 198.672C95.1601 199.536 95.0081 200.312 94.7041 201C94.4001 201.688 93.9628 202.235 93.3921 202.64C92.8215 203.04 92.1335 203.24 91.3281 203.24ZM87.4401 206.84V194.36H88.4961V200.864H88.6241V206.84H87.4401ZM91.2081 202.144C91.8108 202.144 92.3121 201.992 92.7121 201.688C93.1121 201.384 93.4108 200.971 93.6081 200.448C93.8108 199.92 93.9121 199.328 93.9121 198.672C93.9121 198.021 93.8135 197.435 93.6161 196.912C93.4188 196.389 93.1175 195.976 92.7121 195.672C92.3121 195.368 91.8028 195.216 91.1841 195.216C90.5815 195.216 90.0801 195.363 89.6801 195.656C89.2855 195.949 88.9895 196.357 88.7921 196.88C88.5948 197.397 88.4961 197.995 88.4961 198.672C88.4961 199.339 88.5948 199.936 88.7921 200.464C88.9895 200.987 89.2881 201.397 89.6881 201.696C90.0881 201.995 90.5948 202.144 91.2081 202.144ZM101.621 203C101.136 203.101 100.656 203.141 100.181 203.12C99.7115 203.099 99.2902 202.997 98.9169 202.816C98.5489 202.635 98.2689 202.352 98.0769 201.968C97.9222 201.648 97.8369 201.325 97.8209 201C97.8102 200.669 97.8049 200.293 97.8049 199.872V191.96H98.9729V199.824C98.9729 200.187 98.9755 200.491 98.9809 200.736C98.9915 200.976 99.0475 201.189 99.1489 201.376C99.3409 201.733 99.6449 201.947 100.061 202.016C100.482 202.085 101.002 202.069 101.621 201.968V203ZM95.9569 195.368V194.36H101.621V195.368H95.9569ZM111.23 203C110.745 203.101 110.265 203.141 109.79 203.12C109.321 203.099 108.9 202.997 108.526 202.816C108.158 202.635 107.878 202.352 107.686 201.968C107.532 201.648 107.446 201.325 107.43 201C107.42 200.669 107.414 200.293 107.414 199.872V191.96H108.582V199.824C108.582 200.187 108.585 200.491 108.59 200.736C108.601 200.976 108.657 201.189 108.758 201.376C108.95 201.733 109.254 201.947 109.67 202.016C110.092 202.085 110.612 202.069 111.23 201.968V203ZM105.566 195.368V194.36H111.23V195.368H105.566ZM112.933 203V194.36H113.989V196.44L113.781 196.168C113.877 195.912 114.002 195.677 114.157 195.464C114.311 195.245 114.479 195.067 114.661 194.928C114.885 194.731 115.146 194.581 115.445 194.48C115.743 194.373 116.045 194.312 116.349 194.296C116.653 194.275 116.93 194.296 117.181 194.36V195.464C116.866 195.384 116.522 195.365 116.149 195.408C115.775 195.451 115.431 195.6 115.117 195.856C114.829 196.08 114.613 196.349 114.469 196.664C114.325 196.973 114.229 197.304 114.181 197.656C114.133 198.003 114.109 198.347 114.109 198.688V203H112.933ZM120.842 203.24C120.191 203.24 119.645 203.123 119.202 202.888C118.765 202.653 118.437 202.341 118.218 201.952C117.999 201.563 117.89 201.139 117.89 200.68C117.89 200.211 117.983 199.811 118.17 199.48C118.362 199.144 118.621 198.869 118.946 198.656C119.277 198.443 119.658 198.28 120.09 198.168C120.527 198.061 121.01 197.968 121.538 197.888C122.071 197.803 122.591 197.731 123.098 197.672C123.61 197.608 124.058 197.547 124.442 197.488L124.026 197.744C124.042 196.891 123.877 196.259 123.53 195.848C123.183 195.437 122.581 195.232 121.722 195.232C121.13 195.232 120.629 195.365 120.218 195.632C119.813 195.899 119.527 196.32 119.362 196.896L118.218 196.56C118.415 195.787 118.813 195.187 119.41 194.76C120.007 194.333 120.783 194.12 121.738 194.12C122.527 194.12 123.197 194.269 123.746 194.568C124.301 194.861 124.693 195.288 124.922 195.848C125.029 196.099 125.098 196.379 125.13 196.688C125.162 196.997 125.178 197.312 125.178 197.632V203H124.13V200.832L124.434 200.96C124.141 201.701 123.685 202.267 123.066 202.656C122.447 203.045 121.706 203.24 120.842 203.24ZM120.978 202.224C121.527 202.224 122.007 202.125 122.418 201.928C122.829 201.731 123.159 201.461 123.41 201.12C123.661 200.773 123.823 200.384 123.898 199.952C123.962 199.675 123.997 199.371 124.002 199.04C124.007 198.704 124.01 198.453 124.01 198.288L124.458 198.52C124.058 198.573 123.623 198.627 123.154 198.68C122.69 198.733 122.231 198.795 121.778 198.864C121.33 198.933 120.925 199.016 120.562 199.112C120.317 199.181 120.079 199.28 119.85 199.408C119.621 199.531 119.431 199.696 119.282 199.904C119.138 200.112 119.066 200.371 119.066 200.68C119.066 200.931 119.127 201.173 119.25 201.408C119.378 201.643 119.581 201.837 119.858 201.992C120.141 202.147 120.514 202.224 120.978 202.224ZM133.501 203V198.592C133.501 198.112 133.455 197.672 133.365 197.272C133.274 196.867 133.127 196.515 132.925 196.216C132.727 195.912 132.469 195.677 132.149 195.512C131.834 195.347 131.45 195.264 130.997 195.264C130.581 195.264 130.213 195.336 129.893 195.48C129.578 195.624 129.311 195.832 129.093 196.104C128.879 196.371 128.717 196.696 128.605 197.08C128.493 197.464 128.437 197.901 128.437 198.392L127.605 198.208C127.605 197.323 127.759 196.579 128.069 195.976C128.378 195.373 128.805 194.917 129.349 194.608C129.893 194.299 130.517 194.144 131.221 194.144C131.738 194.144 132.189 194.224 132.573 194.384C132.962 194.544 133.29 194.76 133.557 195.032C133.829 195.304 134.047 195.616 134.213 195.968C134.378 196.315 134.498 196.685 134.573 197.08C134.647 197.469 134.685 197.859 134.685 198.248V203H133.501ZM127.253 203V194.36H128.317V196.488H128.437V203H127.253ZM139.985 203.232C138.971 203.232 138.137 203.013 137.481 202.576C136.83 202.139 136.43 201.531 136.281 200.752L137.481 200.552C137.609 201.043 137.899 201.435 138.353 201.728C138.811 202.016 139.377 202.16 140.049 202.16C140.705 202.16 141.222 202.024 141.601 201.752C141.979 201.475 142.169 201.099 142.169 200.624C142.169 200.357 142.107 200.141 141.985 199.976C141.867 199.805 141.625 199.648 141.257 199.504C140.889 199.36 140.339 199.189 139.609 198.992C138.825 198.779 138.211 198.565 137.769 198.352C137.326 198.139 137.011 197.893 136.825 197.616C136.638 197.333 136.545 196.989 136.545 196.584C136.545 196.093 136.683 195.664 136.961 195.296C137.238 194.923 137.622 194.635 138.113 194.432C138.603 194.224 139.174 194.12 139.825 194.12C140.475 194.12 141.057 194.227 141.569 194.44C142.086 194.648 142.502 194.941 142.817 195.32C143.131 195.699 143.318 196.139 143.377 196.64L142.177 196.856C142.097 196.349 141.843 195.949 141.417 195.656C140.995 195.357 140.459 195.203 139.809 195.192C139.195 195.176 138.697 195.293 138.313 195.544C137.929 195.789 137.737 196.117 137.737 196.528C137.737 196.757 137.806 196.955 137.945 197.12C138.083 197.28 138.334 197.432 138.697 197.576C139.065 197.72 139.587 197.877 140.265 198.048C141.059 198.251 141.683 198.464 142.137 198.688C142.59 198.912 142.913 199.176 143.105 199.48C143.297 199.784 143.393 200.16 143.393 200.608C143.393 201.424 143.089 202.067 142.481 202.536C141.878 203 141.046 203.232 139.985 203.232ZM147.639 203.24C146.988 203.24 146.442 203.123 145.999 202.888C145.562 202.653 145.234 202.341 145.015 201.952C144.796 201.563 144.687 201.139 144.687 200.68C144.687 200.211 144.78 199.811 144.967 199.48C145.159 199.144 145.418 198.869 145.743 198.656C146.074 198.443 146.455 198.28 146.887 198.168C147.324 198.061 147.807 197.968 148.335 197.888C148.868 197.803 149.388 197.731 149.895 197.672C150.407 197.608 150.855 197.547 151.239 197.488L150.823 197.744C150.839 196.891 150.674 196.259 150.327 195.848C149.98 195.437 149.378 195.232 148.519 195.232C147.927 195.232 147.426 195.365 147.015 195.632C146.61 195.899 146.324 196.32 146.159 196.896L145.015 196.56C145.212 195.787 145.61 195.187 146.207 194.76C146.804 194.333 147.58 194.12 148.535 194.12C149.324 194.12 149.994 194.269 150.543 194.568C151.098 194.861 151.49 195.288 151.719 195.848C151.826 196.099 151.895 196.379 151.927 196.688C151.959 196.997 151.975 197.312 151.975 197.632V203H150.927V200.832L151.231 200.96C150.938 201.701 150.482 202.267 149.863 202.656C149.244 203.045 148.503 203.24 147.639 203.24ZM147.775 202.224C148.324 202.224 148.804 202.125 149.215 201.928C149.626 201.731 149.956 201.461 150.207 201.12C150.458 200.773 150.62 200.384 150.695 199.952C150.759 199.675 150.794 199.371 150.799 199.04C150.804 198.704 150.807 198.453 150.807 198.288L151.255 198.52C150.855 198.573 150.42 198.627 149.951 198.68C149.487 198.733 149.028 198.795 148.575 198.864C148.127 198.933 147.722 199.016 147.359 199.112C147.114 199.181 146.876 199.28 146.647 199.408C146.418 199.531 146.228 199.696 146.079 199.904C145.935 200.112 145.863 200.371 145.863 200.68C145.863 200.931 145.924 201.173 146.047 201.408C146.175 201.643 146.378 201.837 146.655 201.992C146.938 202.147 147.311 202.224 147.775 202.224ZM157.641 203.24C156.772 203.24 156.036 203.045 155.434 202.656C154.831 202.267 154.372 201.731 154.058 201.048C153.748 200.36 153.588 199.571 153.578 198.68C153.588 197.773 153.754 196.979 154.074 196.296C154.394 195.608 154.855 195.075 155.458 194.696C156.06 194.312 156.791 194.12 157.65 194.12C158.524 194.12 159.284 194.333 159.93 194.76C160.58 195.187 161.026 195.771 161.266 196.512L160.114 196.88C159.911 196.363 159.588 195.963 159.146 195.68C158.708 195.392 158.207 195.248 157.641 195.248C157.007 195.248 156.482 195.395 156.066 195.688C155.65 195.976 155.34 196.379 155.138 196.896C154.935 197.413 154.831 198.008 154.826 198.68C154.836 199.715 155.076 200.547 155.546 201.176C156.015 201.8 156.714 202.112 157.641 202.112C158.228 202.112 158.727 201.979 159.138 201.712C159.554 201.44 159.868 201.045 160.082 200.528L161.266 200.88C160.946 201.648 160.476 202.235 159.858 202.64C159.239 203.04 158.5 203.24 157.641 203.24ZM167.621 203C167.136 203.101 166.656 203.141 166.181 203.12C165.712 203.099 165.29 202.997 164.917 202.816C164.549 202.635 164.269 202.352 164.077 201.968C163.922 201.648 163.837 201.325 163.821 201C163.81 200.669 163.805 200.293 163.805 199.872V191.96H164.973V199.824C164.973 200.187 164.976 200.491 164.981 200.736C164.992 200.976 165.048 201.189 165.149 201.376C165.341 201.733 165.645 201.947 166.061 202.016C166.482 202.085 167.002 202.069 167.621 201.968V203ZM161.957 195.368V194.36H167.621V195.368H161.957ZM169.483 192.72V191.4H170.659V192.72H169.483ZM169.483 203V194.36H170.659V203H169.483ZM176.666 203.24C175.807 203.24 175.074 203.045 174.466 202.656C173.858 202.267 173.391 201.728 173.066 201.04C172.74 200.352 172.578 199.563 172.578 198.672C172.578 197.765 172.743 196.971 173.074 196.288C173.404 195.605 173.874 195.075 174.482 194.696C175.095 194.312 175.823 194.12 176.666 194.12C177.53 194.12 178.266 194.315 178.874 194.704C179.487 195.088 179.954 195.624 180.274 196.312C180.599 196.995 180.762 197.781 180.762 198.672C180.762 199.579 180.599 200.376 180.274 201.064C179.948 201.747 179.479 202.28 178.866 202.664C178.252 203.048 177.519 203.24 176.666 203.24ZM176.666 202.112C177.626 202.112 178.34 201.795 178.81 201.16C179.279 200.52 179.514 199.691 179.514 198.672C179.514 197.627 179.276 196.795 178.802 196.176C178.332 195.557 177.62 195.248 176.666 195.248C176.02 195.248 175.487 195.395 175.066 195.688C174.65 195.976 174.338 196.379 174.13 196.896C173.927 197.408 173.826 198 173.826 198.672C173.826 199.712 174.066 200.547 174.546 201.176C175.026 201.8 175.732 202.112 176.666 202.112ZM188.766 203V198.592C188.766 198.112 188.721 197.672 188.63 197.272C188.54 196.867 188.393 196.515 188.19 196.216C187.993 195.912 187.734 195.677 187.414 195.512C187.1 195.347 186.716 195.264 186.262 195.264C185.846 195.264 185.478 195.336 185.158 195.48C184.844 195.624 184.577 195.832 184.358 196.104C184.145 196.371 183.982 196.696 183.87 197.08C183.758 197.464 183.702 197.901 183.702 198.392L182.87 198.208C182.87 197.323 183.025 196.579 183.334 195.976C183.644 195.373 184.07 194.917 184.614 194.608C185.158 194.299 185.782 194.144 186.486 194.144C187.004 194.144 187.454 194.224 187.838 194.384C188.228 194.544 188.556 194.76 188.822 195.032C189.094 195.304 189.313 195.616 189.478 195.968C189.644 196.315 189.764 196.685 189.838 197.08C189.913 197.469 189.95 197.859 189.95 198.248V203H188.766ZM182.518 203V194.36H183.582V196.488H183.702V203H182.518ZM195.25 203.232C194.237 203.232 193.402 203.013 192.746 202.576C192.096 202.139 191.696 201.531 191.546 200.752L192.746 200.552C192.874 201.043 193.165 201.435 193.618 201.728C194.077 202.016 194.642 202.16 195.314 202.16C195.97 202.16 196.488 202.024 196.866 201.752C197.245 201.475 197.434 201.099 197.434 200.624C197.434 200.357 197.373 200.141 197.25 199.976C197.133 199.805 196.89 199.648 196.522 199.504C196.154 199.36 195.605 199.189 194.874 198.992C194.09 198.779 193.477 198.565 193.034 198.352C192.592 198.139 192.277 197.893 192.09 197.616C191.904 197.333 191.81 196.989 191.81 196.584C191.81 196.093 191.949 195.664 192.226 195.296C192.504 194.923 192.888 194.635 193.378 194.432C193.869 194.224 194.44 194.12 195.09 194.12C195.741 194.12 196.322 194.227 196.834 194.44C197.352 194.648 197.768 194.941 198.082 195.32C198.397 195.699 198.584 196.139 198.642 196.64L197.442 196.856C197.362 196.349 197.109 195.949 196.682 195.656C196.261 195.357 195.725 195.203 195.074 195.192C194.461 195.176 193.962 195.293 193.578 195.544C193.194 195.789 193.002 196.117 193.002 196.528C193.002 196.757 193.072 196.955 193.21 197.12C193.349 197.28 193.6 197.432 193.962 197.576C194.33 197.72 194.853 197.877 195.53 198.048C196.325 198.251 196.949 198.464 197.402 198.688C197.856 198.912 198.178 199.176 198.37 199.48C198.562 199.784 198.658 200.16 198.658 200.608C198.658 201.424 198.354 202.067 197.746 202.536C197.144 203 196.312 203.232 195.25 203.232ZM200.273 204.672L200.345 204.088C200.558 204.104 200.713 204.061 200.809 203.96C200.905 203.859 200.963 203.723 200.985 203.552C201.006 203.381 201.011 203.197 201.001 203H200.273V201.312H201.641V203.32C201.641 203.811 201.515 204.179 201.265 204.424C201.019 204.669 200.689 204.752 200.273 204.672ZM212.55 203.24C211.403 203.24 210.435 202.987 209.646 202.48C208.856 201.968 208.259 201.261 207.854 200.36C207.448 199.459 207.246 198.419 207.246 197.24C207.246 196.061 207.448 195.021 207.854 194.12C208.259 193.219 208.856 192.515 209.646 192.008C210.435 191.496 211.403 191.24 212.55 191.24C213.888 191.24 214.982 191.584 215.83 192.272C216.678 192.955 217.259 193.872 217.574 195.024L216.374 195.336C216.128 194.424 215.688 193.701 215.054 193.168C214.419 192.635 213.584 192.368 212.55 192.368C211.648 192.368 210.899 192.573 210.302 192.984C209.704 193.395 209.254 193.968 208.95 194.704C208.651 195.435 208.496 196.28 208.486 197.24C208.48 198.2 208.627 199.045 208.926 199.776C209.23 200.507 209.683 201.08 210.286 201.496C210.894 201.907 211.648 202.112 212.55 202.112C213.584 202.112 214.419 201.845 215.054 201.312C215.688 200.773 216.128 200.051 216.374 199.144L217.574 199.456C217.259 200.608 216.678 201.528 215.83 202.216C214.982 202.899 213.888 203.24 212.55 203.24ZM219.339 203V194.36H220.395V196.44L220.187 196.168C220.283 195.912 220.408 195.677 220.563 195.464C220.717 195.245 220.885 195.067 221.067 194.928C221.291 194.731 221.552 194.581 221.851 194.48C222.149 194.373 222.451 194.312 222.755 194.296C223.059 194.275 223.336 194.296 223.587 194.36V195.464C223.272 195.384 222.928 195.365 222.555 195.408C222.181 195.451 221.837 195.6 221.523 195.856C221.235 196.08 221.019 196.349 220.875 196.664C220.731 196.973 220.635 197.304 220.587 197.656C220.539 198.003 220.515 198.347 220.515 198.688V203H219.339ZM226.227 206.84L227.899 202.304L227.923 203.648L224.139 194.36H225.387L228.491 202.128H227.979L230.843 194.36H232.043L227.403 206.84H226.227ZM237.312 203.24C236.518 203.24 235.846 203.04 235.297 202.64C234.747 202.235 234.331 201.688 234.049 201C233.766 200.307 233.625 199.531 233.625 198.672C233.625 197.797 233.766 197.019 234.049 196.336C234.337 195.648 234.758 195.107 235.313 194.712C235.867 194.317 236.55 194.12 237.361 194.12C238.15 194.12 238.827 194.32 239.393 194.72C239.958 195.12 240.39 195.664 240.689 196.352C240.993 197.04 241.145 197.813 241.145 198.672C241.145 199.536 240.993 200.312 240.689 201C240.385 201.688 239.947 202.235 239.377 202.64C238.806 203.04 238.118 203.24 237.312 203.24ZM233.425 206.84V194.36H234.481V200.864H234.609V206.84H233.425ZM237.193 202.144C237.795 202.144 238.297 201.992 238.697 201.688C239.097 201.384 239.395 200.971 239.593 200.448C239.795 199.92 239.897 199.328 239.897 198.672C239.897 198.021 239.798 197.435 239.601 196.912C239.403 196.389 239.102 195.976 238.697 195.672C238.297 195.368 237.787 195.216 237.169 195.216C236.566 195.216 236.065 195.363 235.665 195.656C235.27 195.949 234.974 196.357 234.777 196.88C234.579 197.397 234.481 197.995 234.481 198.672C234.481 199.339 234.579 199.936 234.777 200.464C234.974 200.987 235.273 201.397 235.673 201.696C236.073 201.995 236.579 202.144 237.193 202.144ZM247.605 203C247.12 203.101 246.64 203.141 246.165 203.12C245.696 203.099 245.275 202.997 244.901 202.816C244.533 202.635 244.253 202.352 244.061 201.968C243.907 201.648 243.821 201.325 243.805 201C243.795 200.669 243.789 200.293 243.789 199.872V191.96H244.957V199.824C244.957 200.187 244.96 200.491 244.965 200.736C244.976 200.976 245.032 201.189 245.133 201.376C245.325 201.733 245.629 201.947 246.045 202.016C246.467 202.085 246.987 202.069 247.605 201.968V203ZM241.941 195.368V194.36H247.605V195.368H241.941ZM252.603 203.24C251.744 203.24 251.011 203.045 250.403 202.656C249.795 202.267 249.328 201.728 249.003 201.04C248.678 200.352 248.515 199.563 248.515 198.672C248.515 197.765 248.68 196.971 249.011 196.288C249.342 195.605 249.811 195.075 250.419 194.696C251.032 194.312 251.76 194.12 252.603 194.12C253.467 194.12 254.203 194.315 254.811 194.704C255.424 195.088 255.891 195.624 256.211 196.312C256.536 196.995 256.699 197.781 256.699 198.672C256.699 199.579 256.536 200.376 256.211 201.064C255.886 201.747 255.416 202.28 254.803 202.664C254.19 203.048 253.456 203.24 252.603 203.24ZM252.603 202.112C253.563 202.112 254.278 201.795 254.747 201.16C255.216 200.52 255.451 199.691 255.451 198.672C255.451 197.627 255.214 196.795 254.739 196.176C254.27 195.557 253.558 195.248 252.603 195.248C251.958 195.248 251.424 195.395 251.003 195.688C250.587 195.976 250.275 196.379 250.067 196.896C249.864 197.408 249.763 198 249.763 198.672C249.763 199.712 250.003 200.547 250.483 201.176C250.963 201.8 251.67 202.112 252.603 202.112ZM264.704 203V198.592C264.704 198.112 264.658 197.672 264.568 197.272C264.477 196.867 264.33 196.515 264.128 196.216C263.93 195.912 263.672 195.677 263.352 195.512C263.037 195.347 262.653 195.264 262.2 195.264C261.784 195.264 261.416 195.336 261.096 195.48C260.781 195.624 260.514 195.832 260.296 196.104C260.082 196.371 259.92 196.696 259.808 197.08C259.696 197.464 259.64 197.901 259.64 198.392L258.808 198.208C258.808 197.323 258.962 196.579 259.272 195.976C259.581 195.373 260.008 194.917 260.552 194.608C261.096 194.299 261.72 194.144 262.424 194.144C262.941 194.144 263.392 194.224 263.776 194.384C264.165 194.544 264.493 194.76 264.76 195.032C265.032 195.304 265.25 195.616 265.416 195.968C265.581 196.315 265.701 196.685 265.776 197.08C265.85 197.469 265.888 197.859 265.888 198.248V203H264.704ZM258.456 203V194.36H259.52V196.488H259.64V203H258.456ZM271.327 192.72V191.4H272.503V192.72H271.327ZM271.327 203V194.36H272.503V203H271.327ZM278.125 203.232C277.112 203.232 276.277 203.013 275.621 202.576C274.971 202.139 274.571 201.531 274.421 200.752L275.621 200.552C275.749 201.043 276.04 201.435 276.493 201.728C276.952 202.016 277.517 202.16 278.189 202.16C278.845 202.16 279.363 202.024 279.741 201.752C280.12 201.475 280.309 201.099 280.309 200.624C280.309 200.357 280.248 200.141 280.125 199.976C280.008 199.805 279.765 199.648 279.397 199.504C279.029 199.36 278.48 199.189 277.749 198.992C276.965 198.779 276.352 198.565 275.909 198.352C275.467 198.139 275.152 197.893 274.965 197.616C274.779 197.333 274.685 196.989 274.685 196.584C274.685 196.093 274.824 195.664 275.101 195.296C275.379 194.923 275.763 194.635 276.253 194.432C276.744 194.224 277.315 194.12 277.965 194.12C278.616 194.12 279.197 194.227 279.709 194.44C280.227 194.648 280.643 194.941 280.957 195.32C281.272 195.699 281.459 196.139 281.517 196.64L280.317 196.856C280.237 196.349 279.984 195.949 279.557 195.656C279.136 195.357 278.6 195.203 277.949 195.192C277.336 195.176 276.837 195.293 276.453 195.544C276.069 195.789 275.877 196.117 275.877 196.528C275.877 196.757 275.947 196.955 276.085 197.12C276.224 197.28 276.475 197.432 276.837 197.576C277.205 197.72 277.728 197.877 278.405 198.048C279.2 198.251 279.824 198.464 280.277 198.688C280.731 198.912 281.053 199.176 281.245 199.48C281.437 199.784 281.533 200.16 281.533 200.608C281.533 201.424 281.229 202.067 280.621 202.536C280.019 203 279.187 203.232 278.125 203.232ZM296.815 203L296.823 197.328C296.823 196.661 296.636 196.139 296.263 195.76C295.895 195.376 295.425 195.184 294.855 195.184C294.529 195.184 294.212 195.259 293.903 195.408C293.593 195.557 293.337 195.797 293.135 196.128C292.937 196.459 292.839 196.891 292.839 197.424L292.143 197.224C292.127 196.605 292.247 196.064 292.503 195.6C292.764 195.136 293.121 194.776 293.575 194.52C294.033 194.259 294.551 194.128 295.127 194.128C295.996 194.128 296.692 194.397 297.215 194.936C297.737 195.469 297.999 196.192 297.999 197.104L297.991 203H296.815ZM286.503 203V194.36H287.559V196.488H287.687V203H286.503ZM291.671 203L291.679 197.408C291.679 196.72 291.495 196.179 291.127 195.784C290.764 195.384 290.284 195.184 289.687 195.184C289.089 195.184 288.607 195.389 288.239 195.8C287.871 196.205 287.687 196.747 287.687 197.424L286.983 197.04C286.983 196.485 287.113 195.989 287.375 195.552C287.636 195.109 287.993 194.763 288.447 194.512C288.9 194.256 289.415 194.128 289.991 194.128C290.54 194.128 291.028 194.245 291.455 194.48C291.887 194.715 292.225 195.056 292.471 195.504C292.716 195.952 292.839 196.496 292.839 197.136L292.831 203H291.671ZM300.233 192.72V191.4H301.409V192.72H300.233ZM300.233 203V194.36H301.409V203H300.233ZM310.048 203V198.592C310.048 198.112 310.002 197.672 309.912 197.272C309.821 196.867 309.674 196.515 309.472 196.216C309.274 195.912 309.016 195.677 308.696 195.512C308.381 195.347 307.997 195.264 307.544 195.264C307.128 195.264 306.76 195.336 306.44 195.48C306.125 195.624 305.858 195.832 305.64 196.104C305.426 196.371 305.264 196.696 305.152 197.08C305.04 197.464 304.984 197.901 304.984 198.392L304.152 198.208C304.152 197.323 304.306 196.579 304.616 195.976C304.925 195.373 305.352 194.917 305.896 194.608C306.44 194.299 307.064 194.144 307.768 194.144C308.285 194.144 308.736 194.224 309.12 194.384C309.509 194.544 309.837 194.76 310.104 195.032C310.376 195.304 310.594 195.616 310.76 195.968C310.925 196.315 311.045 196.685 311.12 197.08C311.194 197.469 311.232 197.859 311.232 198.248V203H310.048ZM303.8 203V194.36H304.864V196.488H304.984V203H303.8ZM316.917 203.24C316.074 203.24 315.343 203.053 314.725 202.68C314.111 202.307 313.634 201.781 313.293 201.104C312.951 200.427 312.781 199.632 312.781 198.72C312.781 197.776 312.949 196.96 313.285 196.272C313.621 195.584 314.093 195.053 314.701 194.68C315.314 194.307 316.037 194.12 316.869 194.12C317.722 194.12 318.45 194.317 319.053 194.712C319.655 195.101 320.111 195.661 320.421 196.392C320.73 197.123 320.871 197.995 320.845 199.008H319.645V198.592C319.623 197.472 319.381 196.627 318.917 196.056C318.458 195.485 317.786 195.2 316.901 195.2C315.973 195.2 315.261 195.501 314.765 196.104C314.274 196.707 314.029 197.565 314.029 198.68C314.029 199.768 314.274 200.613 314.765 201.216C315.261 201.813 315.962 202.112 316.869 202.112C317.487 202.112 318.026 201.971 318.485 201.688C318.949 201.4 319.314 200.987 319.581 200.448L320.677 200.872C320.335 201.624 319.831 202.208 319.165 202.624C318.503 203.035 317.754 203.24 316.917 203.24ZM313.613 199.008V198.024H320.213V199.008H313.613ZM325.972 203.24C325.167 203.24 324.479 203.04 323.908 202.64C323.337 202.235 322.9 201.688 322.596 201C322.292 200.312 322.14 199.536 322.14 198.672C322.14 197.813 322.289 197.04 322.588 196.352C322.892 195.664 323.327 195.12 323.892 194.72C324.457 194.32 325.135 194.12 325.924 194.12C326.735 194.12 327.417 194.317 327.972 194.712C328.527 195.107 328.945 195.648 329.228 196.336C329.516 197.019 329.66 197.797 329.66 198.672C329.66 199.531 329.519 200.307 329.236 201C328.953 201.688 328.537 202.235 327.988 202.64C327.439 203.04 326.767 203.24 325.972 203.24ZM326.092 202.144C326.705 202.144 327.212 201.995 327.612 201.696C328.012 201.397 328.311 200.987 328.508 200.464C328.705 199.936 328.804 199.339 328.804 198.672C328.804 197.995 328.705 197.397 328.508 196.88C328.311 196.357 328.012 195.949 327.612 195.656C327.217 195.363 326.719 195.216 326.116 195.216C325.497 195.216 324.985 195.368 324.58 195.672C324.175 195.976 323.873 196.389 323.676 196.912C323.484 197.435 323.388 198.021 323.388 198.672C323.388 199.328 323.487 199.92 323.684 200.448C323.887 200.971 324.188 201.384 324.588 201.688C324.988 201.992 325.489 202.144 326.092 202.144ZM328.804 203V196.496H328.676V191.48H329.86V203H328.804ZM36.4077 225.24C35.549 225.24 34.8157 225.045 34.2077 224.656C33.5997 224.267 33.133 223.728 32.8077 223.04C32.4824 222.352 32.3197 221.563 32.3197 220.672C32.3197 219.765 32.485 218.971 32.8157 218.288C33.1464 217.605 33.6157 217.075 34.2237 216.696C34.837 216.312 35.565 216.12 36.4077 216.12C37.2717 216.12 38.0077 216.315 38.6157 216.704C39.229 217.088 39.6957 217.624 40.0157 218.312C40.341 218.995 40.5037 219.781 40.5037 220.672C40.5037 221.579 40.341 222.376 40.0157 223.064C39.6904 223.747 39.221 224.28 38.6077 224.664C37.9944 225.048 37.261 225.24 36.4077 225.24ZM36.4077 224.112C37.3677 224.112 38.0824 223.795 38.5517 223.16C39.021 222.52 39.2557 221.691 39.2557 220.672C39.2557 219.627 39.0184 218.795 38.5437 218.176C38.0744 217.557 37.3624 217.248 36.4077 217.248C35.7624 217.248 35.229 217.395 34.8077 217.688C34.3917 217.976 34.0797 218.379 33.8717 218.896C33.669 219.408 33.5677 220 33.5677 220.672C33.5677 221.712 33.8077 222.547 34.2877 223.176C34.7677 223.8 35.4744 224.112 36.4077 224.112ZM48.5084 225V220.592C48.5084 220.112 48.4631 219.672 48.3724 219.272C48.2818 218.867 48.1351 218.515 47.9324 218.216C47.7351 217.912 47.4764 217.677 47.1564 217.512C46.8418 217.347 46.4578 217.264 46.0044 217.264C45.5884 217.264 45.2204 217.336 44.9004 217.48C44.5858 217.624 44.3191 217.832 44.1004 218.104C43.8871 218.371 43.7244 218.696 43.6124 219.08C43.5004 219.464 43.4444 219.901 43.4444 220.392L42.6124 220.208C42.6124 219.323 42.7671 218.579 43.0764 217.976C43.3858 217.373 43.8124 216.917 44.3564 216.608C44.9004 216.299 45.5244 216.144 46.2284 216.144C46.7458 216.144 47.1964 216.224 47.5804 216.384C47.9698 216.544 48.2978 216.76 48.5644 217.032C48.8364 217.304 49.0551 217.616 49.2204 217.968C49.3858 218.315 49.5058 218.685 49.5804 219.08C49.6551 219.469 49.6924 219.859 49.6924 220.248V225H48.5084ZM42.2604 225V216.36H43.3244V218.488H43.4444V225H42.2604ZM51.9284 225V213.24H53.1044V225H51.9284ZM55.6628 214.72V213.4H56.8388V214.72H55.6628ZM55.6628 225V216.36H56.8388V225H55.6628ZM65.4772 225V220.592C65.4772 220.112 65.4319 219.672 65.3412 219.272C65.2505 218.867 65.1039 218.515 64.9012 218.216C64.7039 217.912 64.4452 217.677 64.1252 217.512C63.8105 217.347 63.4265 217.264 62.9732 217.264C62.5572 217.264 62.1892 217.336 61.8692 217.48C61.5545 217.624 61.2879 217.832 61.0692 218.104C60.8559 218.371 60.6932 218.696 60.5812 219.08C60.4692 219.464 60.4132 219.901 60.4132 220.392L59.5812 220.208C59.5812 219.323 59.7359 218.579 60.0452 217.976C60.3545 217.373 60.7812 216.917 61.3252 216.608C61.8692 216.299 62.4932 216.144 63.1972 216.144C63.7145 216.144 64.1652 216.224 64.5492 216.384C64.9385 216.544 65.2665 216.76 65.5332 217.032C65.8052 217.304 66.0239 217.616 66.1892 217.968C66.3545 218.315 66.4745 218.685 66.5492 219.08C66.6239 219.469 66.6612 219.859 66.6612 220.248V225H65.4772ZM59.2292 225V216.36H60.2932V218.488H60.4132V225H59.2292ZM72.3463 225.24C71.5036 225.24 70.773 225.053 70.1543 224.68C69.541 224.307 69.0636 223.781 68.7223 223.104C68.381 222.427 68.2103 221.632 68.2103 220.72C68.2103 219.776 68.3783 218.96 68.7143 218.272C69.0503 217.584 69.5223 217.053 70.1303 216.68C70.7436 216.307 71.4663 216.12 72.2983 216.12C73.1516 216.12 73.8796 216.317 74.4823 216.712C75.085 217.101 75.541 217.661 75.8503 218.392C76.1596 219.123 76.301 219.995 76.2743 221.008H75.0743V220.592C75.053 219.472 74.8103 218.627 74.3463 218.056C73.8876 217.485 73.2156 217.2 72.3303 217.2C71.4023 217.2 70.6903 217.501 70.1943 218.104C69.7036 218.707 69.4583 219.565 69.4583 220.68C69.4583 221.768 69.7036 222.613 70.1943 223.216C70.6903 223.813 71.3916 224.112 72.2983 224.112C72.917 224.112 73.4556 223.971 73.9143 223.688C74.3783 223.4 74.7436 222.987 75.0103 222.448L76.1063 222.872C75.765 223.624 75.261 224.208 74.5943 224.624C73.933 225.035 73.1836 225.24 72.3463 225.24ZM69.0423 221.008V220.024H75.6423V221.008H69.0423ZM83.7248 225.24C83.0741 225.24 82.5275 225.123 82.0848 224.888C81.6475 224.653 81.3195 224.341 81.1008 223.952C80.8821 223.563 80.7728 223.139 80.7728 222.68C80.7728 222.211 80.8661 221.811 81.0528 221.48C81.2448 221.144 81.5035 220.869 81.8288 220.656C82.1595 220.443 82.5408 220.28 82.9728 220.168C83.4101 220.061 83.8928 219.968 84.4208 219.888C84.9541 219.803 85.4741 219.731 85.9808 219.672C86.4928 219.608 86.9408 219.547 87.3248 219.488L86.9088 219.744C86.9248 218.891 86.7595 218.259 86.4128 217.848C86.0661 217.437 85.4635 217.232 84.6048 217.232C84.0128 217.232 83.5115 217.365 83.1008 217.632C82.6955 217.899 82.4101 218.32 82.2448 218.896L81.1008 218.56C81.2981 217.787 81.6955 217.187 82.2928 216.76C82.8901 216.333 83.6661 216.12 84.6208 216.12C85.4101 216.12 86.0795 216.269 86.6288 216.568C87.1835 216.861 87.5755 217.288 87.8048 217.848C87.9115 218.099 87.9808 218.379 88.0128 218.688C88.0448 218.997 88.0608 219.312 88.0608 219.632V225H87.0128V222.832L87.3168 222.96C87.0235 223.701 86.5675 224.267 85.9488 224.656C85.3301 225.045 84.5888 225.24 83.7248 225.24ZM83.8608 224.224C84.4101 224.224 84.8901 224.125 85.3008 223.928C85.7115 223.731 86.0421 223.461 86.2928 223.12C86.5435 222.773 86.7061 222.384 86.7808 221.952C86.8448 221.675 86.8795 221.371 86.8848 221.04C86.8901 220.704 86.8928 220.453 86.8928 220.288L87.3408 220.52C86.9408 220.573 86.5061 220.627 86.0368 220.68C85.5728 220.733 85.1141 220.795 84.6608 220.864C84.2128 220.933 83.8075 221.016 83.4448 221.112C83.1995 221.181 82.9621 221.28 82.7328 221.408C82.5035 221.531 82.3141 221.696 82.1648 221.904C82.0208 222.112 81.9488 222.371 81.9488 222.68C81.9488 222.931 82.0101 223.173 82.1328 223.408C82.2608 223.643 82.4635 223.837 82.7408 223.992C83.0235 224.147 83.3968 224.224 83.8608 224.224ZM96.3834 225V220.592C96.3834 220.112 96.3381 219.672 96.2474 219.272C96.1568 218.867 96.0101 218.515 95.8074 218.216C95.6101 217.912 95.3514 217.677 95.0314 217.512C94.7168 217.347 94.3328 217.264 93.8794 217.264C93.4634 217.264 93.0954 217.336 92.7754 217.48C92.4608 217.624 92.1941 217.832 91.9754 218.104C91.7621 218.371 91.5994 218.696 91.4874 219.08C91.3754 219.464 91.3194 219.901 91.3194 220.392L90.4874 220.208C90.4874 219.323 90.6421 218.579 90.9514 217.976C91.2608 217.373 91.6874 216.917 92.2314 216.608C92.7754 216.299 93.3994 216.144 94.1034 216.144C94.6208 216.144 95.0714 216.224 95.4554 216.384C95.8448 216.544 96.1728 216.76 96.4394 217.032C96.7114 217.304 96.9301 217.616 97.0954 217.968C97.2608 218.315 97.3808 218.685 97.4554 219.08C97.5301 219.469 97.5674 219.859 97.5674 220.248V225H96.3834ZM90.1354 225V216.36H91.1994V218.488H91.3194V225H90.1354ZM102.949 225.24C102.143 225.24 101.455 225.04 100.885 224.64C100.314 224.235 99.8766 223.688 99.5726 223C99.2686 222.312 99.1166 221.536 99.1166 220.672C99.1166 219.813 99.2659 219.04 99.5646 218.352C99.8686 217.664 100.303 217.12 100.869 216.72C101.434 216.32 102.111 216.12 102.901 216.12C103.711 216.12 104.394 216.317 104.949 216.712C105.503 217.107 105.922 217.648 106.205 218.336C106.493 219.019 106.637 219.797 106.637 220.672C106.637 221.531 106.495 222.307 106.213 223C105.93 223.688 105.514 224.235 104.965 224.64C104.415 225.04 103.743 225.24 102.949 225.24ZM103.069 224.144C103.682 224.144 104.189 223.995 104.589 223.696C104.989 223.397 105.287 222.987 105.485 222.464C105.682 221.936 105.781 221.339 105.781 220.672C105.781 219.995 105.682 219.397 105.485 218.88C105.287 218.357 104.989 217.949 104.589 217.656C104.194 217.363 103.695 217.216 103.093 217.216C102.474 217.216 101.962 217.368 101.557 217.672C101.151 217.976 100.85 218.389 100.653 218.912C100.461 219.435 100.365 220.021 100.365 220.672C100.365 221.328 100.463 221.92 100.661 222.448C100.863 222.971 101.165 223.384 101.565 223.688C101.965 223.992 102.466 224.144 103.069 224.144ZM105.781 225V218.496H105.653V213.48H106.837V225H105.781ZM118.524 225V220.592C118.524 220.112 118.479 219.672 118.388 219.272C118.297 218.867 118.151 218.515 117.948 218.216C117.751 217.912 117.492 217.677 117.172 217.512C116.857 217.347 116.473 217.264 116.02 217.264C115.604 217.264 115.236 217.336 114.916 217.48C114.601 217.624 114.335 217.832 114.116 218.104C113.903 218.371 113.74 218.696 113.628 219.08C113.516 219.464 113.46 219.901 113.46 220.392L112.628 220.208C112.628 219.323 112.783 218.579 113.092 217.976C113.401 217.373 113.828 216.917 114.372 216.608C114.916 216.299 115.54 216.144 116.244 216.144C116.761 216.144 117.212 216.224 117.596 216.384C117.985 216.544 118.313 216.76 118.58 217.032C118.852 217.304 119.071 217.616 119.236 217.968C119.401 218.315 119.521 218.685 119.596 219.08C119.671 219.469 119.708 219.859 119.708 220.248V225H118.524ZM112.276 225V213.48H113.34V219.984H113.46V225H112.276ZM124.256 225.24C123.605 225.24 123.059 225.123 122.616 224.888C122.179 224.653 121.851 224.341 121.632 223.952C121.413 223.563 121.304 223.139 121.304 222.68C121.304 222.211 121.397 221.811 121.584 221.48C121.776 221.144 122.035 220.869 122.36 220.656C122.691 220.443 123.072 220.28 123.504 220.168C123.941 220.061 124.424 219.968 124.952 219.888C125.485 219.803 126.005 219.731 126.512 219.672C127.024 219.608 127.472 219.547 127.856 219.488L127.44 219.744C127.456 218.891 127.291 218.259 126.944 217.848C126.597 217.437 125.995 217.232 125.136 217.232C124.544 217.232 124.043 217.365 123.632 217.632C123.227 217.899 122.941 218.32 122.776 218.896L121.632 218.56C121.829 217.787 122.227 217.187 122.824 216.76C123.421 216.333 124.197 216.12 125.152 216.12C125.941 216.12 126.611 216.269 127.16 216.568C127.715 216.861 128.107 217.288 128.336 217.848C128.443 218.099 128.512 218.379 128.544 218.688C128.576 218.997 128.592 219.312 128.592 219.632V225H127.544V222.832L127.848 222.96C127.555 223.701 127.099 224.267 126.48 224.656C125.861 225.045 125.12 225.24 124.256 225.24ZM124.392 224.224C124.941 224.224 125.421 224.125 125.832 223.928C126.243 223.731 126.573 223.461 126.824 223.12C127.075 222.773 127.237 222.384 127.312 221.952C127.376 221.675 127.411 221.371 127.416 221.04C127.421 220.704 127.424 220.453 127.424 220.288L127.872 220.52C127.472 220.573 127.037 220.627 126.568 220.68C126.104 220.733 125.645 220.795 125.192 220.864C124.744 220.933 124.339 221.016 123.976 221.112C123.731 221.181 123.493 221.28 123.264 221.408C123.035 221.531 122.845 221.696 122.696 221.904C122.552 222.112 122.48 222.371 122.48 222.68C122.48 222.931 122.541 223.173 122.664 223.408C122.792 223.643 122.995 223.837 123.272 223.992C123.555 224.147 123.928 224.224 124.392 224.224ZM133.899 225.232C132.885 225.232 132.051 225.013 131.395 224.576C130.744 224.139 130.344 223.531 130.195 222.752L131.395 222.552C131.523 223.043 131.813 223.435 132.267 223.728C132.725 224.016 133.291 224.16 133.963 224.16C134.619 224.16 135.136 224.024 135.515 223.752C135.893 223.475 136.083 223.099 136.083 222.624C136.083 222.357 136.021 222.141 135.899 221.976C135.781 221.805 135.539 221.648 135.171 221.504C134.803 221.36 134.253 221.189 133.523 220.992C132.739 220.779 132.125 220.565 131.683 220.352C131.24 220.139 130.925 219.893 130.739 219.616C130.552 219.333 130.459 218.989 130.459 218.584C130.459 218.093 130.597 217.664 130.875 217.296C131.152 216.923 131.536 216.635 132.027 216.432C132.517 216.224 133.088 216.12 133.739 216.12C134.389 216.12 134.971 216.227 135.483 216.44C136 216.648 136.416 216.941 136.731 217.32C137.045 217.699 137.232 218.139 137.291 218.64L136.091 218.856C136.011 218.349 135.757 217.949 135.331 217.656C134.909 217.357 134.373 217.203 133.723 217.192C133.109 217.176 132.611 217.293 132.227 217.544C131.843 217.789 131.651 218.117 131.651 218.528C131.651 218.757 131.72 218.955 131.859 219.12C131.997 219.28 132.248 219.432 132.611 219.576C132.979 219.72 133.501 219.877 134.179 220.048C134.973 220.251 135.597 220.464 136.051 220.688C136.504 220.912 136.827 221.176 137.019 221.48C137.211 221.784 137.307 222.16 137.307 222.608C137.307 223.424 137.003 224.067 136.395 224.536C135.792 225 134.96 225.232 133.899 225.232ZM144.756 225.24C144.105 225.24 143.559 225.123 143.116 224.888C142.679 224.653 142.351 224.341 142.132 223.952C141.913 223.563 141.804 223.139 141.804 222.68C141.804 222.211 141.897 221.811 142.084 221.48C142.276 221.144 142.535 220.869 142.86 220.656C143.191 220.443 143.572 220.28 144.004 220.168C144.441 220.061 144.924 219.968 145.452 219.888C145.985 219.803 146.505 219.731 147.012 219.672C147.524 219.608 147.972 219.547 148.356 219.488L147.94 219.744C147.956 218.891 147.791 218.259 147.444 217.848C147.097 217.437 146.495 217.232 145.636 217.232C145.044 217.232 144.543 217.365 144.132 217.632C143.727 217.899 143.441 218.32 143.276 218.896L142.132 218.56C142.329 217.787 142.727 217.187 143.324 216.76C143.921 216.333 144.697 216.12 145.652 216.12C146.441 216.12 147.111 216.269 147.66 216.568C148.215 216.861 148.607 217.288 148.836 217.848C148.943 218.099 149.012 218.379 149.044 218.688C149.076 218.997 149.092 219.312 149.092 219.632V225H148.044V222.832L148.348 222.96C148.055 223.701 147.599 224.267 146.98 224.656C146.361 225.045 145.62 225.24 144.756 225.24ZM144.892 224.224C145.441 224.224 145.921 224.125 146.332 223.928C146.743 223.731 147.073 223.461 147.324 223.12C147.575 222.773 147.737 222.384 147.812 221.952C147.876 221.675 147.911 221.371 147.916 221.04C147.921 220.704 147.924 220.453 147.924 220.288L148.372 220.52C147.972 220.573 147.537 220.627 147.068 220.68C146.604 220.733 146.145 220.795 145.692 220.864C145.244 220.933 144.839 221.016 144.476 221.112C144.231 221.181 143.993 221.28 143.764 221.408C143.535 221.531 143.345 221.696 143.196 221.904C143.052 222.112 142.98 222.371 142.98 222.68C142.98 222.931 143.041 223.173 143.164 223.408C143.292 223.643 143.495 223.837 143.772 223.992C144.055 224.147 144.428 224.224 144.892 224.224ZM154.538 225V213.24H155.714V225H154.538ZM161.72 225.24C160.862 225.24 160.128 225.045 159.52 224.656C158.912 224.267 158.446 223.728 158.12 223.04C157.795 222.352 157.632 221.563 157.632 220.672C157.632 219.765 157.798 218.971 158.128 218.288C158.459 217.605 158.928 217.075 159.536 216.696C160.15 216.312 160.878 216.12 161.72 216.12C162.584 216.12 163.32 216.315 163.928 216.704C164.542 217.088 165.008 217.624 165.328 218.312C165.654 218.995 165.816 219.781 165.816 220.672C165.816 221.579 165.654 222.376 165.328 223.064C165.003 223.747 164.534 224.28 163.92 224.664C163.307 225.048 162.574 225.24 161.72 225.24ZM161.72 224.112C162.68 224.112 163.395 223.795 163.864 223.16C164.334 222.52 164.568 221.691 164.568 220.672C164.568 219.627 164.331 218.795 163.856 218.176C163.387 217.557 162.675 217.248 161.72 217.248C161.075 217.248 160.542 217.395 160.12 217.688C159.704 217.976 159.392 218.379 159.184 218.896C158.982 219.408 158.88 220 158.88 220.672C158.88 221.712 159.12 222.547 159.6 223.176C160.08 223.8 160.787 224.112 161.72 224.112ZM169.108 225L166.468 216.352L167.644 216.36L169.692 223.072L171.748 216.36H172.82L174.876 223.072L176.94 216.36H178.108L175.468 225H174.444L172.284 218.12L170.132 225H169.108ZM186.337 225.24C185.467 225.24 184.731 225.045 184.129 224.656C183.526 224.267 183.067 223.731 182.753 223.048C182.443 222.36 182.283 221.571 182.273 220.68C182.283 219.773 182.449 218.979 182.769 218.296C183.089 217.608 183.55 217.075 184.153 216.696C184.755 216.312 185.486 216.12 186.345 216.12C187.219 216.12 187.979 216.333 188.625 216.76C189.275 217.187 189.721 217.771 189.961 218.512L188.809 218.88C188.606 218.363 188.283 217.963 187.841 217.68C187.403 217.392 186.902 217.248 186.337 217.248C185.702 217.248 185.177 217.395 184.761 217.688C184.345 217.976 184.035 218.379 183.833 218.896C183.63 219.413 183.526 220.008 183.521 220.68C183.531 221.715 183.771 222.547 184.241 223.176C184.71 223.8 185.409 224.112 186.337 224.112C186.923 224.112 187.422 223.979 187.833 223.712C188.249 223.44 188.563 223.045 188.777 222.528L189.961 222.88C189.641 223.648 189.171 224.235 188.553 224.64C187.934 225.04 187.195 225.24 186.337 225.24ZM194.037 225.24C193.387 225.24 192.84 225.123 192.397 224.888C191.96 224.653 191.632 224.341 191.413 223.952C191.195 223.563 191.085 223.139 191.085 222.68C191.085 222.211 191.179 221.811 191.365 221.48C191.557 221.144 191.816 220.869 192.141 220.656C192.472 220.443 192.853 220.28 193.285 220.168C193.723 220.061 194.205 219.968 194.733 219.888C195.267 219.803 195.787 219.731 196.293 219.672C196.805 219.608 197.253 219.547 197.637 219.488L197.221 219.744C197.237 218.891 197.072 218.259 196.725 217.848C196.379 217.437 195.776 217.232 194.917 217.232C194.325 217.232 193.824 217.365 193.413 217.632C193.008 217.899 192.723 218.32 192.557 218.896L191.413 218.56C191.611 217.787 192.008 217.187 192.605 216.76C193.203 216.333 193.979 216.12 194.933 216.12C195.723 216.12 196.392 216.269 196.941 216.568C197.496 216.861 197.888 217.288 198.117 217.848C198.224 218.099 198.293 218.379 198.325 218.688C198.357 218.997 198.373 219.312 198.373 219.632V225H197.325V222.832L197.629 222.96C197.336 223.701 196.88 224.267 196.261 224.656C195.643 225.045 194.901 225.24 194.037 225.24ZM194.173 224.224C194.723 224.224 195.203 224.125 195.613 223.928C196.024 223.731 196.355 223.461 196.605 223.12C196.856 222.773 197.019 222.384 197.093 221.952C197.157 221.675 197.192 221.371 197.197 221.04C197.203 220.704 197.205 220.453 197.205 220.288L197.653 220.52C197.253 220.573 196.819 220.627 196.349 220.68C195.885 220.733 195.427 220.795 194.973 220.864C194.525 220.933 194.12 221.016 193.757 221.112C193.512 221.181 193.275 221.28 193.045 221.408C192.816 221.531 192.627 221.696 192.477 221.904C192.333 222.112 192.261 222.371 192.261 222.68C192.261 222.931 192.323 223.173 192.445 223.408C192.573 223.643 192.776 223.837 193.053 223.992C193.336 224.147 193.709 224.224 194.173 224.224ZM200.456 225V216.36H201.512V218.44L201.304 218.168C201.4 217.912 201.525 217.677 201.68 217.464C201.835 217.245 202.003 217.067 202.184 216.928C202.408 216.731 202.669 216.581 202.968 216.48C203.267 216.373 203.568 216.312 203.872 216.296C204.176 216.275 204.453 216.296 204.704 216.36V217.464C204.389 217.384 204.045 217.365 203.672 217.408C203.299 217.451 202.955 217.6 202.64 217.856C202.352 218.08 202.136 218.349 201.992 218.664C201.848 218.973 201.752 219.304 201.704 219.656C201.656 220.003 201.632 220.347 201.632 220.688V225H200.456ZM210.102 225.24C209.307 225.24 208.635 225.04 208.086 224.64C207.536 224.235 207.12 223.688 206.838 223C206.555 222.307 206.414 221.531 206.414 220.672C206.414 219.797 206.555 219.019 206.838 218.336C207.126 217.648 207.547 217.107 208.102 216.712C208.656 216.317 209.339 216.12 210.15 216.12C210.939 216.12 211.616 216.32 212.182 216.72C212.747 217.12 213.179 217.664 213.478 218.352C213.782 219.04 213.934 219.813 213.934 220.672C213.934 221.536 213.782 222.312 213.478 223C213.174 223.688 212.736 224.235 212.166 224.64C211.595 225.04 210.907 225.24 210.102 225.24ZM206.214 225V213.48H207.398V218.496H207.27V225H206.214ZM209.982 224.144C210.584 224.144 211.086 223.992 211.486 223.688C211.886 223.384 212.184 222.971 212.382 222.448C212.584 221.92 212.686 221.328 212.686 220.672C212.686 220.021 212.587 219.435 212.39 218.912C212.192 218.389 211.891 217.976 211.486 217.672C211.086 217.368 210.576 217.216 209.958 217.216C209.355 217.216 208.854 217.363 208.454 217.656C208.059 217.949 207.763 218.357 207.566 218.88C207.368 219.397 207.27 219.995 207.27 220.672C207.27 221.339 207.368 221.936 207.566 222.464C207.763 222.987 208.062 223.397 208.462 223.696C208.862 223.995 209.368 224.144 209.982 224.144ZM219.298 225.24C218.44 225.24 217.706 225.045 217.098 224.656C216.49 224.267 216.024 223.728 215.698 223.04C215.373 222.352 215.21 221.563 215.21 220.672C215.21 219.765 215.376 218.971 215.706 218.288C216.037 217.605 216.506 217.075 217.114 216.696C217.728 216.312 218.456 216.12 219.298 216.12C220.162 216.12 220.898 216.315 221.506 216.704C222.12 217.088 222.586 217.624 222.906 218.312C223.232 218.995 223.394 219.781 223.394 220.672C223.394 221.579 223.232 222.376 222.906 223.064C222.581 223.747 222.112 224.28 221.498 224.664C220.885 225.048 220.152 225.24 219.298 225.24ZM219.298 224.112C220.258 224.112 220.973 223.795 221.442 223.16C221.912 222.52 222.146 221.691 222.146 220.672C222.146 219.627 221.909 218.795 221.434 218.176C220.965 217.557 220.253 217.248 219.298 217.248C218.653 217.248 218.12 217.395 217.698 217.688C217.282 217.976 216.97 218.379 216.762 218.896C216.56 219.408 216.458 220 216.458 220.672C216.458 221.712 216.698 222.547 217.178 223.176C217.658 223.8 218.365 224.112 219.298 224.112ZM231.399 225V220.592C231.399 220.112 231.354 219.672 231.263 219.272C231.172 218.867 231.026 218.515 230.823 218.216C230.626 217.912 230.367 217.677 230.047 217.512C229.732 217.347 229.348 217.264 228.895 217.264C228.479 217.264 228.111 217.336 227.791 217.48C227.476 217.624 227.21 217.832 226.991 218.104C226.778 218.371 226.615 218.696 226.503 219.08C226.391 219.464 226.335 219.901 226.335 220.392L225.503 220.208C225.503 219.323 225.658 218.579 225.967 217.976C226.276 217.373 226.703 216.917 227.247 216.608C227.791 216.299 228.415 216.144 229.119 216.144C229.636 216.144 230.087 216.224 230.471 216.384C230.86 216.544 231.188 216.76 231.455 217.032C231.727 217.304 231.946 217.616 232.111 217.968C232.276 218.315 232.396 218.685 232.471 219.08C232.546 219.469 232.583 219.859 232.583 220.248V225H231.399ZM225.151 225V216.36H226.215V218.488H226.335V225H225.151ZM238.718 225V215.72C238.718 215.496 238.729 215.275 238.75 215.056C238.777 214.837 238.828 214.629 238.902 214.432C238.977 214.229 239.094 214.043 239.254 213.872C239.43 213.68 239.622 213.541 239.83 213.456C240.038 213.365 240.254 213.307 240.478 213.28C240.708 213.253 240.932 213.24 241.15 213.24H242.254V214.232H241.23C240.782 214.232 240.446 214.341 240.222 214.56C240.004 214.779 239.894 215.123 239.894 215.592V225H238.718ZM237.222 217.368V216.36H242.254V217.368H237.222ZM246.83 225.24C245.971 225.24 245.238 225.045 244.63 224.656C244.022 224.267 243.555 223.728 243.23 223.04C242.904 222.352 242.742 221.563 242.742 220.672C242.742 219.765 242.907 218.971 243.238 218.288C243.568 217.605 244.038 217.075 244.646 216.696C245.259 216.312 245.987 216.12 246.83 216.12C247.694 216.12 248.43 216.315 249.038 216.704C249.651 217.088 250.118 217.624 250.438 218.312C250.763 218.995 250.926 219.781 250.926 220.672C250.926 221.579 250.763 222.376 250.438 223.064C250.112 223.747 249.643 224.28 249.03 224.664C248.416 225.048 247.683 225.24 246.83 225.24ZM246.83 224.112C247.79 224.112 248.504 223.795 248.974 223.16C249.443 222.52 249.678 221.691 249.678 220.672C249.678 219.627 249.44 218.795 248.966 218.176C248.496 217.557 247.784 217.248 246.83 217.248C246.184 217.248 245.651 217.395 245.23 217.688C244.814 217.976 244.502 218.379 244.294 218.896C244.091 219.408 243.99 220 243.99 220.672C243.99 221.712 244.23 222.547 244.71 223.176C245.19 223.8 245.896 224.112 246.83 224.112ZM256.298 225.24C255.44 225.24 254.706 225.045 254.098 224.656C253.49 224.267 253.024 223.728 252.698 223.04C252.373 222.352 252.21 221.563 252.21 220.672C252.21 219.765 252.376 218.971 252.706 218.288C253.037 217.605 253.506 217.075 254.114 216.696C254.728 216.312 255.456 216.12 256.298 216.12C257.162 216.12 257.898 216.315 258.506 216.704C259.12 217.088 259.586 217.624 259.906 218.312C260.232 218.995 260.394 219.781 260.394 220.672C260.394 221.579 260.232 222.376 259.906 223.064C259.581 223.747 259.112 224.28 258.498 224.664C257.885 225.048 257.152 225.24 256.298 225.24ZM256.298 224.112C257.258 224.112 257.973 223.795 258.442 223.16C258.912 222.52 259.146 221.691 259.146 220.672C259.146 219.627 258.909 218.795 258.434 218.176C257.965 217.557 257.253 217.248 256.298 217.248C255.653 217.248 255.12 217.395 254.698 217.688C254.282 217.976 253.97 218.379 253.762 218.896C253.56 219.408 253.458 220 253.458 220.672C253.458 221.712 253.698 222.547 254.178 223.176C254.658 223.8 255.365 224.112 256.298 224.112ZM266.863 225C266.378 225.101 265.898 225.141 265.423 225.12C264.954 225.099 264.532 224.997 264.159 224.816C263.791 224.635 263.511 224.352 263.319 223.968C263.164 223.648 263.079 223.325 263.063 223C263.052 222.669 263.047 222.293 263.047 221.872V213.96H264.215V221.824C264.215 222.187 264.218 222.491 264.223 222.736C264.234 222.976 264.29 223.189 264.391 223.376C264.583 223.733 264.887 223.947 265.303 224.016C265.724 224.085 266.244 224.069 266.863 223.968V225ZM261.199 217.368V216.36H266.863V217.368H261.199ZM272.445 225.24C271.651 225.24 270.979 225.04 270.429 224.64C269.88 224.235 269.464 223.688 269.181 223C268.899 222.307 268.757 221.531 268.757 220.672C268.757 219.797 268.899 219.019 269.181 218.336C269.469 217.648 269.891 217.107 270.445 216.712C271 216.317 271.683 216.12 272.493 216.12C273.283 216.12 273.96 216.32 274.525 216.72C275.091 217.12 275.523 217.664 275.821 218.352C276.125 219.04 276.277 219.813 276.277 220.672C276.277 221.536 276.125 222.312 275.821 223C275.517 223.688 275.08 224.235 274.509 224.64C273.939 225.04 273.251 225.24 272.445 225.24ZM268.557 228.84V216.36H269.613V222.864H269.741V228.84H268.557ZM272.325 224.144C272.928 224.144 273.429 223.992 273.829 223.688C274.229 223.384 274.528 222.971 274.725 222.448C274.928 221.92 275.029 221.328 275.029 220.672C275.029 220.021 274.931 219.435 274.733 218.912C274.536 218.389 274.235 217.976 273.829 217.672C273.429 217.368 272.92 217.216 272.301 217.216C271.699 217.216 271.197 217.363 270.797 217.656C270.403 217.949 270.107 218.357 269.909 218.88C269.712 219.397 269.613 219.995 269.613 220.672C269.613 221.339 269.712 221.936 269.909 222.464C270.107 222.987 270.405 223.397 270.805 223.696C271.205 223.995 271.712 224.144 272.325 224.144ZM278.034 225V216.36H279.09V218.44L278.882 218.168C278.978 217.912 279.103 217.677 279.258 217.464C279.413 217.245 279.581 217.067 279.762 216.928C279.986 216.731 280.247 216.581 280.546 216.48C280.845 216.373 281.146 216.312 281.45 216.296C281.754 216.275 282.031 216.296 282.282 216.36V217.464C281.967 217.384 281.623 217.365 281.25 217.408C280.877 217.451 280.533 217.6 280.218 217.856C279.93 218.08 279.714 218.349 279.57 218.664C279.426 218.973 279.33 219.304 279.282 219.656C279.234 220.003 279.21 220.347 279.21 220.688V225H278.034ZM283.96 214.72V213.4H285.136V214.72H283.96ZM283.96 225V216.36H285.136V225H283.96ZM293.774 225V220.592C293.774 220.112 293.729 219.672 293.638 219.272C293.547 218.867 293.401 218.515 293.198 218.216C293.001 217.912 292.742 217.677 292.422 217.512C292.107 217.347 291.723 217.264 291.27 217.264C290.854 217.264 290.486 217.336 290.166 217.48C289.851 217.624 289.585 217.832 289.366 218.104C289.153 218.371 288.99 218.696 288.878 219.08C288.766 219.464 288.71 219.901 288.71 220.392L287.878 220.208C287.878 219.323 288.033 218.579 288.342 217.976C288.651 217.373 289.078 216.917 289.622 216.608C290.166 216.299 290.79 216.144 291.494 216.144C292.011 216.144 292.462 216.224 292.846 216.384C293.235 216.544 293.563 216.76 293.83 217.032C294.102 217.304 294.321 217.616 294.486 217.968C294.651 218.315 294.771 218.685 294.846 219.08C294.921 219.469 294.958 219.859 294.958 220.248V225H293.774ZM287.526 225V216.36H288.59V218.488H288.71V225H287.526ZM301.738 225C301.253 225.101 300.773 225.141 300.298 225.12C299.829 225.099 299.407 224.997 299.034 224.816C298.666 224.635 298.386 224.352 298.194 223.968C298.039 223.648 297.954 223.325 297.938 223C297.927 222.669 297.922 222.293 297.922 221.872V213.96H299.09V221.824C299.09 222.187 299.093 222.491 299.098 222.736C299.109 222.976 299.165 223.189 299.266 223.376C299.458 223.733 299.762 223.947 300.178 224.016C300.599 224.085 301.119 224.069 301.738 223.968V225ZM296.074 217.368V216.36H301.738V217.368H296.074Z" fill="#3C3F34"/>
<g filter="url(#filter0_d_737_323)">
<circle cx="167.5" cy="71.5" r="51.5" fill="white"/>
</g>
<g filter="url(#filter1_d_737_323)">
<circle cx="167.5" cy="71.5001" r="43.775" fill="white"/>
</g>
<path d="M178.081 62.9713C178.081 61.0074 177.499 59.0876 176.408 57.4547C175.317 55.8218 173.766 54.549 171.951 53.7975C170.137 53.0459 168.14 52.8493 166.214 53.2324C164.288 53.6156 162.519 54.5613 161.13 55.95C159.741 57.3387 158.796 59.108 158.412 61.0341C158.029 62.9603 158.226 64.9568 158.978 66.7712C159.729 68.5857 161.002 70.1365 162.635 71.2276C164.268 72.3186 166.187 72.901 168.151 72.901C170.784 72.8988 173.309 71.8519 175.17 69.9902C177.032 68.1285 178.079 65.6041 178.081 62.9713ZM165.163 68.0282V65.9696H168.19C168.434 65.9693 168.668 65.8722 168.841 65.6997C169.013 65.5272 169.11 65.2933 169.11 65.0493V64.7756C169.11 64.5316 169.013 64.2977 168.841 64.1252C168.668 63.9527 168.434 63.8556 168.19 63.8553H168.16C167.461 63.8549 166.784 63.6087 166.248 63.1597C165.712 62.7106 165.351 62.0875 165.229 61.3992C165.106 60.711 165.229 60.0015 165.577 59.3949C165.925 58.7884 166.475 58.3235 167.131 58.0816V56.6066H169.189V57.8987H171.27V59.9573H168.159C167.92 59.9659 167.695 60.0666 167.53 60.2382C167.364 60.4097 167.272 60.6387 167.272 60.877C167.272 61.1153 167.364 61.3443 167.53 61.5159C167.695 61.6874 167.92 61.7881 168.159 61.7967H168.189C168.979 61.7977 169.736 62.1118 170.294 62.6703C170.853 63.2287 171.167 63.9859 171.168 64.7756V65.0493C171.167 65.6639 170.976 66.2633 170.622 66.7655C170.268 67.2677 169.767 67.6482 169.188 67.855V69.4426H167.129V68.0282H165.163Z" fill="url(#paint0_linear_737_323)"/>
<path d="M178.521 80.2344C176.32 80.1303 172.237 80.3725 169.244 83.0922V77.4965C172.969 77.2146 176.441 75.4999 178.929 72.7125C181.417 69.9251 182.729 66.282 182.588 62.5483C182.446 58.8146 180.864 55.2808 178.173 52.6891C175.481 50.0974 171.89 48.6495 168.154 48.6495C164.417 48.6495 160.826 50.0974 158.135 52.6891C155.444 55.2808 153.861 58.8146 153.72 62.5483C153.579 66.282 154.89 69.9251 157.378 72.7125C159.867 75.4999 163.338 77.2146 167.064 77.4965V83.0668C164.073 80.3664 160.004 80.1266 157.811 80.2308C157.089 80.2628 156.405 80.5639 155.894 81.0749C155.383 81.5859 155.082 82.2698 155.05 82.9917C154.944 85.2416 155.198 89.4654 158.099 92.4746C160.189 94.6434 163.24 95.772 167.172 95.8349C167.293 95.8349 169.413 95.8349 169.707 95.8192C173.377 95.6642 176.24 94.5416 178.234 92.4746C181.14 89.4654 181.388 85.2416 181.282 82.9917C181.249 82.2703 180.948 81.5872 180.437 81.0769C179.926 80.5666 179.242 80.2661 178.521 80.2344ZM156.289 62.9713C156.289 60.6242 156.985 58.3298 158.289 56.3782C159.593 54.4267 161.446 52.9056 163.615 52.0074C165.783 51.1092 168.169 50.8742 170.471 51.3321C172.773 51.79 174.888 52.9203 176.548 54.5799C178.207 56.2396 179.337 58.3541 179.795 60.6561C180.253 62.9581 180.018 65.3442 179.12 67.5127C178.222 69.6811 176.701 71.5345 174.749 72.8385C172.798 74.1425 170.503 74.8385 168.156 74.8385C165.01 74.8353 161.993 73.584 159.768 71.3591C157.544 69.1343 156.292 66.1177 156.289 62.9713ZM157.223 83.0934C157.232 82.914 157.307 82.7445 157.434 82.6175C157.562 82.4904 157.731 82.415 157.91 82.4056C159.809 82.316 163.36 82.5122 165.782 84.8469C167.374 86.3811 168.266 88.642 168.446 91.5761C167.401 90.0657 165.92 88.9112 164.2 88.2678L163.464 90.4947C163.578 90.5347 165.805 91.3193 166.932 93.6431C163.74 93.5463 161.296 92.6441 159.666 90.9573C157.334 88.539 157.138 84.9922 157.223 83.0934ZM176.659 90.9645C175.24 92.4358 173.197 93.3101 170.579 93.5729C170.624 93.3688 170.648 93.1606 170.651 92.9517C170.68 90.3506 170.261 88.1176 169.402 86.2721C169.724 85.7535 170.108 85.2765 170.547 84.8517C172.689 82.7859 175.715 82.3935 177.698 82.3935C177.955 82.3935 178.195 82.4008 178.413 82.4105C178.592 82.4201 178.761 82.4957 178.888 82.6227C179.015 82.7497 179.09 82.9191 179.099 83.0983C179.195 84.9922 178.998 88.539 176.664 90.9597L176.659 90.9645Z" fill="url(#paint1_linear_737_323)"/>
<defs>
<filter id="filter0_d_737_323" x="86" y="0" width="163" height="163" filterUnits="userSpaceOnUse" color-interpolation-filters="sRGB">
<feFlood flood-opacity="0" result="BackgroundImageFix"/>
<feColorMatrix in="SourceAlpha" type="matrix" values="0 0 0 0 0 0 0 0 0 0 0 0 0 0 0 0 0 0 127 0" result="hardAlpha"/>
<feOffset dy="10"/>
<feGaussianBlur stdDeviation="15"/>
<feComposite in2="hardAlpha" operator="out"/>
<feColorMatrix type="matrix" values="0 0 0 0 0.633333 0 0 0 0 0.633333 0 0 0 0 0.633333 0 0 0 0.25 0"/>
<feBlend mode="normal" in2="BackgroundImageFix" result="effect1_dropShadow_737_323"/>
<feBlend mode="normal" in="SourceGraphic" in2="effect1_dropShadow_737_323" result="shape"/>
</filter>
<filter id="filter1_d_737_323" x="93.7251" y="7.7251" width="147.55" height="147.55" filterUnits="userSpaceOnUse" color-interpolation-filters="sRGB">
<feFlood flood-opacity="0" result="BackgroundImageFix"/>
<feColorMatrix in="SourceAlpha" type="matrix" values="0 0 0 0 0 0 0 0 0 0 0 0 0 0 0 0 0 0 127 0" result="hardAlpha"/>
<feOffset dy="10"/>
<feGaussianBlur stdDeviation="15"/>
<feComposite in2="hardAlpha" operator="out"/>
<feColorMatrix type="matrix" values="0 0 0 0 0.633333 0 0 0 0 0.633333 0 0 0 0 0.633333 0 0 0 0.25 0"/>
<feBlend mode="normal" in2="BackgroundImageFix" result="effect1_dropShadow_737_323"/>
<feBlend mode="normal" in="SourceGraphic" in2="effect1_dropShadow_737_323" result="shape"/>
</filter>
<linearGradient id="paint0_linear_737_323" x1="158.222" y1="54.2001" x2="180.086" y2="57.5843" gradientUnits="userSpaceOnUse">
<stop stop-color="#97BC5D"/>
<stop offset="1" stop-color="#C0D997"/>
</linearGradient>
<linearGradient id="paint1_linear_737_323" x1="153.71" y1="51.402" x2="185.987" y2="54.4606" gradientUnits="userSpaceOnUse">
<stop stop-color="#97BC5D"/>
<stop offset="1" stop-color="#C0D997"/>
</linearGradient>
</defs>
</svg>
